<svg width="65" height="65" viewBox="0 0 65 65" fill="none" xmlns="http://www.w3.org/2000/svg">
<path fill-rule="evenodd" clip-rule="evenodd" d="M38.6315 46.3291V51.3013H38.6367C38.6367 53.3678 40.3639 55.0554 42.479 55.0554H22.3466C24.4617 55.0554 26.189 53.3678 26.189 51.3013V46.3291H38.6315ZM16.7974 55.0557H47.2003C47.9709 55.0557 48.5914 55.662 48.5914 56.4149C48.5914 57.1677 47.9657 57.774 47.2003 57.774H16.7974C16.0268 57.774 15.4062 57.1677 15.4062 56.4149C15.4062 55.662 16.032 55.0557 16.7974 55.0557Z" fill="#FFA8B6"/>
<path d="M4 11.4871L4 41.9955C4 45.0258 6.50721 47.4824 9.6 47.4824H54.4C57.4928 47.4824 60 45.0258 60 41.9955V11.4871C60 8.45674 57.4928 6.00015 54.4 6.00015H9.6C6.50721 6.00015 4 8.45674 4 11.4871Z" fill="#FFBDC7"/>
<path d="M37.812 27.3164C37.3824 27.3164 36.9492 27.1535 36.6233 26.8239C34.0718 24.2724 29.9243 24.2724 27.3729 26.8239C26.7174 27.4831 25.6509 27.4831 24.9917 26.8239C24.3326 26.1684 24.3326 25.1019 24.9917 24.4427C28.8541 20.5803 35.1383 20.5803 39.0007 24.4427C39.6599 25.0982 39.6599 26.1647 39.0007 26.8239C38.6711 27.1535 38.2416 27.3164 37.812 27.3164Z" fill="#FB395B"/>
<path d="M42.2083 22.9208C41.7788 22.9208 41.3455 22.7578 41.0196 22.4282C36.0463 17.4548 27.9513 17.4548 22.978 22.4282C22.3225 23.0874 21.256 23.0874 20.5968 22.4282C19.9377 21.7728 19.9377 20.7063 20.5968 20.0471C26.8848 13.759 37.1128 13.759 43.397 20.0471C44.0562 20.7026 44.0562 21.7691 43.397 22.4282C43.0675 22.7578 42.6379 22.9208 42.2083 22.9208Z" fill="#FB395B"/>
<path d="M31.9979 32.9617C33.4298 32.9617 34.5905 31.8009 34.5905 30.369C34.5905 28.9371 33.4298 27.7764 31.9979 27.7764C30.5661 27.7764 29.4053 28.9371 29.4053 30.369C29.4053 31.8009 30.5661 32.9617 31.9979 32.9617Z" fill="#DA2041"/>
<path d="M60 39.1846V41.6898C60 44.875 57.48 47.481 54.4 47.481H9.6C6.52 47.481 4 44.875 4 41.6898V39.1846H60Z" fill="#FFDDE2"/>
</svg>
