<svg width="174" height="71" viewBox="0 0 174 71" fill="none" xmlns="http://www.w3.org/2000/svg">
<path d="M91.084 3.41016H75.6327V68.8631H91.084V3.41016Z" fill="#D92F21"/>
<path d="M8.00378 29.509L6.49532 35.0456H1.42639L8.03759 13.4727H14.4225L21.1612 35.0481H15.8998L14.2301 29.5116H8.00638L8.00378 29.509ZM13.494 25.8612L12.1468 21.2846C11.7931 20.0029 11.4082 18.371 11.0883 17.1231H10.9921C10.7034 18.4047 10.3497 20.0366 10.0298 21.2846L8.71639 25.8612H13.4992H13.494Z" fill="white"/>
<path d="M37.3405 25.9234H29.3821V31.0449H38.2716V35.0456H24.5056V13.4727H37.8216V17.4733H29.3821V21.9539H37.3405V25.9234Z" fill="white"/>
<path d="M60.7183 34.0575C59.2098 34.5686 56.3541 35.2743 53.4985 35.2743C49.5505 35.2743 46.6948 34.2807 44.7052 32.3945C42.7468 30.5057 41.6571 27.6881 41.6571 24.5177C41.6909 17.3466 46.9211 13.25 54.0108 13.25C56.8015 13.25 58.9523 13.7948 60.0108 14.2748L58.9835 18.2132C57.7976 17.6684 56.3515 17.2844 53.977 17.2844C49.9016 17.2844 46.7885 19.5883 46.7885 24.2635C46.7885 28.9387 49.6129 31.3385 53.6233 31.3385C54.7156 31.3385 55.6129 31.2114 55.9978 31.0506V26.5051H52.661V22.6964H60.7157V34.0601L60.7183 34.0575Z" fill="white"/>
<path d="M71.1292 13.4727V35.0481H66.2501V13.4727H71.1292Z" fill="white"/>
<path d="M76.9959 30.0577C78.278 30.7297 80.3327 31.4016 82.4185 31.4016C84.6656 31.4016 85.8541 30.4728 85.8541 29.0329C85.8541 27.7201 84.8268 26.921 82.2286 26.0233C78.6344 24.7443 76.2598 22.7595 76.2598 19.5891C76.2598 15.9075 79.373 13.1211 84.4419 13.1211C86.9127 13.1211 88.6786 13.6011 89.9608 14.2108L88.8684 18.1154C88.0336 17.6977 86.4627 17.0906 84.3743 17.0906C82.2859 17.0906 81.2299 18.0817 81.2299 19.1714C81.2299 20.5464 82.4159 21.1561 85.2429 22.2121C89.0609 23.652 90.8268 25.6367 90.8268 28.7112C90.8268 32.3278 88.0674 35.3997 82.1298 35.3997C79.6591 35.3997 77.2195 34.7277 75.9998 34.0558L76.9959 30.0551V30.0577Z" fill="white"/>
<path d="M93.6386 35.459H100.388V37.3088H95.623V39.4519H99.9975V41.1616H95.623V43.6134H100.489V45.4632H93.6386V35.459Z" fill="#EAEAEA"/>
<path d="M101.828 35.459H103.799L107.565 42.1708H107.591V35.459H109.448V45.4632H107.464L103.711 38.7669H103.685V45.4632H101.828V35.459Z" fill="#EAEAEA"/>
<path d="M113.194 37.3088H110.489V35.459H117.883V37.3088H115.178V45.4632H113.194V37.3088Z" fill="#EAEAEA"/>
<path d="M118.921 35.459H125.67V37.3088H120.905V39.4519H125.28V41.1616H120.905V43.6134H125.771V45.4632H118.921V35.459Z" fill="#EAEAEA"/>
<path d="M127.111 35.459H131.977C132.372 35.459 132.736 35.529 133.064 35.6691C133.392 35.8092 133.672 36.009 133.904 36.2633C134.135 36.5201 134.312 36.8133 134.434 37.1454C134.557 37.4775 134.617 37.8355 134.617 38.2169C134.617 38.824 134.499 39.3403 134.268 39.7658C134.037 40.1913 133.675 40.5104 133.186 40.7257V40.7543C133.633 40.884 133.956 41.159 134.154 41.5741C134.351 41.9892 134.468 42.4977 134.502 43.0945C134.502 43.1308 134.507 43.2449 134.515 43.4317C134.541 43.9091 134.575 44.3139 134.622 44.6511C134.669 44.9884 134.754 45.2582 134.882 45.4632H132.897C132.822 45.2764 132.77 45.0611 132.739 44.8198C132.71 44.5759 132.682 44.2646 132.656 43.8806C132.63 43.5251 132.606 43.2553 132.58 43.0685C132.512 42.5263 132.367 42.1397 132.143 41.9062C131.92 41.6727 131.563 41.556 131.074 41.556H129.09V45.4658H127.105V35.4616L127.111 35.459ZM129.095 39.9863H131.269C131.724 39.9863 132.065 39.8722 132.294 39.6438C132.52 39.4155 132.635 39.0523 132.635 38.5568C132.635 38.0612 132.52 37.7291 132.294 37.506C132.068 37.2829 131.724 37.1687 131.269 37.1687H129.095V39.9837V39.9863Z" fill="#EAEAEA"/>
<path d="M136.234 35.4603H140.304C140.842 35.4603 141.313 35.5459 141.714 35.7197C142.114 35.8935 142.439 36.1296 142.694 36.4332C142.946 36.7367 143.131 37.0792 143.251 37.4632C143.368 37.8472 143.427 38.2467 143.427 38.667C143.427 39.0873 143.368 39.4895 143.251 39.8708C143.134 40.2548 142.946 40.5973 142.694 40.9008C142.442 41.2044 142.114 41.4431 141.714 41.6143C141.313 41.7881 140.842 41.8738 140.304 41.8738H138.218V45.4593H136.234V35.4551V35.4603ZM138.218 40.1692H139.76C140.013 40.1692 140.241 40.1484 140.442 40.1069C140.645 40.0654 140.827 39.9902 140.99 39.8838C141.154 39.7774 141.282 39.6244 141.37 39.4272C141.459 39.23 141.503 38.9783 141.503 38.6696C141.503 38.3609 141.459 38.1092 141.37 37.912C141.282 37.7148 141.154 37.5618 140.99 37.4502C140.827 37.3387 140.642 37.2634 140.442 37.2271C140.239 37.1908 140.013 37.17 139.76 37.17H138.218V40.1692Z" fill="#EAEAEA"/>
<path d="M144.666 35.459H149.532C149.927 35.459 150.291 35.529 150.619 35.6691C150.947 35.8092 151.228 36.009 151.459 36.2633C151.691 36.5201 151.868 36.8133 151.99 37.1454C152.112 37.4775 152.172 37.8355 152.172 38.2169C152.172 38.824 152.055 39.3403 151.823 39.7658C151.592 40.1913 151.23 40.5104 150.741 40.7257V40.7543C151.189 40.884 151.511 41.159 151.709 41.5741C151.907 41.9892 152.024 42.4977 152.057 43.0945C152.057 43.1308 152.063 43.2449 152.07 43.4317C152.096 43.9091 152.13 44.3139 152.177 44.6511C152.224 44.9884 152.31 45.2582 152.437 45.4632H150.453C150.377 45.2764 150.325 45.0611 150.294 44.8198C150.265 44.5759 150.237 44.2646 150.211 43.8806C150.185 43.5251 150.161 43.2553 150.135 43.0685C150.068 42.5263 149.922 42.1397 149.698 41.9062C149.475 41.6727 149.119 41.556 148.63 41.556H146.645V45.4658H144.661V35.4616L144.666 35.459ZM146.65 39.9863H148.825C149.28 39.9863 149.62 39.8722 149.849 39.6438C150.076 39.4155 150.19 39.0523 150.19 38.5568C150.19 38.0612 150.076 37.7291 149.849 37.506C149.623 37.2829 149.28 37.1687 148.825 37.1687H146.65V39.9837V39.9863Z" fill="#EAEAEA"/>
<path d="M153.793 35.459H155.777V45.4632H153.793V35.459Z" fill="#EAEAEA"/>
<path d="M158.876 42.142C158.876 42.7673 159.064 43.2317 159.438 43.5353C159.813 43.8388 160.291 43.9893 160.874 43.9893C161.069 43.9893 161.264 43.9711 161.462 43.9322C161.659 43.8959 161.849 43.8284 162.031 43.735C162.213 43.6416 162.356 43.5119 162.468 43.3485C162.577 43.185 162.632 42.9826 162.632 42.7388C162.632 42.5156 162.577 42.3262 162.468 42.1706C162.359 42.0175 162.211 41.8852 162.026 41.7788C161.841 41.6724 161.638 41.5816 161.42 41.5064C161.201 41.4312 160.905 41.3481 160.536 41.2547C160.291 41.1795 160.099 41.125 159.953 41.0861C159.558 40.9642 159.207 40.8396 158.905 40.7073C158.601 40.5776 158.325 40.4063 158.078 40.1962C157.828 39.986 157.631 39.7188 157.485 39.3971C157.337 39.0754 157.264 38.6888 157.264 38.2426C157.264 37.747 157.357 37.3086 157.547 36.9246C157.737 36.5406 157.995 36.2241 158.317 35.9724C158.642 35.7208 159.004 35.5314 159.404 35.4042C159.805 35.2771 160.216 35.2148 160.637 35.2148C161.126 35.2148 161.586 35.2745 162.021 35.3965C162.455 35.5184 162.837 35.7104 163.17 35.9698C163.503 36.2319 163.766 36.5666 163.961 36.9791C164.156 37.389 164.252 37.8768 164.252 38.4372H162.33C162.304 37.8768 162.135 37.485 161.818 37.2593C161.501 37.0362 161.079 36.922 160.549 36.922C160.177 36.922 159.857 37.0154 159.589 37.2022C159.318 37.389 159.183 37.6744 159.183 38.0558C159.183 38.253 159.217 38.4086 159.285 38.5254C159.352 38.6421 159.469 38.7459 159.638 38.8341C159.807 38.9223 160.031 39.0131 160.309 39.1065C160.588 39.1999 161.043 39.3348 161.675 39.5139C161.701 39.5139 161.768 39.532 161.878 39.5709C161.904 39.5813 161.927 39.5839 161.953 39.5839C162.257 39.6669 162.536 39.7603 162.788 39.8641C163.04 39.9679 163.305 40.1236 163.584 40.3337C163.862 40.5439 164.094 40.8292 164.278 41.1873C164.463 41.5479 164.556 41.9786 164.556 42.4845C164.556 43.4367 164.229 44.2098 163.571 44.804C162.913 45.3981 161.989 45.6938 160.804 45.6938C160.289 45.6938 159.802 45.6238 159.344 45.4837C158.884 45.3436 158.476 45.1257 158.119 44.8325C157.761 44.5393 157.48 44.1657 157.272 43.7117C157.066 43.2577 156.962 42.7336 156.962 42.1343H158.884L158.876 42.142Z" fill="#EAEAEA"/>
<path d="M165.727 35.459H172.476V37.3088H167.712V39.4519H172.086V41.1616H167.712V43.6134H172.578V45.4632H165.727V35.459Z" fill="#EAEAEA"/>
</svg>
