<svg width="265" height="80" viewBox="0 0 265 80" fill="none" xmlns="http://www.w3.org/2000/svg">
<path d="M20 54.1467L29.3435 25.5078H36.6638L46.0441 54.1467H38.9445L37.5467 49.1223H28.4975L27.0996 54.1467H20ZM36.0753 43.8109L33.0221 32.7214L29.9321 43.8109H36.0753Z" fill="#111111"/>
<path d="M62.5234 44.2774V54.1467H55.5342V25.5078H67.6366C73.9637 25.5078 77.4951 28.9172 77.4951 34.8747C77.4951 40.8321 73.9637 44.2774 67.6366 44.2774H62.5234ZM66.6066 38.7506C69.1816 38.7506 70.5059 37.4945 70.5059 34.8747C70.5059 32.2548 69.1816 31.0346 66.6066 31.0346H62.5234V38.7506H66.6066Z" fill="#111111"/>
<path d="M84.7686 25.5078H106.877V31.0346H99.3356V54.1467H92.3096V31.0346H84.7686V25.5078Z" fill="#111111"/>
<path d="M117.126 54.1467V25.5078H128.346C137.836 25.5078 140.08 31.4653 140.08 39.8273C140.08 48.1892 137.836 54.1467 128.346 54.1467H117.126ZM127.978 30.8911H124.115V48.7634H127.978C131.583 48.7634 133.091 47.1126 133.091 39.8273C133.091 32.5419 131.583 30.8911 127.978 30.8911Z" fill="#111111"/>
<path d="M200.308 54.6477C193.502 54.6477 189.493 51.0229 189.493 45.9986V45.4603H196.482V46.0704C196.482 48.0083 197.843 49.3003 200.308 49.3003C202.772 49.3003 204.097 48.0083 204.097 46.0704C204.097 44.24 202.993 43.0916 200.197 42.5533L197.586 42.0509C192.436 41.046 189.346 38.4261 189.346 33.4018C189.346 28.7004 193.024 25.0039 199.682 25.0039C206.341 25.0039 209.982 28.7722 209.982 33.1506V33.6171H203.03V33.1506C203.03 31.4638 201.816 30.3513 199.682 30.3513C197.549 30.3513 196.298 31.4638 196.298 33.1506C196.298 34.9809 197.475 35.914 200.308 36.4882L202.883 36.9906C208.327 38.0673 211.086 40.9024 211.086 45.7832C211.086 50.9153 207.297 54.6477 200.308 54.6477Z" fill="#111111"/>
<path d="M236.319 39.4684L245.001 54.1467H237.349L230.654 42.2318H228.337V54.1467H221.348V25.5078H228.337V36.705H230.654L236.356 25.5078H243.934L236.319 39.4684Z" fill="#111111"/>
<path d="M181.279 36.2065C180.396 32.5698 178.109 29.4774 174.848 27.5155C166.712 22.6168 156.007 25.0931 150.986 33.0304C146.535 40.0585 147.228 47.8642 152.924 55L156.719 52.117C153.629 48.241 150.833 42.2178 155.082 35.5007C158.711 29.7645 166.442 27.9821 172.322 31.5171C174.492 32.821 176.006 34.8726 176.595 37.2951C177.184 39.7116 176.767 42.2118 175.43 44.3292C174.425 45.9143 172.849 47.0268 170.991 47.4575C169.134 47.8881 167.215 47.5831 165.59 46.6021C165.578 46.6021 165.572 46.5902 165.559 46.5842L174.51 37.8872L174.357 37.7317C174.296 37.6241 174.192 37.4386 174.045 37.2114L174.155 37.1575C173.548 36.027 172.634 35.07 171.519 34.3941C169.581 33.2277 167.294 32.8689 165.081 33.3773C162.868 33.8917 160.986 35.2136 159.79 37.1037C158.38 39.3347 157.945 41.9666 158.564 44.5146C159.183 47.0627 160.783 49.228 163.07 50.5977C165.792 52.2366 168.999 52.739 172.113 52.0213C175.222 51.3035 177.858 49.4433 179.538 46.7935C181.549 43.6114 182.174 39.8551 181.291 36.2125L181.279 36.2065ZM163.879 39.562C164.401 38.7366 165.216 38.1624 166.185 37.9411C167.043 37.7437 167.926 37.8454 168.704 38.2342L163.266 43.5157C163.26 43.4858 163.248 43.4559 163.242 43.426C162.917 42.0981 163.144 40.7284 163.879 39.562Z" fill="#FF4300"/>
</svg>
