<svg width="300" height="80" viewBox="0 0 300 80" fill="none" xmlns="http://www.w3.org/2000/svg">
<path d="M37 54.1472L46.3435 25.5083H53.6638L63.0441 54.1472H55.9445L54.5467 49.1228H45.4975L44.0996 54.1472H37ZM53.0753 43.8113L50.0221 32.7219L46.9321 43.8113H53.0753Z" fill="#111111"/>
<path d="M79.5237 44.2779V54.1472H72.5344V25.5083H84.6369C90.964 25.5083 94.4954 28.9177 94.4954 34.8752C94.4954 40.8326 90.964 44.2779 84.6369 44.2779H79.5237ZM83.6069 38.7511C86.1818 38.7511 87.5061 37.495 87.5061 34.8752C87.5061 32.2553 86.1818 31.0351 83.6069 31.0351H79.5237V38.7511H83.6069Z" fill="#111111"/>
<path d="M101.769 25.5083H123.877V31.0351H116.336V54.1472H109.31V31.0351H101.769V25.5083Z" fill="#111111"/>
<path d="M134.126 54.1472V25.5083H145.346C154.836 25.5083 157.08 31.4658 157.08 39.8277C157.08 48.1897 154.836 54.1472 145.346 54.1472H134.126ZM144.978 30.8915H141.115V48.7639H144.978C148.583 48.7639 150.091 47.1131 150.091 39.8277C150.091 32.5424 148.583 30.8915 144.978 30.8915Z" fill="#111111"/>
<path d="M217.308 54.6486C210.503 54.6486 206.493 51.0239 206.493 45.9996V45.4612H213.482V46.0713C213.482 48.0093 214.843 49.3013 217.308 49.3013C219.773 49.3013 221.097 48.0093 221.097 46.0713C221.097 44.241 219.993 43.0926 217.198 42.5543L214.586 42.0518C209.436 41.047 206.346 38.4271 206.346 33.4028C206.346 28.7014 210.025 25.0049 216.683 25.0049C223.341 25.0049 226.983 28.7732 226.983 33.1515V33.6181H220.03V33.1515C220.03 31.4648 218.816 30.3522 216.683 30.3522C214.549 30.3522 213.298 31.4648 213.298 33.1515C213.298 34.9818 214.476 35.9149 217.308 36.4891L219.883 36.9916C225.327 38.0682 228.086 40.9034 228.086 45.7842C228.086 50.9163 224.297 54.6486 217.308 54.6486Z" fill="#111111"/>
<path d="M253.319 39.4689L262.001 54.1472H254.349L247.654 42.2323H245.337V54.1472H238.348V25.5083H245.337V36.7055H247.654L253.356 25.5083H260.934L253.319 39.4689Z" fill="#111111"/>
<path d="M198.279 36.2065C197.397 32.5698 195.11 29.4774 191.848 27.5155C183.712 22.6168 173.008 25.0931 167.987 33.0304C163.536 40.0585 164.228 47.8642 169.924 55L173.719 52.117C170.629 48.241 167.833 42.2178 172.082 35.5007C175.712 29.7645 183.443 27.9821 189.322 31.5171C191.493 32.821 193.007 34.8726 193.595 37.2951C194.184 39.7116 193.767 42.2118 192.431 44.3292C191.425 45.9143 189.849 47.0268 187.992 47.4575C186.134 47.8881 184.215 47.5831 182.59 46.6021C182.578 46.6021 182.572 46.5902 182.56 46.5842L191.511 37.8872L191.358 37.7317C191.296 37.6241 191.192 37.4386 191.045 37.2114L191.155 37.1575C190.548 36.027 189.635 35.07 188.519 34.3941C186.582 33.2277 184.295 32.8689 182.082 33.3773C179.868 33.8917 177.986 35.2136 176.791 37.1037C175.381 39.3347 174.945 41.9666 175.564 44.5146C176.184 47.0627 177.784 49.228 180.071 50.5977C182.793 52.2366 185.999 52.739 189.114 52.0213C192.222 51.3035 194.858 49.4433 196.538 46.7935C198.549 43.6114 199.175 39.8551 198.292 36.2125L198.279 36.2065ZM180.88 39.562C181.401 38.7366 182.216 38.1624 183.185 37.9411C184.043 37.7437 184.926 37.8454 185.705 38.2342L180.267 43.5157C180.261 43.4858 180.248 43.4559 180.242 43.426C179.917 42.0981 180.144 40.7284 180.88 39.562Z" fill="#FF4300"/>
</svg>
