<svg width="240" height="80" viewBox="0 0 240 80" fill="none" xmlns="http://www.w3.org/2000/svg">
<path d="M202.685 44.6132C197.474 44.6132 193.232 40.4003 193.232 35.2258C193.232 30.0513 197.474 25.8384 202.685 25.8384C207.896 25.8384 212.137 30.0513 212.137 35.2258C212.137 40.4003 207.896 44.6132 202.685 44.6132ZM202.685 30.8621C200.266 30.8621 198.295 32.8178 198.295 35.2258C198.295 37.6338 200.266 39.5895 202.685 39.5895C205.103 39.5895 207.074 37.6338 207.074 35.2258C207.074 32.8178 205.103 30.8621 202.685 30.8621Z" fill="#282828"/>
<path d="M217.105 25.0923C218.501 25.0923 219.634 26.2168 219.634 27.6021V52.1463C219.634 53.5316 218.501 54.6561 217.105 54.6561C215.708 54.6561 214.575 53.5316 214.575 52.1463V27.6021C214.575 26.2168 215.708 25.0923 217.105 25.0923Z" fill="#282828"/>
<path d="M170.322 44.6132C165.111 44.6132 160.869 40.4003 160.869 35.2258C160.869 30.0513 165.111 25.8384 170.322 25.8384C175.532 25.8384 179.778 30.0513 179.778 35.2258C179.778 40.4003 175.536 44.6132 170.322 44.6132ZM170.322 30.8621C167.903 30.8621 165.932 32.8178 165.932 35.2258C165.932 37.6338 167.903 39.5895 170.322 39.5895C172.74 39.5895 174.711 37.6338 174.711 35.2258C174.711 32.8178 172.74 30.8621 170.322 30.8621Z" fill="#282828"/>
<path d="M188.384 32.7157C187.833 32.7157 187.32 32.8746 186.885 33.1475V27.5982C186.885 26.2129 185.752 25.0884 184.356 25.0884C182.959 25.0884 181.826 26.2129 181.826 27.5982V52.1424C181.826 53.5277 182.959 54.6522 184.356 54.6522C185.752 54.6522 186.885 53.5277 186.885 52.1424V37.8576C187.32 38.1305 187.833 38.2894 188.384 38.2894C189.936 38.2894 191.192 37.0427 191.192 35.5025C191.192 33.9624 189.936 32.7157 188.384 32.7157Z" fill="#282828"/>
<path d="M157.738 47.9614H133.216C131.873 47.9614 130.781 49.0452 130.781 50.3775C130.781 51.7099 131.869 52.7937 133.216 52.7937H157.738C159.081 52.7937 160.173 51.7099 160.173 50.3775C160.173 49.0452 159.081 47.9614 157.738 47.9614Z" fill="#282828"/>
<path d="M154.178 39.7811H139.766V37.365H153.805C155.045 37.365 156.055 36.3668 156.055 35.1323C156.055 33.8977 155.049 32.8995 153.805 32.8995H139.766V30.6667H153.62C154.962 30.6667 156.055 29.5829 156.055 28.2506C156.055 26.9183 154.967 25.8345 153.62 25.8345H137.15C135.803 25.8345 134.715 26.9183 134.711 28.2506V41.8224H134.744C134.723 41.9447 134.711 42.0669 134.711 42.1932C134.711 43.5296 135.803 44.6093 137.146 44.6093H154.178C155.525 44.6093 156.613 43.5255 156.613 42.1932C156.613 40.8568 155.521 39.7771 154.178 39.7771V39.7811Z" fill="#282828"/>
<path d="M127.601 32.7157C127.051 32.7157 126.538 32.8746 126.103 33.1475V27.5982C126.103 26.2129 124.969 25.0884 123.573 25.0884C122.177 25.0884 121.044 26.2129 121.044 27.5982V52.1424C121.044 53.5277 122.177 54.6522 123.573 54.6522C124.969 54.6522 126.103 53.5277 126.103 52.1424V37.8576C126.538 38.1305 127.051 38.2894 127.601 38.2894C129.154 38.2894 130.41 37.0427 130.41 35.5025C130.41 33.9624 129.154 32.7157 127.601 32.7157Z" fill="#282828"/>
<path d="M116.555 39.781H114.26L115.648 35.7147C116.062 34.5006 115.406 33.1805 114.182 32.7689C112.958 32.3574 111.628 33.0093 111.213 34.2235L109.316 39.781H106.988L109.895 30.6706H115.623C116.97 30.6706 118.058 29.5868 118.058 28.2545C118.058 26.9222 116.966 25.8384 115.623 25.8384H102.52C101.174 25.8384 100.085 26.9222 100.085 28.2545C100.085 29.5868 101.178 30.6706 102.52 30.6706H104.984L102.077 39.781H101.206C99.8596 39.781 98.7715 40.8648 98.7715 42.1971C98.7715 43.5335 99.8637 44.6132 101.206 44.6132H116.555C117.902 44.6132 118.99 43.5294 118.99 42.1971C118.99 40.8607 117.898 39.781 116.555 39.781Z" fill="#282828"/>
<path d="M76.3989 44.6132C71.184 44.6132 66.9424 40.4003 66.9424 35.2258C66.9424 30.0513 71.184 25.8384 76.3989 25.8384C81.6137 25.8384 85.8512 30.0513 85.8512 35.2258C85.8512 40.4003 81.6096 44.6132 76.3989 44.6132ZM76.3989 30.8621C73.9762 30.8621 72.0094 32.8178 72.0094 35.2258C72.0094 37.6338 73.9803 39.5895 76.3989 39.5895C78.8174 39.5895 80.7883 37.6338 80.7883 35.2258C80.7883 32.8178 78.8174 30.8621 76.3989 30.8621Z" fill="#282828"/>
<path d="M94.4645 32.7155C93.9143 32.7155 93.4011 32.8744 92.9699 33.1474V27.6021C92.9699 26.2168 91.8366 25.0923 90.4405 25.0923C89.0444 25.0923 87.9111 26.2168 87.9111 27.6021V52.1463C87.9111 53.5316 89.0444 54.6561 90.4405 54.6561C91.8366 54.6561 92.9699 53.5316 92.9699 52.1463V37.8615C93.4052 38.1344 93.9143 38.2933 94.4645 38.2933C96.0167 38.2933 97.2732 37.0466 97.2732 35.5065C97.2732 33.9663 96.0167 32.7196 94.4645 32.7196V32.7155Z" fill="#282828"/>
<path d="M47.0627 32.1494L33.5986 54.5056C31.6728 57.6999 27.4188 58.7919 24.0888 56.9503L23.8465 56.8199C20.5164 54.9742 19.379 50.8957 21.2966 47.7014L34.7689 25.3411C36.6946 22.1467 40.9486 21.0548 44.2787 22.8923L44.521 23.0227C47.8511 24.8766 48.9885 28.955 47.0627 32.1494Z" fill="url(#paint0_linear_69_3995)"/>
<path d="M52.3424 57.9996C56.6046 57.9996 60.0579 54.573 60.0579 50.3438C60.0579 46.1146 56.6046 42.688 52.3424 42.688C48.0802 42.688 44.627 46.1146 44.627 50.3438C44.627 54.573 48.0802 57.9996 52.3424 57.9996Z" fill="url(#paint1_linear_69_3995)"/>
<defs>
<linearGradient id="paint0_linear_69_3995" x1="44.7386" y1="48.1495" x2="23.1542" y2="31.0576" gradientUnits="userSpaceOnUse">
<stop offset="0.16" stop-color="#4184FF"/>
<stop offset="0.31" stop-color="#3A7BFF"/>
<stop offset="0.5" stop-color="#2D69FE"/>
<stop offset="1" stop-color="#1F4FFC"/>
</linearGradient>
<linearGradient id="paint1_linear_69_3995" x1="61.7825" y1="55.9705" x2="37.0183" y2="40.9822" gradientUnits="userSpaceOnUse">
<stop offset="0.16" stop-color="#4184FF"/>
<stop offset="0.31" stop-color="#3A7BFF"/>
<stop offset="0.5" stop-color="#2D69FE"/>
<stop offset="1" stop-color="#1F4FFC"/>
</linearGradient>
</defs>
</svg>
