<svg width="240" height="80" viewBox="0 0 240 80" fill="none" xmlns="http://www.w3.org/2000/svg">
<path d="M202.32 44.6118C197.109 44.6118 192.867 40.3988 192.867 35.2243C192.867 30.0498 197.109 25.8369 202.32 25.8369C207.531 25.8369 211.772 30.0498 211.772 35.2243C211.772 40.3988 207.531 44.6118 202.32 44.6118ZM202.32 30.8607C199.901 30.8607 197.93 32.8164 197.93 35.2243C197.93 37.6323 199.901 39.588 202.32 39.588C204.738 39.588 206.709 37.6323 206.709 35.2243C206.709 32.8164 204.738 30.8607 202.32 30.8607Z" fill="#282828"/>
<path d="M216.74 25.0918C218.136 25.0918 219.269 26.2163 219.269 27.6016V52.1458C219.269 53.5311 218.136 54.6557 216.74 54.6557C215.344 54.6557 214.21 53.5311 214.21 52.1458V27.6016C214.21 26.2163 215.344 25.0918 216.74 25.0918Z" fill="#282828"/>
<path d="M169.956 44.6118C164.746 44.6118 160.504 40.3988 160.504 35.2243C160.504 30.0498 164.746 25.8369 169.956 25.8369C175.167 25.8369 179.413 30.0498 179.413 35.2243C179.413 40.3988 175.171 44.6118 169.956 44.6118ZM169.956 30.8607C167.538 30.8607 165.567 32.8164 165.567 35.2243C165.567 37.6323 167.538 39.588 169.956 39.588C172.375 39.588 174.346 37.6323 174.346 35.2243C174.346 32.8164 172.375 30.8607 169.956 30.8607Z" fill="#282828"/>
<path d="M188.018 32.7152C187.468 32.7152 186.955 32.8741 186.52 33.1471V27.5977C186.52 26.2124 185.386 25.0879 183.99 25.0879C182.594 25.0879 181.461 26.2124 181.461 27.5977V52.1419C181.461 53.5272 182.594 54.6517 183.99 54.6517C185.386 54.6517 186.52 53.5272 186.52 52.1419V37.8571C186.955 38.13 187.468 38.289 188.018 38.289C189.571 38.289 190.827 37.0422 190.827 35.5021C190.827 33.9619 189.571 32.7152 188.018 32.7152Z" fill="#282828"/>
<path d="M157.373 47.9614H132.851C131.508 47.9614 130.416 49.0452 130.416 50.3775C130.416 51.7099 131.504 52.7937 132.851 52.7937H157.373C158.716 52.7937 159.808 51.7099 159.808 50.3775C159.808 49.0452 158.716 47.9614 157.373 47.9614Z" fill="#282828"/>
<path d="M153.813 39.7797H139.4V37.3636H153.439C154.679 37.3636 155.689 36.3653 155.689 35.1308C155.689 33.8962 154.683 32.898 153.439 32.898H139.4V30.6652H153.255C154.597 30.6652 155.689 29.5815 155.689 28.2491C155.689 26.9168 154.601 25.833 153.255 25.833H136.785C135.438 25.833 134.35 26.9168 134.346 28.2491V41.821H134.379C134.358 41.9432 134.346 42.0654 134.346 42.1917C134.346 43.5281 135.438 44.6079 136.781 44.6079H153.813C155.16 44.6079 156.248 43.5241 156.248 42.1917C156.248 40.8553 155.156 39.7756 153.813 39.7756V39.7797Z" fill="#282828"/>
<path d="M127.236 32.7152C126.686 32.7152 126.173 32.8741 125.738 33.1471V27.5977C125.738 26.2124 124.604 25.0879 123.208 25.0879C121.812 25.0879 120.679 26.2124 120.679 27.5977V52.1419C120.679 53.5272 121.812 54.6517 123.208 54.6517C124.604 54.6517 125.738 53.5272 125.738 52.1419V37.8571C126.173 38.13 126.686 38.289 127.236 38.289C128.789 38.289 130.045 37.0422 130.045 35.5021C130.045 33.9619 128.789 32.7152 127.236 32.7152Z" fill="#282828"/>
<path d="M116.19 39.7795H113.894L115.282 35.7133C115.697 34.4991 115.04 33.179 113.816 32.7675C112.593 32.356 111.262 33.0079 110.848 34.222L108.951 39.7795H106.622L109.53 30.6692H115.258C116.604 30.6692 117.693 29.5854 117.693 28.253C117.693 26.9207 116.6 25.8369 115.258 25.8369H102.155C100.808 25.8369 99.72 26.9207 99.72 28.253C99.72 29.5854 100.812 30.6692 102.155 30.6692H104.619L101.711 39.7795H100.841C99.4941 39.7795 98.406 40.8633 98.406 42.1956C98.406 43.532 99.4982 44.6118 100.841 44.6118H116.19C117.537 44.6118 118.625 43.528 118.625 42.1956C118.625 40.8592 117.532 39.7795 116.19 39.7795Z" fill="#282828"/>
<path d="M76.0331 44.6118C70.8183 44.6118 66.5767 40.3988 66.5767 35.2243C66.5767 30.0498 70.8183 25.8369 76.0331 25.8369C81.2479 25.8369 85.4855 30.0498 85.4855 35.2243C85.4855 40.3988 81.2438 44.6118 76.0331 44.6118ZM76.0331 30.8607C73.6105 30.8607 71.6437 32.8164 71.6437 35.2243C71.6437 37.6323 73.6146 39.588 76.0331 39.588C78.4517 39.588 80.4226 37.6323 80.4226 35.2243C80.4226 32.8164 78.4517 30.8607 76.0331 30.8607Z" fill="#282828"/>
<path d="M94.0993 32.715C93.5491 32.715 93.0358 32.8739 92.6047 33.1469V27.6016C92.6047 26.2163 91.4714 25.0918 90.0753 25.0918C88.6792 25.0918 87.5459 26.2163 87.5459 27.6016V52.1458C87.5459 53.5311 88.6792 54.6557 90.0753 54.6557C91.4714 54.6557 92.6047 53.5311 92.6047 52.1458V37.861C93.0399 38.134 93.5491 38.2929 94.0993 38.2929C95.6514 38.2929 96.9079 37.0461 96.9079 35.506C96.9079 33.9658 95.6514 32.7191 94.0993 32.7191V32.715Z" fill="#282828"/>
<path d="M46.6974 32.1489L33.2334 54.5051C31.3076 57.6995 27.0536 58.7914 23.7235 56.9498L23.4813 56.8194C20.1512 54.9737 19.0138 50.8952 20.9313 47.7009L34.4036 25.3406C36.3294 22.1462 40.5834 21.0543 43.9135 22.8918L44.1557 23.0222C47.4858 24.8761 48.6232 28.9546 46.6974 32.1489Z" fill="url(#paint0_linear_2_3619)"/>
<path d="M51.9772 57.9996C56.2394 57.9996 59.6926 54.573 59.6926 50.3438C59.6926 46.1146 56.2394 42.688 51.9772 42.688C47.715 42.688 44.2617 46.1146 44.2617 50.3438C44.2617 54.573 47.715 57.9996 51.9772 57.9996Z" fill="url(#paint1_linear_2_3619)"/>
<defs>
<linearGradient id="paint0_linear_2_3619" x1="44.3734" y1="48.1491" x2="22.7889" y2="31.0571" gradientUnits="userSpaceOnUse">
<stop offset="0.16" stop-color="#4184FF"/>
<stop offset="0.31" stop-color="#3A7BFF"/>
<stop offset="0.5" stop-color="#2D69FE"/>
<stop offset="1" stop-color="#1F4FFC"/>
</linearGradient>
<linearGradient id="paint1_linear_2_3619" x1="61.4172" y1="55.9705" x2="36.6531" y2="40.9822" gradientUnits="userSpaceOnUse">
<stop offset="0.16" stop-color="#4184FF"/>
<stop offset="0.31" stop-color="#3A7BFF"/>
<stop offset="0.5" stop-color="#2D69FE"/>
<stop offset="1" stop-color="#1F4FFC"/>
</linearGradient>
</defs>
</svg>
