<svg width="64" height="64" viewBox="0 0 64 64" fill="none" xmlns="http://www.w3.org/2000/svg">
<g clip-path="url(#clip0_85_9062)">
<path d="M58.8019 16.5868C58.1226 15.9095 57.3108 15.3588 56.4106 14.9789C55.9632 14.7917 55.4883 14.643 54.9968 14.5439C54.5052 14.4448 54.0027 14.3897 53.4835 14.3897H33.0604C32.3314 14.3897 31.6355 14.0758 31.1495 13.5307L26.1238 7.85901C25.6378 7.31387 24.9474 7 24.2129 7H10.5165C6.36336 7 3 10.3534 3 14.4943H3.01105V47.5057C3.01105 51.6465 6.37441 55 10.5275 55H53.4835C53.7431 55 53.9971 54.989 54.2512 54.9615C57.2832 54.6531 59.785 52.5496 60.6631 49.7358C60.884 49.031 61 48.2821 61 47.5057V21.8895C61 19.8191 60.1605 17.9469 58.7964 16.5923L58.8019 16.5868Z" fill="#FFBDC7"/>
<path d="M39.3021 35.3722C38.4195 34.4922 36.9918 34.4922 36.1145 35.3722L34.2351 37.246V26.2465C34.2351 25.0042 33.228 24 31.982 24C30.736 24 29.7289 25.0042 29.7289 26.2465V37.4013L27.8495 35.5275C26.967 34.6475 25.5393 34.6475 24.6619 35.5275C23.7794 36.4074 23.7794 37.8309 24.6619 38.7057L30.3155 44.3426C30.7568 44.7826 31.333 45 31.9093 45C32.4856 45 33.0618 44.7826 33.5031 44.3426L39.3073 38.5556C40.1898 37.6756 40.1898 36.2522 39.3073 35.3774L39.3021 35.3722Z" fill="#FB395B"/>
</g>
<defs>
<clipPath id="clip0_85_9062">
<rect width="58" height="48" fill="white" transform="translate(3 7)"/>
</clipPath>
</defs>
</svg>
