<svg width="240" height="80" viewBox="0 0 240 80" fill="none" xmlns="http://www.w3.org/2000/svg">
<path d="M69.0144 40C69.0144 56.5793 55.5794 70 39.0143 70C22.4493 70 9 56.5793 9 40C9 23.4207 22.4207 10 39 10C55.5794 10 69.0001 23.435 69.0001 40H69.0144Z" fill="white"/>
<path d="M11.1108 46.1752C9.75306 39.7435 11.7111 35.3271 13.6978 32.6973C16.5992 28.8669 21.3586 26.3086 27.8903 25.0222C31.0061 22.7211 34.8365 21.3491 38.9956 21.3491C43.1547 21.3491 46.9994 22.7068 50.1009 25.0222C56.6469 26.3086 61.4063 28.8669 64.2934 32.6973C66.2801 35.3271 68.2382 39.7435 66.8804 46.1752C67.3234 44.1885 67.5664 42.1304 67.5664 40.0151C67.5664 24.2647 54.746 11.4443 38.9956 11.4443C23.2452 11.4443 10.4248 24.2504 10.4248 40.0151C10.4248 42.1304 10.6678 44.1885 11.0966 46.1752H11.1108Z" fill="url(#paint0_linear_2_3634)"/>
<path d="M20.3301 39.9999C20.3301 41.4006 20.4873 42.7584 20.7731 44.0733C20.0728 40.6859 21.2019 39.1852 21.6021 38.6564C22.9313 36.8984 26.9618 33.9399 38.9961 33.9256C51.0305 33.9256 55.0753 36.8841 56.4045 38.6564C56.8047 39.1852 57.9195 40.6859 57.2191 44.0733C57.505 42.7584 57.6622 41.4006 57.6622 40.0142C57.6622 33.8684 54.6751 28.423 50.1014 25.007C46.8427 24.3639 43.141 24.0352 38.9961 24.0352C34.8513 24.0352 31.1495 24.3639 27.8908 25.007C23.3029 28.4087 20.3301 33.8684 20.3301 39.9999Z" fill="url(#paint1_linear_2_3634)"/>
<path d="M64.2943 32.6834C61.393 28.853 56.6336 26.2946 50.1019 25.0083C54.6898 28.4099 57.6626 33.8697 57.6626 40.0154C57.6626 41.4161 57.5054 42.7739 57.2195 44.0745C57.1767 44.2603 57.1338 44.4461 57.0909 44.6319C57.0909 44.6605 57.0766 44.6891 57.0623 44.7034C57.0337 44.8177 57.0194 44.9321 56.9766 45.0464C56.9337 45.2036 56.8765 45.3608 56.8336 45.5181C56.8336 45.5181 56.8336 45.5466 56.8193 45.5609C56.7336 45.8325 56.6478 46.0898 56.5478 46.3613C56.5478 46.3899 56.5335 46.4042 56.5192 46.4328C56.4192 46.7043 56.3048 46.9759 56.2048 47.2475C56.1762 47.3189 56.1476 47.3761 56.1047 47.4476C56.0333 47.6191 55.9475 47.8049 55.8618 47.9764C55.7903 48.1193 55.7188 48.2765 55.6474 48.4194C55.5902 48.5052 55.5473 48.6052 55.5044 48.691C55.4187 48.8625 55.3186 49.034 55.2186 49.2055C55.19 49.2484 55.1614 49.3056 55.1328 49.3485C52.2886 54.2365 47.2862 57.7382 41.4406 58.51C41.3405 58.51 41.2548 58.5386 41.1547 58.5528C40.9975 58.5671 40.8403 58.5957 40.6831 58.61C40.5259 58.6243 40.3686 58.6386 40.2114 58.6529C40.0828 58.6529 39.9684 58.6672 39.8541 58.6815C39.5683 58.6815 39.2824 58.6958 38.9823 58.6958C38.6821 58.6958 38.3963 58.6958 38.1104 58.6815C37.9818 58.6815 37.8674 58.6672 37.7531 58.6529C37.5959 58.6529 37.4387 58.6243 37.2814 58.61C37.1242 58.61 36.967 58.5814 36.8098 58.5528C36.7097 58.5528 36.624 58.5243 36.5239 58.51C30.6783 57.7382 25.6759 54.2508 22.8317 49.3485C22.8031 49.3056 22.7745 49.2484 22.7459 49.2055C22.6459 49.034 22.5601 48.8625 22.4601 48.691C22.4172 48.6052 22.3743 48.5195 22.3314 48.4337C22.26 48.2908 22.1742 48.1336 22.1028 47.9907C22.017 47.8192 21.9455 47.6334 21.8598 47.4618C21.8312 47.3904 21.8026 47.3189 21.774 47.2618C21.6597 46.9902 21.5454 46.7186 21.4453 46.4471C21.4453 46.4185 21.4453 46.4042 21.4167 46.3756C21.331 46.1184 21.2452 45.8468 21.1595 45.5895C21.1595 45.5752 21.1595 45.5609 21.1452 45.5467C21.1023 45.3894 21.0451 45.2322 21.0022 45.075C20.9594 44.9464 20.9451 44.8463 20.9165 44.732C20.9165 44.7034 20.9022 44.6748 20.9022 44.6605C20.8593 44.4747 20.8021 44.2889 20.7736 44.1031C20.4877 42.7882 20.3305 41.4304 20.3305 40.0297C20.3305 33.8982 23.3033 28.4385 27.8912 25.0369C21.3595 26.3232 16.6001 28.8816 13.6987 32.712C11.7121 35.3418 9.73971 39.7582 11.1118 46.1898C11.169 46.4042 11.2118 46.6186 11.269 46.833C11.3119 47.0045 11.3548 47.1903 11.4119 47.3761C11.4977 47.7048 11.5834 48.0193 11.6835 48.3337C11.7121 48.4194 11.7407 48.5338 11.7692 48.6195C11.8836 48.9483 11.9836 49.277 12.1123 49.6057C12.1409 49.7058 12.1694 49.8058 12.2123 49.8916C12.3552 50.2918 12.5125 50.692 12.6697 51.0779C12.7269 51.1922 12.784 51.3208 12.8412 51.4352C12.9555 51.7067 13.0699 51.964 13.1985 52.2213C13.2986 52.4356 13.3986 52.6357 13.5129 52.8501C13.5987 53.0073 13.6702 53.1646 13.7559 53.3218C13.8845 53.5648 14.0132 53.8077 14.1561 54.0364C14.2133 54.1507 14.2847 54.2508 14.3419 54.3651C14.4991 54.6367 14.6563 54.894 14.8136 55.1655C14.8421 55.2084 14.8707 55.2513 14.8993 55.2941C19.23 62.0831 26.2905 66.8282 34.3229 68.186C34.623 68.2289 34.9232 68.286 35.2233 68.3146C35.3805 68.3432 35.5378 68.3575 35.6807 68.3718C35.9094 68.4004 36.1666 68.429 36.4096 68.4433C36.6526 68.4576 36.8955 68.4861 37.1385 68.5004C37.3243 68.5004 37.4958 68.529 37.6816 68.529C38.1247 68.5576 38.5535 68.5576 39.0108 68.5576C39.4682 68.5576 39.897 68.5576 40.34 68.529C40.5259 68.529 40.6974 68.5147 40.8832 68.5004C41.1261 68.4861 41.3691 68.4719 41.6121 68.4433C41.8551 68.4147 42.0837 68.4004 42.3267 68.3718C42.4839 68.3575 42.6411 68.3289 42.7841 68.3146C43.0985 68.2718 43.3987 68.2289 43.6988 68.186C51.7169 66.8282 58.7917 62.0831 63.1081 55.2941C63.1367 55.2513 63.1652 55.2084 63.1938 55.1655C63.3653 54.894 63.5226 54.6367 63.6798 54.3651C63.7369 54.2508 63.8084 54.1507 63.8656 54.0364C64.0085 53.8077 64.1371 53.5648 64.2658 53.3218C64.3515 53.1646 64.423 53.0073 64.5087 52.8501C64.6231 52.6357 64.7231 52.4356 64.8232 52.2213C64.9518 51.964 65.0662 51.6924 65.1805 51.4209C65.2234 51.3065 65.2948 51.1779 65.3377 51.0493C65.5092 50.6634 65.6521 50.2632 65.8094 49.863C65.8379 49.7629 65.8665 49.6629 65.9094 49.5771C66.0237 49.2484 66.1524 48.9197 66.2524 48.591C66.281 48.5052 66.3096 48.3909 66.3382 48.3051C66.4382 47.9907 66.524 47.6619 66.6097 47.3475C66.6526 47.1617 66.6955 46.9902 66.7384 46.8044C66.7955 46.59 66.8384 46.3756 66.8813 46.1612C68.2391 39.7296 66.281 35.3132 64.2943 32.6834Z" fill="#0075B6"/>
<path d="M174.903 27.436V30.2802H171.787V32.3241H174.903V34.2964H171.787V36.3403H174.903V40.042H179.134V27.436H174.903Z" fill="#818285"/>
<path d="M170.688 39.6147C166.415 39.6147 162.827 42.4447 162.827 46.4466C162.827 50.4485 166.415 53.2927 170.688 53.2927C174.962 53.2927 178.549 50.4628 178.549 46.4466C178.549 42.4304 174.962 39.6147 170.688 39.6147ZM170.688 51.2489C168.401 51.2489 167.058 49.105 167.058 46.4466C167.058 43.7882 168.416 41.6443 170.688 41.6443C172.961 41.6443 174.318 43.8025 174.318 46.4466C174.318 49.0907 172.975 51.2489 170.688 51.2489Z" fill="#818285"/>
<path d="M100.7 33.5104V27.436H96.4839V44.6156H100.7V35.5399H103.83V33.5104H100.7Z" fill="#818285"/>
<path d="M100.7 50.5335H86.4215V43.6445H82.1909V49.9332C82.1909 51.3911 83.3772 52.5774 84.835 52.5774H100.685V50.5478L100.7 50.5335Z" fill="#818285"/>
<path d="M153.223 50.5339H139.202V44.874H134.971V49.9193C134.971 51.3771 136.143 52.5491 137.587 52.5634H153.208V50.5339H153.223Z" fill="#818285"/>
<path d="M228.675 33.1821V27.4365H224.445V37.2698C224.445 37.2698 223.144 38.5418 218.284 38.5418H212.667V30.0378H220.571V28.0082H208.423V37.9415C208.423 39.3994 209.609 40.5856 211.067 40.5856H218.27C223.215 40.5856 224.43 39.3279 224.43 39.3279V44.6304H228.661V35.2545H231.791V33.225H228.661L228.675 33.1821Z" fill="#818285"/>
<path d="M228.676 50.5333H214.398V43.5586H210.167V49.9188C210.167 51.3766 211.353 52.5629 212.811 52.5629H228.676V50.5333Z" fill="#818285"/>
<path d="M153.222 32.1529V27.4364H148.991V39.4564C148.991 39.4564 147.305 40.8999 143.274 40.8999H141.116V39.6994C144.117 39.0562 145.904 36.898 145.904 34.3254C145.904 32.939 145.389 31.667 144.446 30.6951H146.304V28.6655H141.33V26.293H137.1V28.6655H132.126V30.6951H133.984C133.041 31.667 132.526 32.939 132.526 34.3254C132.526 36.898 134.313 39.0562 137.3 39.6994V40.8999H131.74V42.9295H143.188C147.205 42.9295 148.963 41.5431 148.963 41.5431V46.3597H153.193V34.211H156.295V32.1672H153.193L153.222 32.1529ZM139.215 30.7808C140.83 30.7808 141.645 32.5674 141.645 34.2539C141.645 35.9404 140.816 37.727 139.215 37.727C137.614 37.727 136.785 35.9404 136.785 34.2539C136.785 32.5674 137.614 30.7808 139.215 30.7808Z" fill="#818285"/>
<path d="M126.293 36.7978C126.293 36.7978 127.222 35.6258 127.222 33.0817V30.2232C127.222 28.7654 126.035 27.5791 124.578 27.5791H107.555V29.6086H122.991V33.0817C122.991 35.8688 121.776 36.7978 121.776 36.7978H105.769V38.8416H114.916V42.329H106.998V44.3585H123.005V52.5481H127.236V44.9731C127.236 43.5153 126.05 42.329 124.592 42.329H119.189V38.8416H128.451V36.7978H126.307H126.293Z" fill="#818285"/>
<path d="M93.8794 28.6512H88.5483V26.293H84.3177V28.6512H78.9866V30.6808H81.2877C80.1157 31.8385 79.3868 33.3821 79.3868 35.0972C79.3868 38.656 82.1452 41.5574 86.433 41.5574C90.7208 41.5574 93.4792 38.6703 93.4792 35.0972C93.4792 33.3821 92.7503 31.8385 91.5783 30.6808H93.8794V28.6512ZM86.433 39.5136C84.5321 39.5136 83.6602 37.3411 83.6602 35.1829C83.6602 33.0247 84.5464 30.8523 86.433 30.8523C88.3196 30.8523 89.2057 33.0247 89.2057 35.1829C89.2057 37.3411 88.3196 39.5136 86.433 39.5136Z" fill="#818285"/>
<path d="M204.707 38.7267H201.905C201.905 38.7267 203.277 37.5404 203.277 34.6819V30.3941C203.277 28.9363 202.091 27.75 200.633 27.75H183.897V29.7795H199.032V34.6819C199.032 37.8691 197.36 38.7267 197.36 38.7267H193.83V33.2669H189.514V38.7267H182.453V40.7276H187.127C185.855 42.0282 185.083 43.7576 185.083 45.7586C185.083 50.1464 188.813 53.2907 193.416 53.2907C198.018 53.2907 201.762 50.1464 201.762 45.7586C201.762 43.7576 200.991 42.0282 199.719 40.7276H204.678V38.7267H204.707ZM193.473 51.2469C190.914 51.2469 189.371 48.9029 189.371 46.0015C189.371 43.1002 190.914 40.7562 193.473 40.7562C196.031 40.7562 197.56 43.1002 197.56 46.0015C197.56 48.9029 196.017 51.2469 193.473 51.2469Z" fill="#818285"/>
<path d="M158.271 40.6726V38.2143C163.53 37.4425 165.688 34.4553 166.146 30.0247H158.271V27.9951H168.518C170.076 27.9951 170.791 28.967 170.548 30.725C170.262 32.8832 168.861 39.9151 158.271 40.6726Z" fill="#818285"/>
<defs>
<linearGradient id="paint0_linear_2_3634" x1="65.494" y1="28.8097" x2="10.4105" y2="28.8097" gradientUnits="userSpaceOnUse">
<stop stop-color="#7FBE26"/>
<stop offset="1" stop-color="#C3D94E"/>
</linearGradient>
<linearGradient id="paint1_linear_2_3634" x1="54.7551" y1="35.8925" x2="17.4447" y2="35.8925" gradientUnits="userSpaceOnUse">
<stop stop-color="#00A2E6"/>
<stop offset="1" stop-color="#54C3F1"/>
</linearGradient>
</defs>
</svg>
