<svg width="263" height="80" viewBox="0 0 263 80" fill="none" xmlns="http://www.w3.org/2000/svg">
<path d="M80.1189 40C80.1189 56.5793 66.6839 70 50.1188 70C33.5538 70 20.1045 56.5793 20.1045 40C20.1045 23.4207 33.5252 10 50.1045 10C66.6839 10 80.1046 23.435 80.1046 40H80.1189Z" fill="white"/>
<path d="M22.2153 46.1761C20.8575 39.7445 22.8156 35.3281 24.8023 32.6983C27.7037 28.8679 32.4631 26.3095 38.9948 25.0232C42.1106 22.7221 45.941 21.35 50.1001 21.35C54.2592 21.35 58.1039 22.7078 61.2054 25.0232C67.7514 26.3095 72.5108 28.8679 75.3979 32.6983C77.3846 35.3281 79.3426 39.7445 77.9849 46.1761C78.4279 44.1895 78.6709 42.1314 78.6709 40.0161C78.6709 24.2657 65.8505 11.4453 50.1001 11.4453C34.3497 11.4453 21.5293 24.2514 21.5293 40.0161C21.5293 42.1314 21.7723 44.1895 22.201 46.1761H22.2153Z" fill="url(#paint0_linear_69_4010)"/>
<path d="M31.4346 40.0019C31.4346 41.4025 31.5918 42.7603 31.8776 44.0752C31.1773 40.6879 32.3064 39.1872 32.7066 38.6584C34.0358 36.9004 38.0663 33.9418 50.1006 33.9275C62.135 33.9275 66.1797 36.8861 67.509 38.6584C67.9091 39.1872 69.024 40.6879 68.3236 44.0752C68.6095 42.7603 68.7667 41.4025 68.7667 40.0161C68.7667 33.8704 65.7796 28.4249 61.2059 25.009C57.9472 24.3658 54.2455 24.0371 50.1006 24.0371C45.9558 24.0371 42.254 24.3658 38.9953 25.009C34.4074 28.4106 31.4346 33.8704 31.4346 40.0019Z" fill="url(#paint1_linear_69_4010)"/>
<path d="M75.3988 32.6848C72.4975 28.8545 67.738 26.2961 61.2063 25.0098C65.7943 28.4114 68.7671 33.8711 68.7671 40.0169C68.7671 41.4176 68.6099 42.7754 68.324 44.076C68.2812 44.2618 68.2383 44.4476 68.1954 44.6334C68.1954 44.662 68.1811 44.6906 68.1668 44.7049C68.1382 44.8192 68.1239 44.9335 68.0811 45.0479C68.0382 45.2051 67.981 45.3623 67.9381 45.5195C67.9381 45.5195 67.9381 45.5481 67.9238 45.5624C67.8381 45.834 67.7523 46.0912 67.6523 46.3628C67.6523 46.3914 67.638 46.4057 67.6237 46.4343C67.5237 46.7058 67.4093 46.9774 67.3093 47.2489C67.2807 47.3204 67.2521 47.3776 67.2092 47.449C67.1378 47.6205 67.052 47.8063 66.9662 47.9778C66.8948 48.1208 66.8233 48.278 66.7519 48.4209C66.6947 48.5067 66.6518 48.6067 66.6089 48.6925C66.5232 48.864 66.4231 49.0355 66.3231 49.207C66.2945 49.2499 66.2659 49.307 66.2373 49.3499C63.3931 54.238 58.3907 57.7396 52.5451 58.5114C52.445 58.5114 52.3593 58.54 52.2592 58.5543C52.102 58.5686 51.9448 58.5972 51.7876 58.6115C51.6303 58.6258 51.4731 58.6401 51.3159 58.6544C51.1873 58.6544 51.0729 58.6687 50.9586 58.6829C50.6727 58.6829 50.3869 58.6972 50.0867 58.6972C49.7866 58.6972 49.5008 58.6972 49.2149 58.6829C49.0863 58.6829 48.9719 58.6686 48.8576 58.6544C48.7004 58.6544 48.5432 58.6258 48.3859 58.6115C48.2287 58.6115 48.0715 58.5829 47.9143 58.5543C47.8142 58.5543 47.7285 58.5257 47.6284 58.5114C41.7828 57.7396 36.7804 54.2523 33.9362 49.3499C33.9076 49.307 33.879 49.2499 33.8504 49.207C33.7504 49.0355 33.6646 48.864 33.5646 48.6925C33.5217 48.6067 33.4788 48.521 33.4359 48.4352C33.3645 48.2923 33.2787 48.1351 33.2073 47.9921C33.1215 47.8206 33.05 47.6348 32.9643 47.4633C32.9357 47.3918 32.9071 47.3204 32.8785 47.2632C32.7642 46.9917 32.6498 46.7201 32.5498 46.4485C32.5498 46.42 32.5498 46.4057 32.5212 46.3771C32.4355 46.1198 32.3497 45.8483 32.2639 45.591C32.2639 45.5767 32.2639 45.5624 32.2497 45.5481C32.2068 45.3909 32.1496 45.2337 32.1067 45.0765C32.0638 44.9478 32.0496 44.8478 32.021 44.7334C32.021 44.7049 32.0067 44.6763 32.0067 44.662C31.9638 44.4762 31.9066 44.2904 31.878 44.1046C31.5922 42.7897 31.435 41.4319 31.435 40.0312C31.435 33.8997 34.4078 28.44 38.9957 25.0384C32.464 26.3247 27.7046 28.883 24.8032 32.7134C22.8166 35.3433 20.8442 39.7596 22.2163 46.1913C22.2735 46.4057 22.3163 46.6201 22.3735 46.8344C22.4164 47.006 22.4593 47.1918 22.5164 47.3776C22.6022 47.7063 22.6879 48.0207 22.788 48.3352C22.8166 48.4209 22.8452 48.5353 22.8737 48.621C22.9881 48.9497 23.0881 49.2785 23.2168 49.6072C23.2453 49.7072 23.2739 49.8073 23.3168 49.893C23.4597 50.2932 23.617 50.6934 23.7742 51.0793C23.8313 51.1937 23.8885 51.3223 23.9457 51.4366C24.06 51.7082 24.1744 51.9655 24.303 52.2227C24.403 52.4371 24.5031 52.6372 24.6174 52.8516C24.7032 53.0088 24.7747 53.166 24.8604 53.3232C24.989 53.5662 25.1177 53.8092 25.2606 54.0379C25.3178 54.1522 25.3892 54.2523 25.4464 54.3666C25.6036 54.6382 25.7608 54.8954 25.9181 55.167C25.9466 55.2099 25.9752 55.2527 26.0038 55.2956C30.3345 62.0846 37.395 66.8297 45.4274 68.1875C45.7275 68.2303 46.0277 68.2875 46.3278 68.3161C46.485 68.3447 46.6422 68.359 46.7852 68.3733C47.0139 68.4019 47.2711 68.4304 47.5141 68.4447C47.7571 68.459 48 68.4876 48.243 68.5019C48.4288 68.5019 48.6003 68.5305 48.7861 68.5305C49.2292 68.5591 49.658 68.5591 50.1153 68.5591C50.5727 68.5591 51.0015 68.5591 51.4445 68.5305C51.6303 68.5305 51.8019 68.5162 51.9877 68.5019C52.2306 68.4876 52.4736 68.4733 52.7166 68.4447C52.9595 68.4161 53.1882 68.4019 53.4312 68.3733C53.5884 68.359 53.7456 68.3304 53.8886 68.3161C54.203 68.2732 54.5031 68.2303 54.8033 68.1875C62.8214 66.8297 69.8962 62.0846 74.2126 55.2956C74.2411 55.2527 74.2697 55.2099 74.2983 55.167C74.4698 54.8954 74.627 54.6382 74.7843 54.3666C74.8414 54.2523 74.9129 54.1522 74.9701 54.0379C75.113 53.8092 75.2416 53.5662 75.3703 53.3232C75.456 53.166 75.5275 53.0088 75.6132 52.8516C75.7276 52.6372 75.8276 52.4371 75.9277 52.2227C76.0563 51.9655 76.1706 51.6939 76.285 51.4223C76.3279 51.308 76.3993 51.1794 76.4422 51.0507C76.6137 50.6648 76.7566 50.2646 76.9139 49.8645C76.9424 49.7644 76.971 49.6644 77.0139 49.5786C77.1282 49.2499 77.2569 48.9212 77.3569 48.5924C77.3855 48.5067 77.4141 48.3923 77.4427 48.3066C77.5427 47.9921 77.6285 47.6634 77.7142 47.349C77.7571 47.1632 77.8 46.9917 77.8429 46.8059C77.9 46.5915 77.9429 46.3771 77.9858 46.1627C79.3436 39.7311 77.3855 35.3147 75.3988 32.6848Z" fill="#0075B6"/>
<path d="M186.007 27.4375V30.2817H182.892V32.3255H186.007V34.2979H182.892V36.3417H186.007V40.0435H190.238V27.4375H186.007Z" fill="#818285"/>
<path d="M181.793 39.6172C177.519 39.6172 173.932 42.4471 173.932 46.449C173.932 50.4509 177.519 53.2951 181.793 53.2951C186.066 53.2951 189.653 50.4652 189.653 46.449C189.653 42.4328 186.066 39.6172 181.793 39.6172ZM181.793 51.2513C179.506 51.2513 178.162 49.1074 178.162 46.449C178.162 43.7906 179.52 41.6467 181.793 41.6467C184.065 41.6467 185.423 43.8049 185.423 46.449C185.423 49.0931 184.079 51.2513 181.793 51.2513Z" fill="#818285"/>
<path d="M111.804 33.5118V27.4375H107.588V44.6171H111.804V35.5414H114.934V33.5118H111.804Z" fill="#818285"/>
<path d="M111.804 50.5355H97.5255V43.6465H93.2949V49.9352C93.2949 51.393 94.4812 52.5793 95.939 52.5793H111.789V50.5498L111.804 50.5355Z" fill="#818285"/>
<path d="M164.327 50.5348H150.306V44.875H146.075V49.9203C146.075 51.3781 147.247 52.5501 148.691 52.5644H164.312V50.5348H164.327Z" fill="#818285"/>
<path d="M239.78 33.1831V27.4375H235.549V37.2708C235.549 37.2708 234.249 38.5428 229.389 38.5428H223.772V30.0387H231.676V28.0092H219.527V37.9425C219.527 39.4003 220.714 40.5866 222.171 40.5866H229.375C234.32 40.5866 235.535 39.3289 235.535 39.3289V44.6314H239.766V35.2555H242.896V33.226H239.766L239.78 33.1831Z" fill="#818285"/>
<path d="M239.78 50.5333H225.502V43.5586H221.271V49.9188C221.271 51.3766 222.458 52.5629 223.916 52.5629H239.78V50.5333Z" fill="#818285"/>
<path d="M164.326 32.1549V27.4383H160.096V39.4583C160.096 39.4583 158.409 40.9019 154.379 40.9019H152.221V39.7013C155.222 39.0581 157.009 36.9 157.009 34.3273C157.009 32.9409 156.494 31.6689 155.551 30.697H157.409V28.6675H152.435V26.2949H148.204V28.6675H143.231V30.697H145.089C144.145 31.6689 143.631 32.9409 143.631 34.3273C143.631 36.9 145.417 39.0581 148.405 39.7013V40.9019H142.845V42.9314H154.293C158.309 42.9314 160.067 41.545 160.067 41.545V46.3616H164.298V34.213H167.399V32.1691H164.298L164.326 32.1549ZM150.32 30.7828C151.935 30.7828 152.749 32.5693 152.749 34.2559C152.749 35.9424 151.92 37.7289 150.32 37.7289C148.719 37.7289 147.89 35.9424 147.89 34.2559C147.89 32.5693 148.719 30.7828 150.32 30.7828Z" fill="#818285"/>
<path d="M137.397 36.8007C137.397 36.8007 138.326 35.6287 138.326 33.0847V30.2261C138.326 28.7683 137.14 27.582 135.682 27.582H118.66V29.6116H134.096V33.0847C134.096 35.8717 132.881 36.8007 132.881 36.8007H116.873V38.8445H126.02V42.3319H118.102V44.3614H134.11V52.5511H138.34V44.976C138.34 43.5182 137.154 42.3319 135.696 42.3319H130.294V38.8445H139.555V36.8007H137.411H137.397Z" fill="#818285"/>
<path d="M104.984 28.6532H99.6525V26.2949H95.4219V28.6532H90.0908V30.6827H92.3919C91.2199 31.8404 90.491 33.384 90.491 35.0991C90.491 38.658 93.2495 41.5593 97.5372 41.5593C101.825 41.5593 104.583 38.6722 104.583 35.0991C104.583 33.384 103.855 31.8404 102.683 30.6827H104.984V28.6532ZM97.5372 39.5155C95.6363 39.5155 94.7645 37.343 94.7645 35.1849C94.7645 33.0267 95.6506 30.8542 97.5372 30.8542C99.4239 30.8542 100.31 33.0267 100.31 35.1849C100.31 37.343 99.4239 39.5155 97.5372 39.5155Z" fill="#818285"/>
<path d="M215.811 38.7286H213.01C213.01 38.7286 214.382 37.5423 214.382 34.6838V30.3961C214.382 28.9382 213.196 27.752 211.738 27.752H195.001V29.7815H210.137V34.6838C210.137 37.8711 208.465 38.7286 208.465 38.7286H204.934V33.2689H200.618V38.7286H193.558V40.7296H198.231C196.959 42.0302 196.187 43.7596 196.187 45.7605C196.187 50.1483 199.918 53.2927 204.52 53.2927C209.122 53.2927 212.867 50.1483 212.867 45.7605C212.867 43.7596 212.095 42.0302 210.823 40.7296H215.783V38.7286H215.811ZM204.577 51.2489C202.019 51.2489 200.475 48.9049 200.475 46.0035C200.475 43.1021 202.019 40.7581 204.577 40.7581C207.136 40.7581 208.665 43.1021 208.665 46.0035C208.665 48.9049 207.121 51.2489 204.577 51.2489Z" fill="#818285"/>
<path d="M169.375 40.6736V38.2152C174.635 37.4434 176.793 34.4563 177.25 30.0256H169.375V27.9961H179.623C181.181 27.9961 181.895 28.968 181.652 30.726C181.366 32.8841 179.966 39.9161 169.375 40.6736Z" fill="#818285"/>
<defs>
<linearGradient id="paint0_linear_69_4010" x1="76.5985" y1="28.8107" x2="21.515" y2="28.8107" gradientUnits="userSpaceOnUse">
<stop stop-color="#7FBE26"/>
<stop offset="1" stop-color="#C3D94E"/>
</linearGradient>
<linearGradient id="paint1_linear_69_4010" x1="65.8596" y1="35.8945" x2="28.5492" y2="35.8945" gradientUnits="userSpaceOnUse">
<stop stop-color="#00A2E6"/>
<stop offset="1" stop-color="#54C3F1"/>
</linearGradient>
</defs>
</svg>
