<svg width="48" height="48" viewBox="0 0 48 48" fill="none" xmlns="http://www.w3.org/2000/svg">
<rect width="48" height="48" fill="white"/>
<path d="M9.5472 15.4693C9.63788 15.3059 9.80649 15.2051 9.98908 15.2051H38.8726C39.0552 15.2051 39.2238 15.3059 39.3145 15.4693L40.9654 18.4442C41.1596 18.7942 40.9145 19.2299 40.5235 19.2299H8.33824C7.94719 19.2299 7.70214 18.7942 7.89635 18.4442L9.5472 15.4693Z" fill="url(#paint0_linear_85_9286)"/>
<path fill-rule="evenodd" clip-rule="evenodd" d="M9.01512 13.8633C8.7298 13.8633 8.46336 14.0067 8.30509 14.2455L5.14502 19.0127V39.9537C5.14502 41.6601 6.52043 43.0434 8.21708 43.0434H40.6444C42.341 43.0434 43.7164 41.6601 43.7164 39.9537V19.0127L40.5564 14.2455C40.3981 14.0067 40.1317 13.8633 39.8464 13.8633H38.255V15.2365H38.9546C39.1382 15.2365 39.3078 15.3354 39.399 15.4957L41.0592 18.4137C41.2546 18.757 41.0081 19.1844 40.6148 19.1844H31.7532C31.7641 19.0155 31.7695 18.8439 31.7695 18.6694H17.0919C17.0919 18.8439 17.0974 19.0155 17.1082 19.1844H8.24662C7.85335 19.1844 7.6069 18.757 7.80222 18.4137L9.46245 15.4957C9.55365 15.3354 9.72322 15.2365 9.90685 15.2365H10.6065V13.8633H9.01512ZM17.1082 19.1844C17.3619 23.1437 20.5434 25.5353 24.4307 25.5353C28.3181 25.5353 31.4995 23.1437 31.7532 19.1844H17.1082Z" fill="url(#paint1_linear_85_9286)"/>
<path fill-rule="evenodd" clip-rule="evenodd" d="M17.219 18.5586C17.219 22.9349 20.4476 25.6021 24.4302 25.6021C28.4128 25.6021 31.6414 22.9349 31.6414 18.5586H17.219Z" fill="white"/>
<path d="M10.176 12.7019C10.176 12.4173 10.4067 12.1865 10.6913 12.1865H38.1701C38.4547 12.1865 38.6853 12.4173 38.6853 12.7019V19.23H10.176V12.7019Z" fill="white"/>
<path fill-rule="evenodd" clip-rule="evenodd" d="M10.7788 11.8506C10.2604 11.8506 9.84021 12.2683 9.84021 12.7835V19.2295H10.2668V12.7835C10.2668 12.5025 10.496 12.2747 10.7788 12.2747H38.0818C38.3645 12.2747 38.5937 12.5025 38.5937 12.7835V19.2295H39.0203V12.7835C39.0203 12.2683 38.6001 11.8506 38.0818 11.8506H10.7788Z" fill="black" fill-opacity="0.77"/>
<path d="M11.1799 9.02568C11.1799 8.7332 11.411 8.49609 11.6961 8.49609H37.1607C37.4457 8.49609 37.6768 8.7332 37.6768 9.02568V11.8501H11.1799V9.02568Z" fill="white"/>
<path fill-rule="evenodd" clip-rule="evenodd" d="M11.7877 8.16113C11.2686 8.16113 10.8479 8.58369 10.8479 9.10494V11.8506H11.2751V9.10494C11.2751 8.82062 11.5046 8.59014 11.7877 8.59014H37.0758C37.3589 8.59014 37.5884 8.82062 37.5884 9.10494V11.8506H38.0156V9.10494C38.0156 8.58369 37.5949 8.16113 37.0758 8.16113H11.7877Z" fill="black" fill-opacity="0.77"/>
<path d="M12.1877 6.01516C12.1877 5.71878 12.4161 5.47852 12.6978 5.47852H36.1621C36.4438 5.47852 36.6722 5.71878 36.6722 6.01516V8.16175H12.1877V6.01516Z" fill="white"/>
<path fill-rule="evenodd" clip-rule="evenodd" d="M12.7882 5.14258C12.2753 5.14258 11.8596 5.56733 11.8596 6.09129V8.16121H12.2817V6.09129C12.2817 5.8055 12.5084 5.57381 12.7882 5.57381H36.0864C36.3661 5.57381 36.5928 5.8055 36.5928 6.09129V8.16121H37.0149V6.09129C37.0149 5.56733 36.5992 5.14258 36.0864 5.14258H12.7882Z" fill="black" fill-opacity="0.77"/>
<path d="M19.4935 32.3013L17.4705 27.9502H20.4794L21.3561 30.3863L23.2628 27.9502H26.2717L22.4071 32.3013L24.7068 37.0061H21.57L20.5329 34.2657L18.3378 37.0061H15.2034L19.4935 32.3013Z" fill="white"/>
<path d="M26.6298 30.1394H28.8833L28.6847 31.0381H28.7062C29.0292 30.6967 29.4095 30.432 29.8449 30.2439C30.2803 30.0558 30.7301 29.9629 31.1965 29.9629C32.2611 29.9629 33.0338 30.2857 33.5146 30.9313C33.9954 31.5769 34.1079 32.4779 33.8519 33.6344C33.7443 34.1267 33.5648 34.5866 33.3184 35.0139C33.0697 35.4435 32.7587 35.822 32.3831 36.1494C32.0075 36.4792 31.5865 36.7323 31.12 36.9112C30.6535 37.09 30.1535 37.1805 29.6225 37.1805C29.1273 37.1805 28.7062 37.0993 28.3594 36.9367C28.0125 36.7741 27.7637 36.5605 27.6106 36.2934H27.5891L26.9121 39.3542H24.594L26.6322 30.1371L26.6298 30.1394ZM28.345 34.7979C28.5603 35.1067 28.9359 35.26 29.467 35.26C29.998 35.26 30.4382 35.1114 30.7851 34.8165C31.1319 34.5215 31.3664 34.0942 31.4884 33.5369C31.6128 32.9702 31.5673 32.5429 31.352 32.2503C31.1367 31.9601 30.7612 31.8137 30.2301 31.8137C29.699 31.8137 29.2564 31.967 28.9024 32.2759C28.5507 32.5847 28.3139 33.0051 28.1967 33.5369C28.0795 34.0687 28.1273 34.4913 28.345 34.7979Z" fill="white"/>
<defs>
<linearGradient id="paint0_linear_85_9286" x1="24.4309" y1="14.4001" x2="24.4309" y2="19.2299" gradientUnits="userSpaceOnUse">
<stop stop-color="#505050"/>
<stop offset="1"/>
</linearGradient>
<linearGradient id="paint1_linear_85_9286" x1="24.4307" y1="13.8633" x2="24.4307" y2="43.0434" gradientUnits="userSpaceOnUse">
<stop stop-color="#DA000B"/>
<stop offset="0.23" stop-color="#FB4750"/>
<stop offset="0.305" stop-color="#C60812"/>
</linearGradient>
</defs>
</svg>
