<svg width="64" height="64" viewBox="0 0 64 64" fill="none" xmlns="http://www.w3.org/2000/svg">
<path d="M48 46.7989V17.8913L34.1156 4H8.34568C5.94469 4 4 5.94565 4 8.34783V51.6522C4 54.0543 5.94469 56 8.34568 56H43.6543C46.0553 56 48 54.0543 48 51.6522V46.7989Z" fill="#FFBDC7"/>
<path d="M48 17.9L34.1016 4V14.6534C34.1016 16.4992 35.5916 17.9 37.4243 17.9H48Z" fill="#FFDDE2"/>
<rect x="12.0009" y="27" width="28" height="4" rx="2" fill="#FFDDE2"/>
<rect x="12.0009" y="20" width="16" height="4" rx="2" fill="#FFDDE2"/>
<path d="M53.5472 46.15C52.4259 46.0421 51.6011 45.0387 51.6011 43.9113V38.6029C51.6011 36.7525 50.2749 35.0964 48.4367 34.859C46.2156 34.5731 44.3127 36.3048 44.3127 38.4734V43.9113C44.3127 45.0387 43.4879 46.0421 42.3666 46.15C41.0782 46.2741 40 45.2653 40 44.003V38.7054C40 34.422 43.283 30.7321 47.5526 30.5217C52.1186 30.2951 55.9084 33.9527 55.9084 38.4734V44.003C55.9084 45.2653 54.8248 46.2741 53.5418 46.15H53.5472Z" fill="#DA2041"/>
<path d="M57.0629 41H38.9371C37.315 41 36 42.3052 36 43.9151V58.0848C36 59.6948 37.315 61 38.9371 61H57.0629C58.685 61 60 59.6948 60 58.0848V43.9151C60 42.3052 58.685 41 57.0629 41Z" fill="#FB395B"/>
<rect x="50" y="48" width="6" height="4" rx="2" transform="rotate(90 50 48)" fill="#FFDDE2"/>
</svg>
