<svg width="24" height="24" viewBox="0 0 24 24" fill="none" xmlns="http://www.w3.org/2000/svg">
<path d="M11.3254 20.757C11.7637 20.757 12.1937 20.7224 12.6138 20.6582L14.6585 22.398L18.3194 20.2842L17.835 17.6398C18.3721 16.9742 18.8087 16.2245 19.1218 15.4123L21.6524 14.511V10.2833L19.1218 9.38211C18.8071 8.5715 18.3721 7.8202 17.835 7.15458L18.3194 4.51021L14.6585 2.39966L12.6138 4.13951C12.1937 4.07525 11.7637 4.04065 11.3254 4.04065C10.8871 4.04065 10.4571 4.07525 10.037 4.13951L7.99399 2.39966L4.33306 4.51351L4.81745 7.15788C4.28034 7.8235 3.84373 8.57315 3.53069 9.38541L1 10.285V14.5127L3.53069 15.4139C3.84537 16.2245 4.28034 16.9758 4.81745 17.6414L4.33306 20.2858L7.99399 22.3997L10.0386 20.6598C10.4588 20.7241 10.8888 20.7587 11.327 20.7587L11.3254 20.757Z" fill="#C9CCD4"/>
<path d="M13.2843 16.7593C15.691 15.6772 16.7648 12.8489 15.6827 10.4422C14.6006 8.03547 11.7723 6.96168 9.36557 8.04381C6.95885 9.12593 5.88505 11.9542 6.96718 14.3609C8.04931 16.7677 10.8776 17.8414 13.2843 16.7593Z" fill="#8D919C"/>
<path d="M12.3044 14.6695C13.5574 14.1281 14.1342 12.6735 13.5928 11.4206C13.0514 10.1676 11.5968 9.59082 10.3438 10.1322C9.09089 10.6736 8.5141 12.1282 9.05551 13.3812C9.59692 14.6341 11.0515 15.2109 12.3044 14.6695Z" fill="white"/>
</svg>
