<svg width="88" height="58" viewBox="0 0 88 58" fill="none" xmlns="http://www.w3.org/2000/svg">
<path d="M73.2138 57.3672L36.875 56.5734L48.0562 6.36719L84.395 7.16096L73.2138 57.3672Z" fill="#E5294A"/>
<path d="M58.8712 6.26948C58.6162 5.09969 57.8707 3.61457 57.2135 2.62788C56.5563 1.64119 55.0751 1.08173 53.9372 0.898634C52.5933 0.674848 51.1415 1.22414 50.141 2.18031C49.1405 3.13649 48.6696 4.63332 48.0811 6.38292C51.2102 6.41344 55.4772 6.64063 58.8811 6.59994L58.8712 6.26948Z" fill="#9F152E"/>
<path d="M86.0445 27.6735C86.8258 23.4323 86.9558 23.3797 87.0426 19.0683C87.1294 14.757 86.4783 10.358 84.5162 6.51988C83.5091 4.55699 81.7294 1.54256 79.5415 1.47246C69.9569 1.16575 62.0912 0.964207 53.4268 0.832764C56.2744 1.35854 57.1599 3.27761 57.8284 4.99514C58.9657 7.93947 59.3477 13.4513 59.3651 17.0792C59.3911 21.4781 56.2989 28.8782 56.2989 28.8782L85.9033 29.1668L86.0445 27.6735Z" fill="white"/>
<path d="M47.006 39.2866C43.6927 39.5447 39.493 38.9337 36.5411 37.3588C30.1813 39.3038 23.5461 40.3279 16.9023 40.3967C14.8197 40.4139 12.7112 40.3365 10.7146 39.7513C8.71804 39.1661 6.82473 38.0215 5.68014 36.2831C4.15688 33.9509 4.23433 30.715 5.75759 28.3742C8.42544 24.2691 12.8231 24.863 17.0228 25.1556C24.1141 25.6547 31.1796 26.5325 38.1849 27.7976C39.5016 26.4981 42.0231 24.7597 44.0025 25.3879C44.0886 25.4137 43.598 27.221 43.5722 27.5136C45.4139 28.2279 47.4277 29.3295 49.3985 29.4758C49.8718 29.5102 50.3537 29.536 50.7754 29.7425C51.3606 30.0265 51.9716 31.0765 51.4897 31.6703C52.0319 31.7477 52.5913 31.8768 53.0216 32.2211C53.4519 32.5653 53.7014 33.1849 53.4691 33.6755C53.2884 34.0713 52.8581 34.2865 52.4622 34.45C52.8925 34.2779 52.6429 35.6979 52.5741 35.827C52.2729 36.3605 51.6963 36.6445 51.1111 36.7736C50.9303 37.617 50.2763 38.2969 49.5103 38.6927C48.7444 39.0886 47.8752 39.2263 47.0232 39.2952L47.006 39.2866Z" fill="#FFB9B3"/>
<path d="M4.86167 24.2518C1.0973 27.089 0.185983 28.6831 0.44304 32.9947C0.507304 34.0962 1.76358 36.3639 2.37868 37.3106C4.10463 39.9956 7.90539 40.6239 11.2471 40.8132C19.2434 41.2607 27.3131 40.6841 35.1534 39.1264C35.2727 34.6169 35.5573 30.1074 35.9888 25.615C26.1748 24.436 15.4177 22.1084 11.1218 22.2986C6.82593 22.4887 4.86167 24.2518 4.86167 24.2518Z" fill="#6B240F"/>
</svg>
