<svg width="105" height="219" viewBox="0 0 105 219" fill="none" xmlns="http://www.w3.org/2000/svg">
<path d="M48.3071 198.529C49.2656 199.049 50.1423 199.818 50.8704 200.638C52.126 202.044 53.1216 203.662 54.4739 204.98C55.2094 205.69 56.0341 206.305 56.8589 206.92C58.642 208.245 60.4103 209.38 62.4981 210.076C63.2857 209.102 64.4224 208.443 65.6409 208.04C66.2799 207.828 66.9486 207.689 67.6321 207.586C67.8773 207.777 68.1299 207.96 68.3899 208.143C70.1211 209.336 72.0306 210.266 73.7394 211.46C73.8583 211.54 73.9846 211.65 73.9995 211.782C74.0069 211.884 73.9549 211.972 73.8954 212.045C73.0336 213.173 71.4733 213.576 69.9799 213.664C68.806 213.737 67.5875 213.678 66.4062 213.73C64.8088 213.795 63.1222 213.759 61.5322 213.341C57.3789 212.251 55.9598 207.44 52.3044 205.536C52.0369 205.397 51.3905 208.875 51.3533 209.183C51.1676 210.757 51.227 212.382 51.5242 213.986C51.0859 214 50.7367 214.008 50.0606 214.022C49.9565 212.375 49.9417 210.815 49.2284 209.263C48.8198 208.37 48.2402 207.55 47.7647 206.686C46.2119 203.83 47.3561 201.253 48.2774 198.624C48.2848 198.603 48.2923 198.573 48.2997 198.551L48.3071 198.529Z" fill="black"/>
<path d="M49.1106 192.518C49.0289 191.009 48.8877 189.501 48.7243 188C52.0826 188.242 55.4334 188.447 58.7768 188.615C58.7546 189.391 58.7397 190.167 58.7174 190.943C58.6654 192.825 58.6134 194.743 59.0889 196.537C59.6536 198.646 61.6373 200.96 62.9821 202.746C64.3269 204.525 65.8426 206.21 67.6258 207.579C66.9422 207.681 66.281 207.82 65.6346 208.033C64.4087 208.435 63.2793 209.102 62.4918 210.068C60.4114 209.373 58.6431 208.238 56.8525 206.912C56.0278 206.305 55.2031 205.69 54.4675 204.972C53.1153 203.654 52.1123 202.043 50.8641 200.63C50.1285 199.81 49.2592 199.041 48.3008 198.522C48.6648 197.489 49.0215 196.442 49.1775 195.337C49.3038 194.429 49.1626 193.44 49.1106 192.51V192.518Z" fill="#FFB9B3"/>
<path d="M12.3071 202.529C13.2656 203.049 14.1423 203.818 14.8704 204.638C16.126 206.044 17.1216 207.662 18.4739 208.98C19.2094 209.69 20.0341 210.305 20.8589 210.92C22.642 212.245 24.4103 213.38 26.4981 214.076C27.2857 213.102 28.4224 212.443 29.6409 212.04C30.2799 211.828 30.9486 211.689 31.6321 211.586C31.8773 211.777 32.1299 211.96 32.3899 212.143C34.1211 213.336 36.0306 214.266 37.7394 215.46C37.8583 215.54 37.9846 215.65 37.9995 215.782C38.0069 215.884 37.9549 215.972 37.8954 216.045C37.0336 217.173 35.4733 217.576 33.9799 217.664C32.806 217.737 31.5875 217.678 30.4062 217.73C28.8088 217.795 27.1222 217.759 25.5322 217.341C21.3789 216.251 19.9598 211.44 16.3044 209.536C16.0369 209.397 15.3905 212.875 15.3533 213.183C15.1676 214.757 15.227 216.382 15.5242 217.986C15.0859 218 14.7367 218.008 14.0606 218.022C13.9565 216.375 13.9417 214.815 13.2284 213.263C12.8198 212.37 12.2402 211.55 11.7647 210.686C10.2119 207.83 11.3561 205.253 12.2774 202.624C12.2848 202.603 12.2923 202.573 12.2997 202.551L12.3071 202.529Z" fill="black"/>
<path d="M13.1106 196.518C13.0289 195.009 12.8877 193.501 12.7243 192C16.0826 192.242 19.4334 192.447 22.7768 192.615C22.7546 193.391 22.7397 194.167 22.7174 194.943C22.6654 196.825 22.6134 198.743 23.0889 200.537C23.6536 202.646 25.6373 204.96 26.9821 206.746C28.3269 208.525 29.8426 210.21 31.6258 211.579C30.9422 211.681 30.281 211.82 29.6346 212.033C28.4087 212.435 27.2793 213.102 26.4918 214.068C24.4114 213.373 22.6431 212.238 20.8525 210.912C20.0278 210.305 19.2031 209.69 18.4675 208.972C17.1153 207.654 16.1123 206.043 14.8641 204.63C14.1285 203.81 13.2592 203.041 12.3008 202.522C12.6648 201.489 13.0215 200.442 13.1775 199.337C13.3038 198.429 13.1626 197.44 13.1106 196.51V196.518Z" fill="#FFB9B3"/>
<path d="M50.4453 20.0656C53.3915 19.8286 56.2048 18.2434 57.9548 15.8508C55.9316 15.5693 54.093 14.1545 53.2955 12.2656C53.0297 15.199 51.7966 17.4582 50.4453 20.0656Z" fill="black"/>
<path d="M54.7799 73.0867C59.8453 71.9015 64.7852 70.1607 69.474 67.9089C68.4181 60.5904 65.9814 53.5311 62.9983 46.7756C60.148 40.3163 56.4191 33.7237 50.1797 30.457C53.1111 40.1904 54.455 50.4348 55.0088 60.583C55.2377 64.8274 56.1533 69.0718 54.7799 73.0867Z" fill="#A3102E"/>
<path d="M100.567 39.2342C96.3142 41.8416 90.4365 43.3009 85.7255 41.012C84.9502 40.6342 84.2118 40.1527 83.6728 39.4787C81.8416 37.1602 84.3447 33.5898 86.272 32.1157C86.8553 31.6713 87.5125 31.2713 88.1549 30.9157C88.9893 30.4564 90.023 29.849 90.946 29.6268C91.7213 29.4416 92.7403 29.0564 93.715 30.0564C93.7815 30.1231 94.35 29.7379 94.9112 29.375C95.369 29.0787 95.8047 28.7527 96.2477 28.4268C96.8753 27.9676 97.6359 27.612 98.4334 27.7676C98.8247 27.8416 99.2382 28.0639 99.3564 28.449C99.7403 27.9602 100.449 27.7602 101.033 27.9676C101.616 28.1824 102.029 28.7898 102.015 29.412C102.502 29.1231 103.174 29.375 103.477 29.849C103.779 30.3231 103.772 31.0713 103.595 31.612C103.993 31.3379 104.577 31.5898 104.813 32.012C105.049 32.4342 105.02 32.9527 104.953 33.4268C104.577 35.975 102.687 37.9379 100.567 39.2342Z" fill="#FFB9B3"/>
<path d="M82.2256 67.5898C80.4682 70.0342 78.5853 72.4935 75.9861 74.0046C70.4703 77.2194 63.1749 75.212 58.2277 71.1676C57.8437 70.8565 57.445 70.4787 57.3859 69.9898C57.3268 69.4787 57.6517 69.012 57.9619 68.6046C66.0325 57.9898 74.1106 47.3824 82.1813 36.7676C86.9366 39.5528 88.9155 40.6046 94.1285 43.3083C90.0969 52.4194 87.5716 60.1305 82.2108 67.5898H82.2256Z" fill="#A3102E"/>
<path d="M43.3521 206.791C47.2435 208.073 48.2477 207.88 51.4376 207.828C54.6274 207.777 57.9428 207.169 59.1538 206.851C63.1707 205.769 66.1686 204.91 68.3321 203.317C65.9914 164.784 61.5758 121.584 57.522 83.1914C52.2646 84.547 47.081 83.8655 41.6538 84.1692C39.4682 84.2951 37.157 84.2951 35.2667 83.1914C35.1559 93.8581 31.9144 93.7396 33.2878 104.317C35.5842 121.969 42.2002 134.614 42.7023 142.251C43.3964 152.858 43.7878 195.317 43.3447 206.806L43.3521 206.791Z" fill="#330515"/>
<path d="M22.7016 207.836C27.0655 207.755 29.9157 207.036 34.9294 205.592C37.6098 176.718 41.2206 150.607 43.0223 125.059C43.9748 111.577 44.9273 98.0882 45.8798 84.6067C45.6879 87.3252 18.1087 77.9845 15.517 76.8438C13.2649 86.2438 12.4969 95.9919 13.1763 105.629C13.6931 112.859 15.7606 120.125 17.1341 127.259C17.5993 129.659 19.5486 137.903 19.5412 140.347C19.5412 143.414 18.8028 146.422 18.1235 149.407C13.7079 168.903 9.89039 185.844 7.86719 205.733C11.9136 206.673 15.3028 207.962 22.6942 207.829L22.7016 207.836Z" fill="#330515"/>
<path d="M58.9603 76.6336C59.2483 81.7151 61.205 88.7744 62.5194 93.8336C53.3116 100.13 40.6481 100.863 29.5278 100.16C23.3031 99.767 10.6323 96.8188 11.2894 95.2633C13.8369 89.2337 16.3474 82.404 16.724 75.7818C16.916 72.4707 15.2103 71.6337 13.2831 69.1374C11.4371 66.7522 9.82002 64.167 8.62382 61.3892C7.6196 59.0633 6.91074 56.5225 7.24302 54.0114C7.48669 52.1596 8.28415 50.4262 9.19238 48.7892C13.1354 41.6559 19.2936 35.7744 26.5964 32.1892C27.2905 31.8485 28.0215 31.5077 28.531 30.9225C28.9371 30.4559 29.166 29.8707 29.4245 29.3077C30.1702 27.6633 30.8496 25.9225 32.7251 25.367C33.7736 25.0559 34.8812 25.0633 35.9593 24.8929C38.5289 24.4855 40.9139 23.0929 43.5204 23.0114C45.1154 22.9596 46.7768 23.4633 47.8622 24.6337C48.8738 25.7225 49.2799 27.2262 49.9445 28.5596C50.8453 30.3744 52.2409 31.8855 53.5257 33.4485C56.6861 37.3003 59.0268 41.8337 60.4002 46.6262C61.0869 49.0188 61.5447 51.5003 61.6924 53.9892C61.8401 56.4781 60.9097 59.0411 60.3042 61.5151C59.0563 66.5818 58.7019 71.6188 58.9825 76.6336H58.9603Z" fill="#A3102E"/>
<path d="M49.2285 24.3311L50.3435 20.4866C47.6926 19.9459 44.8646 20.4866 42.5165 19.0644C41.4606 18.4274 40.3382 17.694 39.4152 16.9014C38.9943 16.5385 37.4437 14.7977 37.5914 14.2422C36.7791 17.4348 34.6156 24.4274 33.7813 27.6126C33.7813 27.6126 33.7665 29.4866 35.007 31.9089C36.9121 31.2348 38.7728 30.4496 40.5745 29.5533C43.5798 28.057 46.6072 26.4422 49.2359 24.3311H49.2285Z" fill="#E98F87"/>
<path d="M40.5675 29.5547C38.7658 30.451 36.9051 31.2361 35 31.9102C35.4726 32.8361 36.1224 33.8435 37.038 34.8584C40.3386 38.5324 44.6065 40.251 44.6065 40.251L49.2363 24.3398C46.6076 26.451 43.5802 28.0584 40.5749 29.5621L40.5675 29.5547Z" fill="#FFB9B3"/>
<path d="M34.5594 14.8707C34.5299 16.7522 34.9508 18.6485 35.7999 20.33C35.128 20.8707 34.1976 21.0707 33.3632 20.8633C31.7683 20.4707 30.3653 18.1818 29.8854 16.7004C29.2873 14.8485 29.3168 12.73 29.8042 10.8559C30.5204 8.10036 32.1892 6.10776 34.1238 4.82628C36.7746 3.07813 39.0341 2.69295 41.2567 3.00406C45.2071 3.56702 46.4698 5.09295 48.013 6.75221C48.8769 7.68554 49.9033 9.46332 49.8073 10.0633C48.2124 8.41887 45.0077 5.99665 42.5932 6.28554C40.9023 6.48554 39.3295 7.29295 37.9487 8.25591C37.1586 8.81147 35.9624 9.55962 35.4603 10.4115C34.9656 11.2411 34.781 12.5448 34.6554 13.4929C34.5964 13.9522 34.5594 14.4115 34.5521 14.8707H34.5594Z" fill="black"/>
<path d="M33.5172 14.5993C32.9486 15.8882 32.7861 17.7178 33.0298 19.1104C30.7777 17.3697 30.5119 13.3771 31.2281 10.6215C31.9444 7.86598 33.6131 5.87339 35.5477 4.59191C38.1986 2.84376 40.4581 2.45857 42.6807 2.76968C46.6311 3.33265 47.8937 4.85857 49.437 6.51783C50.3009 7.45117 51.3273 9.22894 51.2313 9.82894C49.6364 8.1845 46.4317 5.76228 44.0172 6.05117C42.3262 6.25117 40.7534 7.05857 39.3726 8.02154C37.3864 9.40672 35.7545 11.2586 34.2999 13.1993C33.9823 13.6215 33.7313 14.103 33.5172 14.5919V14.5993Z" fill="black"/>
<path d="M34.2811 23.0057C37.6482 28.0279 44.4415 29.3612 49.4552 25.9834C54.4615 22.6057 55.7906 15.7908 52.4235 10.7612C49.0564 5.73899 42.8908 2.76121 36.6514 6.56121C30.1313 10.5316 30.914 17.9834 34.2811 23.0057Z" fill="#FFB9B3"/>
<path d="M33.2314 18.9536C33.3496 18.7758 33.4972 18.6351 33.6892 18.5684C34.2578 18.3758 35.5795 19.4795 36.2072 19.6647C37.2114 19.961 38.3264 19.9758 39.2789 19.5388C38.6439 19.2869 38.1565 18.7536 37.8095 18.1758C36.7019 16.3462 36.7905 14.0276 37.2778 11.9462C37.9129 9.23505 39.3601 6.39061 42.0479 5.24987C42.6312 5.00542 43.2441 4.84246 43.8717 4.79061C44.1523 4.76098 44.4329 4.75357 44.7061 4.80542C44.8169 4.82764 45.6365 5.04246 45.6439 5.13876C45.5405 4.06468 44.9719 3.07209 44.1892 2.33135C43.5837 1.75357 42.8749 1.3832 42.1291 1.02764C36.0743 -1.86865 28.2251 1.69431 25.397 7.50172C24.2673 9.82024 24.762 11.6202 24.4814 14.0202C24.2451 16.0128 22.5099 17.4351 20.8633 18.5684C21.6164 19.7462 22.8643 20.4869 24.0901 21.161C25.685 22.0351 27.3169 22.8573 29.0743 23.3165C30.8316 23.7758 32.7219 23.8573 34.435 23.2573C33.7926 22.4943 33.5046 21.5684 33.3126 20.5832C33.2314 20.1462 32.9065 19.4499 33.2314 18.9536Z" fill="black"/>
<path d="M34.8169 19.4717C34.9129 21.3384 33.4804 22.9236 31.6196 23.0199C29.7588 23.1162 28.1787 21.6792 28.0827 19.8125C27.9867 17.9458 29.4192 16.3606 31.2799 16.2643C33.1407 16.168 34.7209 17.6051 34.8169 19.4717Z" fill="#FFB9B3"/>
<path d="M30.7895 48.6791C30.1972 55.0259 27.6502 83.5397 26.5078 94.998L54.8129 89.4009C57.58 69.1593 58.5193 56.9257 60.5078 39.998L30.7895 48.6791Z" fill="white"/>
<path d="M38.411 72.3834C38.4849 73.3538 39.1494 83.6427 39.9248 83.6279C42.1399 83.3686 44.3256 82.8131 46.4005 81.976C47.3678 82.539 48.1874 82.8057 49.3319 82.9168C52.0271 83.176 54.7665 82.8501 57.3288 81.976C58.3773 81.6131 59.4332 81.1316 60.1347 80.2723C60.8361 79.4057 61.0577 78.0723 60.3857 77.1908C61.1167 76.9316 61.641 76.2501 61.8108 75.502C62.025 74.576 61.6705 74.2501 61.161 73.5983C62.0102 72.976 62.5714 71.9908 62.3499 70.902C62.1948 70.139 61.7001 69.3316 60.9617 69.0279C62.8077 67.2946 60.083 65.3538 58.4954 65.1094C58.2444 65.0723 57.9564 65.0649 57.7644 65.2427C57.6315 65.3686 57.5798 65.5538 57.5134 65.7242C57.0556 66.776 55.8151 67.0131 54.8256 67.2649C54.4933 67.3464 54.161 67.4353 53.8288 67.5168C52.987 67.7316 52.1452 67.9464 51.2887 68.0575C52.3446 67.0946 53.6146 66.3316 54.4047 65.1094C54.8182 64.4723 55.1357 63.939 54.5893 63.2946C54.1167 62.739 53.3045 62.4575 52.5956 62.4797C51.5324 62.502 50.5503 63.0427 49.679 63.6501C47.2127 65.3686 45.3594 67.6205 44.2665 70.4057C42.4132 70.7316 40.5893 71.2057 38.8172 71.8205C38.6695 71.8723 38.5144 71.9316 38.4406 72.0723C38.3889 72.1686 38.3963 72.2871 38.4037 72.3909L38.411 72.3834Z" fill="#FFB9B3"/>
<path d="M20.4594 36.9388C18.4953 37.8795 16.6567 39.324 15.3571 40.5981C10.0702 45.7907 6.50372 52.4869 3.66089 59.3388C1.31279 65.0055 -0.614427 71.1092 0.183041 77.1907C0.781143 81.724 3.3803 85.2351 7.33811 87.5166C12.6472 90.5758 18.3919 90.8573 24.3803 90.9907C26.0122 91.0277 42.5449 88.8944 42.567 87.6055C42.6925 81.3907 42.7147 76.1981 42.8402 69.9832C36.2611 70.724 29.7115 70.8203 23.2727 71.3536C26.4773 64.3907 27.2084 56.9092 28.1092 48.998C28.6261 44.4425 31.3065 40.9981 28.1092 37.5832C25.9974 35.324 23.1103 35.6721 20.452 36.9462L20.4594 36.9388Z" fill="#A3102E"/>
</svg>
