<svg width="48" height="25" viewBox="0 0 48 25" fill="none" xmlns="http://www.w3.org/2000/svg">
<g>
<path d="M39.2799 24.1176C36.0684 23.4286 32.2579 21.6686 29.8698 19.3769C23.3343 19.3919 16.7839 18.4782 10.4655 16.6583C8.48916 16.0891 6.5128 15.4226 4.76851 14.3141C3.03171 13.2057 1.53447 11.603 0.913115 9.6633C0.0746599 7.06451 1.00295 4.07629 3.05417 2.32379C6.66252 -0.746812 10.6676 1.05062 14.568 2.51103C21.0735 4.94504 27.4442 7.72357 33.6054 10.9065C35.6117 9.73819 38.0073 8.92186 40.3055 9.49104C40.6799 9.58091 41.0617 9.71572 41.3611 9.97035C41.6606 10.225 41.8627 10.6069 41.8028 10.9889C41.7204 11.5281 41.1665 11.8502 40.6424 12.0149C40.1184 12.1797 39.542 12.2696 39.1377 12.6365C40.5601 13.8573 42.3493 15.0032 44.1011 15.6697C44.5353 15.8345 44.9919 15.9917 45.3363 16.3063C45.8154 16.7332 46.1223 17.879 45.5085 18.2984C46.0026 18.5231 46.4966 18.8002 46.8111 19.2421C47.1255 19.684 47.2003 20.328 46.856 20.725C46.579 21.0395 46.1223 21.1219 45.6956 21.1593C46.1448 21.1219 45.5384 22.3726 45.4411 22.47C45.0144 22.8819 44.4005 22.9867 43.8091 22.9418C43.4123 23.6683 42.6188 24.1251 41.7953 24.2749C40.9718 24.4247 40.1109 24.3123 39.2799 24.1326V24.1176Z" fill="#F2A39C"/>
</g>
</svg>
