<svg width="235" height="292" viewBox="0 0 235 292" fill="none" xmlns="http://www.w3.org/2000/svg">
<path d="M125.536 84.4017C117.833 85.208 110.121 86.0152 102.416 86.813C99.4112 87.1231 96.1326 87.3727 93.6146 85.7004C93.7456 81.8759 94.5162 78.2329 94.8895 74.4113C95.2034 71.1486 95.3101 67.7067 96.0175 64.4933C97.1084 59.5752 98.8811 55.1027 99.7742 50.0131C100.758 44.4222 101.476 43.6832 101.501 38.0016C101.504 37.3011 110.698 37.8029 112 38.501C123 41.501 129.772 46.9131 134.001 51.501C137.699 55.5079 139.51 58.9196 141.191 64.172C142.663 68.7613 142.859 73.7651 141.694 78.4396C141.098 80.8213 140.201 81.3988 137.935 82.296C135.56 83.2381 133.974 83.4999 131.458 83.7638C129.48 83.9681 127.504 84.181 125.535 84.3845L125.536 84.4017Z" fill="#6B240F"/>
<path d="M74.4233 102.678C74.4749 101.031 74.5266 99.3836 74.5791 97.7449C74.7047 94.1369 74.8123 90.522 74.9901 86.9178C75.3457 79.7094 75.9856 72.4913 77.5572 65.4358C78.1108 62.9717 78.7799 60.5398 79.5814 58.1387C81.4961 52.4252 84.3473 46.9257 88.2188 41.9781C89.5605 40.2606 91.0458 38.5987 92.7246 37.247C98.683 47.6014 103.806 58.4496 108.002 69.6362C110.479 59.4437 111.947 49.0959 112.134 38.6444C112.293 38.7763 112.461 38.9074 112.621 39.0478C120.365 45.6113 124.601 54.659 127.821 63.6645C129.585 68.6064 131.039 73.4654 131.923 78.6116C132.864 84.081 133.805 89.5503 134.754 95.0189C129.78 95.8091 125.256 98.2424 120.606 100.169C116.996 101.66 113.31 103.089 109.621 104.389C104.074 106.34 98.307 107.698 92.4609 108.311C89.4646 108.621 86.4419 108.742 83.4316 108.629C80.37 108.521 77.4313 108.618 74.5351 107.517C74.4633 107.489 74.3916 107.462 74.343 107.406C74.2843 107.333 74.2832 107.23 74.2914 107.134C74.3242 105.653 74.3656 104.171 74.4147 102.679L74.4233 102.678Z" fill="#6B240F"/>
<path d="M92.728 37.2535C93.6362 36.528 94.5867 35.8848 95.6118 35.3902C98.6281 33.9207 102.328 33.8301 105.484 34.8456C107.998 35.6538 110.189 37.0631 112.137 38.6509C111.95 49.1024 110.483 59.4588 108.006 69.6427C103.801 58.4569 98.6872 47.6164 92.728 37.2535Z" fill="#FFDDEC"/>
<path d="M99.1449 33.559C98.6648 32.8696 98.2336 32.1497 97.8437 31.4086C97.1305 33.2827 96.4346 35.1552 95.7573 37.0432C95.6817 37.2492 95.6077 37.4723 95.6108 37.6881C95.6148 37.9125 95.6966 38.1381 95.7854 38.3458C96.7032 40.4634 98.3481 42.2268 100.298 43.4687C102.248 44.7106 104.487 45.4411 106.769 45.8045C106.918 45.825 107.057 45.8377 107.187 45.8341C108.393 45.7978 108.605 44.559 109.013 43.483C109.282 42.766 109.553 42.0576 109.822 41.3405C105.639 39.6097 101.721 37.214 99.1449 33.559Z" fill="#FFB9B3"/>
<path d="M114.005 30.1904C113.916 30.4322 110.604 30.2354 110.223 30.2283C108.933 30.2119 107.641 30.1698 106.348 30.1192C103.736 30.0118 101.234 29.6953 98.6812 29.2105C98.3956 29.9378 98.1193 30.6727 97.8431 31.4077C98.233 32.1488 98.6641 32.8687 99.1443 33.5581C101.721 37.2217 105.629 39.6096 109.821 41.3397C110.111 40.5602 110.409 39.7886 110.699 39.0091C111.804 36.0693 112.909 33.1294 114.014 30.1895L114.005 30.1904Z" fill="#FFB9B3"/>
<path d="M113.511 32.502C113.425 32.7497 109.961 31.165 109.579 31.1617C108.284 31.1586 106.987 31.1294 105.689 31.0914C103.066 31.0094 100.55 30.7129 97.9811 30.2454C97.7045 30.9903 97.7779 31.7496 97.5108 32.5023C97.9125 33.2543 98.0149 33.9777 98.5064 34.6759C101.144 38.3863 105.099 40.7812 109.331 42.5019C109.61 41.7037 110.23 40.3002 110.51 39.502C111.569 36.4919 112.443 35.513 113.511 32.502Z" fill="#E98F88"/>
<path d="M93.2861 11.3915C93.7708 10.1181 94.4794 8.92733 95.3686 7.90964C97.8803 5.03557 101.261 3.94649 104.924 3.47036C108.588 2.99423 111.775 4.24877 114.953 6.13524C116.63 7.13503 118.734 7.9042 120.487 7.06413C122.195 9.67744 122.806 12.9391 122.31 16.0115C122.065 17.5388 121.561 19.0561 120.761 20.3851C120.149 21.4026 119.992 20.8468 119.409 20.0721C118.945 19.459 118.448 18.8664 117.787 18.462C116.117 17.4357 114.135 16.7674 112.267 16.2179C110.328 15.6406 108.321 15.2598 106.345 14.833C104.872 14.5228 103.628 14.9948 102.381 15.7006C102.118 15.8465 101.857 16.0095 101.587 16.1733C99.9549 17.1922 98.5132 18.4004 97.1131 19.6825C95.9709 20.7674 95.3853 22.1626 94.2579 23.2201C93.4637 20.5809 92.4156 17.5421 92.5675 14.7616C92.6319 13.6144 92.8787 12.476 93.2869 11.4L93.2861 11.3915Z" fill="black"/>
<path d="M109.448 37.9915C116.782 37.2979 122.166 30.7899 121.472 23.4556C120.779 16.1213 114.271 10.7379 106.936 11.4315C99.6019 12.1252 94.2186 18.6332 94.9122 25.9675C95.6058 33.3018 102.114 38.6852 109.448 37.9915Z" fill="#FFB9B3"/>
<path d="M101.258 10.9825C101.464 10.8766 101.662 10.78 101.869 10.6827C103.228 10.0614 104.705 9.68827 106.191 9.58236C106.938 9.529 107.683 9.545 108.425 9.62177C109.037 9.69357 109.75 10.0151 110.345 10.002C107.937 10.0396 105.477 10.3587 103.324 11.4441C98.9336 13.6486 97.975 18.5024 97.9002 23.0131C97.6634 22.7935 94.9732 20.3077 94.9299 20.3982C95.297 19.3434 95.6016 18.2687 95.8361 17.1832C96.447 14.4111 98.7673 12.2553 101.24 10.9756L101.258 10.9825Z" fill="black"/>
<path d="M96.3779 28.0063C95.459 28.802 94.2068 29.1798 92.9218 28.9382C90.6865 28.5186 89.2209 26.3664 89.6405 24.1311C90.0601 21.8957 92.2123 20.4301 94.4476 20.8497C95.5657 21.0638 96.4905 21.7025 97.0827 22.5714" fill="#FFB9B3"/>
<path d="M116.171 10.6959C115.603 9.44433 114.297 8.71199 113.049 8.12126C112.008 7.63184 110.782 7.18594 109.76 7.71481C108.96 8.12755 108.545 9.03988 108.378 9.92016C107.908 12.4455 109.06 15.025 110.667 17.0341C109.81 17.02 108.945 17.1019 108.105 17.2764C107.953 17.3081 107.792 17.3406 107.648 17.285C107.523 17.2364 107.426 17.1331 107.339 17.0376C106.025 15.5713 104.65 14.0071 104.286 12.0793C103.937 13.141 104.127 14.3246 103.787 15.394C103.533 16.1788 103.008 16.8508 102.422 17.4162C101.012 18.7771 99.1422 19.6627 97.1928 19.8903C97.1049 17.7721 96.7465 15.6277 97.1285 13.5428C97.6808 10.5169 99.8615 7.89025 102.653 6.60619C105.445 5.32213 108.777 5.36144 111.612 6.54558C113.042 7.13643 114.419 8.0781 115.104 9.46562" fill="black"/>
<rect x="11.7734" y="92.3008" width="190" height="190" rx="32" transform="rotate(-6.83657 11.7734 92.3008)" fill="#FFDAE0"/>
<mask id="mask0_303_2668" style="mask-type:alpha" maskUnits="userSpaceOnUse" x="15" y="73" width="205" height="205">
<rect x="11.7695" y="92.3027" width="190" height="190" rx="32" transform="rotate(-6.83657 11.7695 92.3027)" fill="#7777F2"/>
</mask>
<g mask="url(#mask0_303_2668)">
<path d="M384.618 135.563L365.057 266.34C363.594 276.122 354.395 282.928 344.616 281.465L170.727 255.445C160.947 253.981 154.143 244.78 155.606 234.998L178.766 80.1587C180.229 70.3766 189.428 63.5704 199.207 65.0338L261.441 74.3463C263.889 74.7125 266.002 76.3123 266.933 78.6658L282.547 102.106L369.486 115.115C379.266 116.579 386.07 125.78 384.607 135.562L384.618 135.563Z" fill="#FDCCD4"/>
</g>
<path d="M101.154 170.013C102.1 168.018 104.805 167.694 106.195 169.41L139.421 210.429C140.907 212.263 139.79 215.016 137.446 215.296L81.5971 221.965C79.2532 222.244 77.5192 219.833 78.531 217.7L101.154 170.013Z" fill="#FFB9C5" fill-opacity="0.72"/>
<path d="M131.429 150.838C132.375 148.843 135.08 148.52 136.47 150.236L181.231 205.486C182.717 207.32 181.6 210.073 179.255 210.353L104.014 219.338C101.669 219.618 99.9354 217.205 100.947 215.073L131.429 150.838Z" fill="#FFB9C5"/>
<path opacity="0.72" d="M81.0039 166C87.6313 166 93.0039 160.627 93.0039 154C93.0039 147.373 87.6313 142 81.0039 142C74.3765 142 69.0039 147.373 69.0039 154C69.0039 160.627 74.3765 166 81.0039 166Z" fill="#FFB9C5"/>
<path d="M128.022 106.266L91.7701 108.897L98.1745 57.8613L134.427 55.2301L128.022 106.266Z" fill="#E5294A"/>
<path d="M108.932 56.7458C108.568 55.6052 107.686 54.1969 106.939 53.2765C106.192 52.3561 104.665 51.9385 103.514 51.8634C102.156 51.7671 100.762 52.4507 99.8558 53.4968C98.9498 54.5429 98.622 56.0775 98.2007 57.8747C101.319 57.6104 105.588 57.4349 108.973 57.0739L108.932 56.7458Z" fill="#9F152E"/>
<path d="M138 75.4961C138.379 71.2001 138.503 71.1356 138.183 66.8352C137.864 62.5348 136.802 58.2167 134.487 54.5803C133.299 52.721 131.244 49.8875 129.059 50.0237C119.488 50.6208 111.638 51.1608 103 51.8457C105.884 52.101 106.947 53.9282 107.774 55.5752C109.183 58.3993 110.083 63.8507 110.442 67.4608C110.882 71.8378 108.5 79.4961 108.5 79.4961L138 76.9961L138 75.4961Z" fill="white"/>
<path d="M133.362 82.7096C134.903 83.0839 136.992 83.6059 138.459 82.8343C140.124 81.9661 141.448 80.4107 142.108 78.658C142.955 76.4196 142.78 73.2116 141.428 71.1899C140.576 69.9183 139.854 69.5618 138.323 69.3859C138.254 70.6579 138.128 71.2333 138.046 72.5499C136.275 72.9341 134.399 73.5708 132.588 73.4301C132.154 73.3931 131.711 73.3484 131.301 73.4738C130.733 73.6489 130.032 74.5127 130.382 75.1296C129.883 75.1248 129.361 75.1568 128.92 75.4066C128.479 75.6563 128.167 76.1799 128.308 76.6693C128.422 77.0572 128.773 77.3101 129.111 77.5208C128.747 77.3039 128.77 78.6366 128.816 78.7623C129.012 79.2898 129.492 79.6345 130.002 79.8376C130.051 80.6304 130.54 81.3469 131.178 81.8153C131.816 82.2837 132.58 82.5408 133.346 82.7198L133.362 82.7096Z" fill="#FFB9B3"/>
<path d="M73.9968 88.7052C71.877 88.7761 69.751 88.8734 67.6157 88.963C64.999 89.0808 60.8319 89.2587 58.5921 87.6034C56.6311 86.1551 57.7477 80.5949 58.1057 78.348C59.34 70.6502 62.2716 63.2586 66.2927 56.6025C70.2915 49.9831 75.0329 43.6306 82.3615 40.5949C85.6889 39.2169 89.1968 38.1936 92.6843 37.3192C91.6331 39.0005 90.2075 41.0198 89.193 42.7236C86.8667 46.6434 86.0105 52.032 84.7393 56.4139C83.3503 61.196 82.0502 66.0042 80.91 70.8578C79.5358 76.7103 78.3615 82.665 77.6889 88.624C76.454 88.6371 75.2293 88.6665 73.9968 88.7052Z" fill="#6B240F"/>
<path d="M100.229 90.7335C96.9545 91.3025 92.716 91.0896 89.6289 89.7996C83.4805 92.3347 76.9712 93.979 70.3634 94.6731C68.2916 94.8863 66.1852 95.0077 64.1424 94.6131C62.0996 94.2185 60.1069 93.2573 58.8037 91.6343C57.0677 89.4559 56.8401 86.2271 58.1362 83.7533C60.4057 79.4153 64.8397 79.5924 69.0483 79.4883C76.1551 79.3175 83.2719 79.5262 90.3651 80.1261C91.5537 78.7084 93.9003 76.7403 95.9301 77.1794C96.0182 77.197 95.7 79.0424 95.7018 79.3361C97.6026 79.8738 99.7111 80.7809 101.687 80.741C102.161 80.7307 102.644 80.711 103.083 80.8769C103.692 81.1046 104.399 82.0923 103.976 82.7289C104.523 82.7549 105.092 82.8308 105.552 83.133C106.013 83.4352 106.32 84.0285 106.135 84.5388C105.992 84.9499 105.584 85.2046 105.205 85.4047C105.618 85.1928 105.503 86.63 105.446 86.765C105.197 87.3245 104.649 87.6616 104.079 87.8452C103.979 88.7018 103.391 89.4403 102.666 89.9065C101.941 90.3727 101.088 90.5917 100.247 90.7404L100.229 90.7335Z" fill="#FFB9B3"/>
<path d="M58.9754 74.4458C56.9401 78.243 55.8832 85.4399 56.5291 89.7097C56.6928 90.8007 57.0457 91.8824 57.7089 92.7706C59.5725 95.2914 63.1787 95.5814 66.3151 95.4749C73.8198 95.2147 81.2965 93.9284 88.4667 91.6856C88.1535 87.1856 87.9945 82.671 87.9742 78.1606C78.7043 77.853 68.2539 74.7525 58.984 74.4449L58.9754 74.4458Z" fill="#6B240F"/>
</svg>
