<svg width="236" height="218" viewBox="0 0 236 218" fill="none" xmlns="http://www.w3.org/2000/svg">
<path d="M229.865 68.9161L213.049 200.074C211.791 209.884 202.737 216.882 192.929 215.624L18.5329 193.253C8.72478 191.995 1.72907 182.939 2.98688 173.128L22.8969 17.8375C24.1547 8.02689 33.2087 1.02941 43.0168 2.28754L105.432 10.2938C107.887 10.6087 110.033 12.1638 111.014 14.4973L127.115 37.6052L214.308 48.7897C224.116 50.0479 231.112 59.1041 229.854 68.9147L229.865 68.9161Z" fill="#FFD737"/>
<mask id="mask0_303_2670" style="mask-type:alpha" maskUnits="userSpaceOnUse" x="2" y="2" width="229" height="214">
<path d="M229.865 68.9161L213.049 200.074C211.791 209.884 202.737 216.882 192.929 215.624L18.5329 193.253C8.72478 191.995 1.72907 182.939 2.98688 173.128L22.8969 17.8375C24.1547 8.02689 33.2087 1.02941 43.0168 2.28754L105.432 10.2938C107.887 10.6087 110.033 12.1638 111.014 14.4973L127.115 37.6052L214.308 48.7897C224.116 50.0479 231.112 59.1041 229.854 68.9147L229.865 68.9161Z" fill="#F9D43F"/>
</mask>
<g mask="url(#mask0_303_2670)">
<rect width="169.96" height="219.996" rx="20" transform="matrix(0.965909 0.25888 -0.258758 0.965942 196.832 -5)" fill="#F6CE2D"/>
</g>
</svg>
