<svg width="246" height="299" viewBox="0 0 246 299" fill="none" xmlns="http://www.w3.org/2000/svg">
<path d="M188.852 21.7481C190.657 23.7702 191.39 26.4963 192.371 29.0202C193.352 31.5441 194.834 34.1504 197.364 35.124C198.188 35.4385 199.251 35.7381 199.393 36.6143C199.475 37.1236 199.176 37.6029 198.854 38.0073C196.511 40.9207 192.476 41.8793 188.74 41.9617C186.008 42.0216 183.268 41.6996 180.633 41.0106C178.566 40.4713 176.538 39.6849 174.853 38.3743C171.904 36.0751 170.302 32.1582 170.796 28.451C171.866 20.3476 182.826 15.0003 188.86 21.7481H188.852Z" fill="#E05B23"/>
<path d="M194.138 59.9273C189.729 57.9202 185.424 55.6659 181.134 53.4191C175.647 50.5507 170.167 47.6824 164.68 44.814C164.545 44.7466 164.403 44.6642 164.335 44.5294C164.268 44.3946 164.283 44.2373 164.298 44.095C165.039 37.9238 166.08 31.8126 165.84 25.574C165.818 24.9374 179.914 29.3785 181.119 29.9627C190.582 34.5012 198.472 42.4623 205.891 49.7419C207.957 51.7715 210.256 53.4491 211.109 56.3849C211.686 58.3546 211.753 61.2305 210.6 63.0429C209.672 64.4958 207.471 64.3235 205.861 64.1738C201.684 63.7918 197.881 61.6424 194.13 59.9273H194.138Z" fill="#5C0922"/>
<path d="M220.496 58.7676C219.784 59.202 219.066 59.6214 218.34 60.0183C214.911 61.8981 209.626 65.2683 205.733 63.4559C203.509 62.4224 201.735 60.4527 200.942 58.131C200.38 56.4834 200.724 52.9859 202.079 51.7726C203.756 50.2672 207.507 50.1025 209.626 49.8254C214.155 49.2337 218.706 48.8518 223.265 48.687C225.354 48.6121 227.682 48.6645 229.187 50.11C229.524 50.432 229.823 50.8889 229.719 51.3532C229.644 51.6528 229.419 51.8774 229.195 52.0946C226.544 54.6185 223.617 56.8653 220.496 58.7751V58.7676Z" fill="#FFC9C4"/>
<path d="M171.649 81.9082C161.168 81.8783 150.68 81.751 140.199 81.5188C141.412 70.1201 142.932 57.2985 147.805 46.117C150.006 41.0692 153.038 36.2985 156.938 32.112C159.02 29.8727 161.385 27.7757 164.14 26.7272C166.977 25.6412 170.309 25.8734 173.064 27.0717C175.444 28.1052 177.413 29.7379 179.128 31.5203C185.536 38.1633 188.575 46.776 190.716 55.2689C191.817 59.6501 192.722 64.0688 193.434 68.5099C194.1 72.6889 195.215 77.3548 194.721 81.5712C190.372 82.4774 185.124 81.9307 180.662 81.9382C177.66 81.9382 174.658 81.9232 171.656 81.9157L171.649 81.9082Z" fill="#5C0922"/>
<path d="M187.585 50.498L203.904 57.1784C204.481 57.4106 205.117 57.4481 205.716 57.2683L225.906 51.232C226.648 51.0073 226.663 49.9663 225.929 49.7191L210.388 44.5365C210.26 44.4916 210.118 44.4841 209.983 44.5141L187.382 47.8243C187.001 47.8992 186.656 48.5133 186.656 49.12C186.656 49.824 187.225 50.3482 187.592 50.498H187.585Z" fill="#313131"/>
<path d="M187.584 49.1269L204.533 56.0695C204.697 56.1369 204.884 56.1444 205.057 56.0919L225.898 49.8609C226.639 49.6362 226.654 48.5952 225.921 48.348L210.379 43.1654C210.252 43.1205 210.11 43.113 209.975 43.143L187.726 47.6216C186.955 47.7788 186.858 48.8348 187.584 49.1344V49.1269Z" fill="#4D4D4D"/>
<path d="M243.821 47.7873L205.619 56.9841C204.841 57.1713 204.129 56.707 204.025 55.9506L200.476 29.0865C200.379 28.3301 200.925 27.5662 201.704 27.379L239.906 18.1821C240.684 17.9949 241.396 18.4592 241.5 19.2156L245.049 46.0797C245.146 46.8361 244.6 47.6 243.821 47.7873Z" fill="#D4D4D4"/>
<path d="M244.757 47.7873L206.84 56.9168C206.069 57.104 205.358 56.6471 205.26 55.8907L201.742 29.2289C201.644 28.4799 202.191 27.716 202.962 27.5288L240.88 18.3994C241.651 18.2121 242.362 18.669 242.459 19.4254L245.978 46.0873C246.075 46.8362 245.529 47.6001 244.757 47.7873Z" fill="#F2F2F2"/>
<path d="M224.74 46.875C224.814 46.6578 224.912 46.4406 225.017 46.2384C225.511 45.2948 226.454 44.763 227.442 45.4446C227.569 44.4859 228.34 43.6397 229.291 43.43C229.718 43.3401 230.219 43.3925 230.481 43.737C230.863 42.8083 231.702 41.992 232.705 41.9396C233.708 41.8872 234.734 42.8308 234.517 43.8119C234.711 42.9282 236.193 42.9581 236.568 43.6397C236.965 44.3511 237.204 45.1525 237.271 45.9613C237.331 46.7327 237.242 47.5041 237.092 48.2605C236.912 49.1518 236.62 49.9981 236.014 50.6946C235.55 51.2263 234.928 51.5409 234.517 52.1325C233.85 53.0911 232.832 53.9749 231.664 53.8925C231.32 53.87 230.968 53.7652 230.631 53.8251C230.294 53.885 230.01 54.1097 229.718 54.2894C228.617 54.9784 227.218 55.1582 225.982 54.7762C225.728 54.6938 225.481 54.5965 225.211 54.5515C224.68 54.4692 224.141 54.6264 223.602 54.6264C223.444 54.6264 221.086 53.8476 221.543 53.4207C222.756 52.2748 223.654 50.7994 224.118 49.1967C224.343 48.4253 224.47 47.6165 224.74 46.86V46.875Z" fill="#FFC9C4"/>
<path d="M163.566 25.7115C163.102 25.1124 162.69 24.4758 162.308 23.8242C161.74 25.5393 161.186 27.2618 160.654 28.9918C160.594 29.1865 160.534 29.3813 160.549 29.5835C160.564 29.7857 160.647 29.9804 160.736 30.1676C161.65 32.0475 163.199 33.5678 165.011 34.6088C166.815 35.6498 168.866 36.2265 170.94 36.4586C171.075 36.4736 171.202 36.4736 171.314 36.4661C172.4 36.3837 172.542 35.2604 172.864 34.2718C173.081 33.6127 173.291 32.9611 173.508 32.3021C169.66 30.9091 166.037 28.902 163.566 25.704V25.7115Z" fill="#FFC9C4"/>
<path d="M176.839 22.086C176.764 22.3107 173.777 22.2583 173.426 22.2733C172.258 22.3107 171.09 22.3257 169.922 22.3332C167.564 22.3407 165.288 22.1534 162.967 21.8164C162.743 22.483 162.526 23.157 162.301 23.831C162.683 24.4826 163.095 25.1192 163.559 25.7183C166.029 28.9237 169.652 30.9234 173.5 32.3164C173.732 31.6049 173.965 30.8934 174.197 30.1819C175.08 27.4858 175.956 24.7897 176.839 22.0935V22.086Z" fill="#E98F87"/>
<path d="M156.513 17.6959C157.089 20.437 158.729 23.3578 161.296 24.6759C162.816 25.4548 164.179 25.1927 165.796 25.3275C167.211 25.4398 168.184 25.9266 169.636 25.5596C176.471 23.8296 183.104 15.876 181.083 8.61887C180.042 4.8892 177.003 1.82609 173.334 0.582864C163.557 -2.71991 154.604 8.69376 156.513 17.6959Z" fill="#E05B23"/>
<path d="M166.747 29.2594C172.821 29.2594 177.744 24.3337 177.744 18.2576C177.744 12.1815 172.821 7.25586 166.747 7.25586C160.674 7.25586 155.75 12.1815 155.75 18.2576C155.75 24.3337 160.674 29.2594 166.747 29.2594Z" fill="#FFC9C4"/>
<path d="M178.704 21.5451C180.577 21.5451 182.095 20.0261 182.095 18.1524C182.095 16.2787 180.577 14.7598 178.704 14.7598C176.831 14.7598 175.312 16.2787 175.312 18.1524C175.312 20.0261 176.831 21.5451 178.704 21.5451Z" fill="#FFC9C4"/>
<path d="M162.518 8.49065C164.456 8.30342 165.924 10.2431 167.084 11.5762C168.364 13.0516 169.6 14.6843 171.396 15.553C172.684 16.1747 174.174 16.3469 175.573 16.0923C176.045 16.0099 176.532 15.8601 176.891 15.5381C177.408 15.0662 177.557 14.3173 177.595 13.6133C177.73 11.2242 176.861 7.24743 174.428 6.154C172.863 5.45 170.91 4.95571 169.188 4.98567C167.219 5.02311 165.078 5.11298 163.281 5.98923C161.949 6.6408 160.796 7.73423 160.234 9.10477C160.975 8.83516 161.746 8.55806 162.525 8.48316L162.518 8.49065Z" fill="#E05B23"/>
<rect width="169.96" height="219.996" rx="20" transform="matrix(0.965909 0.25888 -0.258758 0.965942 57.832 42)" fill="#D11535"/>
<rect width="99.9765" height="9.99983" transform="matrix(0.965909 0.25888 -0.258758 0.965942 68.8594 136.061)" fill="white"/>
<rect width="99.9765" height="9.99983" transform="matrix(0.965909 0.25888 -0.258758 0.965942 62.6523 159.242)" fill="white"/>
<rect width="99.9765" height="9.99983" transform="matrix(0.965909 0.25888 -0.258758 0.965942 56.4414 182.426)" fill="white"/>
<rect width="59.9859" height="9.99983" transform="matrix(0.965909 0.25888 -0.258758 0.965942 50.2305 205.605)" fill="white"/>
<path d="M149.722 75.4383C149.655 75.4832 149.58 75.5207 149.513 75.5656C147.117 76.9137 144.325 77.5652 141.577 77.408C140.537 77.3481 139.496 77.1758 138.508 76.8313C135.274 75.7079 132.826 72.7047 132.182 69.342C131.778 67.2375 132.062 65.0357 132.878 63.066C133.29 62.0774 133.941 61.2985 134.45 60.3773C134.855 59.6359 134.907 58.7522 135.124 57.9208C136.307 53.3748 138.096 48.9861 140.35 44.867C143.696 38.7408 147.417 33.019 153.9 29.9858C156.842 28.6078 157.886 28.9287 161 28C160.124 29.5578 161.304 29.851 160.458 31.4312C158.511 35.0636 157.957 39.9615 156.984 43.9608C155.921 48.3346 154.94 52.7233 154.102 57.1495C153.45 60.5945 152.882 64.0546 152.455 67.5371C152.245 69.2372 152.29 71.087 151.938 72.7646C151.676 73.9929 150.785 74.8242 149.722 75.4608V75.4383Z" fill="#5C0922"/>
<path d="M172.674 85.475C169.463 84.786 165.652 83.026 163.264 80.7343C156.729 80.7493 150.178 79.8356 143.86 78.0157C141.884 77.4465 139.907 76.78 138.163 75.6716C136.426 74.5631 134.929 72.9604 134.308 71.0207C133.469 68.4219 134.397 65.4337 136.449 63.6812C140.057 60.6106 144.062 62.408 147.962 63.8684C154.468 66.3025 160.839 69.081 167 72.2639C169.006 71.0956 171.402 70.2793 173.7 70.8485C174.074 70.9383 174.456 71.0731 174.756 71.3278C175.055 71.5824 175.257 71.9644 175.197 72.3463C175.115 72.8855 174.561 73.2076 174.037 73.3724C173.513 73.5371 172.936 73.627 172.532 73.994C173.955 75.2147 175.744 76.3606 177.496 77.0271C177.93 77.1919 178.386 77.3492 178.731 77.6637C179.21 78.0906 179.517 79.2365 178.903 79.6559C179.397 79.8805 179.891 80.1576 180.206 80.5995C180.52 81.0414 180.595 81.6855 180.251 82.0824C179.974 82.3969 179.517 82.4793 179.09 82.5168C179.539 82.4793 178.933 83.73 178.836 83.8274C178.409 84.2393 177.795 84.3442 177.204 84.2992C176.807 85.0257 176.013 85.4825 175.19 85.6323C174.366 85.7821 173.505 85.6698 172.674 85.49V85.475Z" fill="#F2A39C"/>
</svg>
