<svg width="28" height="50" viewBox="0 0 28 50" fill="none" xmlns="http://www.w3.org/2000/svg">
<path d="M6.508 49.061C7.49617 49.4055 8.53676 49.5778 9.57734 49.6377L13 49.1156C14.5 48.6156 16 47.6156 17 46.6156C18 45.1156 18.7904 42.8157 19 41.1156C19.4267 37.6331 21.4505 32.8243 22.1018 29.3792C22.9402 24.953 23.9209 20.5643 24.984 16.1906C25.9572 12.1913 25.5536 10.748 27.5 7.11574C27.8475 6.47198 28.4102 2.70985 26 1.22971C25.5255 0.938297 25.2799 0.233608 24 0.5C22.5827 0.794992 20.0764 2.12468 18.5 3.11553C15.5 5.00115 11.6959 10.9705 8.3496 17.0968C6.09625 21.2159 4.30705 25.6046 3.12423 30.1506C2.90713 30.9819 2.85472 31.8656 2.45047 32.6071C1.94141 33.5282 1.29011 34.3071 0.878366 35.2957C0.0623689 37.2654 -0.222107 39.4673 0.182148 41.5717C0.825962 44.9344 3.27395 47.9376 6.508 49.061Z" fill="#5C0922"/>
</svg>
