<svg width="61" height="64" viewBox="0 0 61 64" fill="none" xmlns="http://www.w3.org/2000/svg">
<path d="M30.2096 16.8119C29.6173 23.1587 27.0702 51.6725 25.9279 63.1309L54.233 57.5337C57 37.2921 57.9393 25.0585 59.9279 8.13086L30.2096 16.8119Z" fill="white"/>
<path d="M36.7238 41.6588C36.7976 42.6292 37.4622 52.9181 38.2375 52.9033C40.4527 52.644 42.6383 52.0885 44.7132 51.2514C45.6805 51.8144 46.5002 52.0811 47.6447 52.1922C50.3398 52.4514 53.0793 52.1255 55.6415 51.2514C56.69 50.8885 57.7459 50.407 58.4474 49.5477C59.1489 48.6811 59.3704 47.3477 58.6985 46.4662C59.4295 46.207 59.9537 45.5255 60.1236 44.7774C60.3377 43.8514 59.9833 43.5255 59.4738 42.8736C60.3229 42.2514 60.8841 41.2662 60.6626 40.1774C60.5075 39.4144 60.0128 38.607 59.2744 38.3033C61.1204 36.5699 58.3957 34.6292 56.8082 34.3848C56.5571 34.3477 56.2691 34.3403 56.0772 34.5181C55.9443 34.644 55.8926 34.8292 55.8261 34.9996C55.3683 36.0514 54.1278 36.2885 53.1383 36.5403C52.8061 36.6218 52.4738 36.7107 52.1415 36.7922C51.2997 37.007 50.458 37.2218 49.6014 37.3329C50.6573 36.3699 51.9274 35.607 52.7175 34.3848C53.131 33.7477 53.4485 33.2144 52.9021 32.5699C52.4295 32.0144 51.6172 31.7329 50.9084 31.7551C49.8451 31.7773 48.863 32.3181 47.9917 32.9255C45.5255 34.644 43.6721 36.8959 42.5793 39.6811C40.7259 40.007 38.9021 40.4811 37.1299 41.0959C36.9822 41.1477 36.8272 41.207 36.7533 41.3477C36.7016 41.444 36.709 41.5625 36.7164 41.6662L36.7238 41.6588Z" fill="#FFB9B3"/>
<path d="M20.9599 1.17904C18.9958 2.11978 17.1572 3.56422 15.8576 4.8383C10.5707 10.0309 7.0042 16.7272 4.16138 23.579C1.81328 29.2457 -0.113939 35.3494 0.68353 41.4309C1.28163 45.9642 3.88079 49.4753 7.83859 51.7568C13.1477 54.8161 18.8924 55.0976 24.8808 55.2309C26.5126 55.2679 43.0453 53.1346 43.0675 51.8457C43.193 45.6309 43.2152 40.4383 43.3407 34.2235C36.7616 34.9642 30.212 35.0605 23.7732 35.5938C26.9778 28.6309 27.7088 21.1494 28.6097 13.2383C29.1266 8.68273 31.8069 5.2383 28.6097 1.82348C26.4979 -0.435777 23.6107 -0.0876295 20.9525 1.18644L20.9599 1.17904Z" fill="#A3102E"/>
</svg>
