<svg width="98" height="219" viewBox="0 0 98 219" fill="none" xmlns="http://www.w3.org/2000/svg">
<path d="M41.3071 198.529C42.2656 199.049 43.1423 199.818 43.8704 200.638C45.126 202.044 46.1216 203.662 47.4739 204.98C48.2094 205.69 49.0341 206.305 49.8589 206.92C51.642 208.245 53.4103 209.38 55.4981 210.076C56.2857 209.102 57.4224 208.443 58.6409 208.04C59.2799 207.828 59.9486 207.689 60.6321 207.586C60.8773 207.777 61.1299 207.96 61.3899 208.143C63.1211 209.336 65.0306 210.266 66.7394 211.46C66.8583 211.54 66.9846 211.65 66.9995 211.782C67.0069 211.884 66.9549 211.972 66.8954 212.045C66.0336 213.173 64.4733 213.576 62.9799 213.664C61.806 213.737 60.5875 213.678 59.4062 213.73C57.8088 213.795 56.1222 213.759 54.5322 213.341C50.3789 212.251 48.9598 207.44 45.3044 205.536C45.0369 205.397 44.3905 208.875 44.3533 209.183C44.1676 210.757 44.227 212.382 44.5242 213.986C44.0859 214 43.7367 214.008 43.0606 214.022C42.9565 212.375 42.9417 210.815 42.2284 209.263C41.8198 208.37 41.2402 207.55 40.7647 206.686C39.2119 203.83 40.3561 201.253 41.2774 198.624C41.2848 198.603 41.2923 198.573 41.2997 198.551L41.3071 198.529Z" fill="black"/>
<path d="M42.1106 192.518C42.0289 191.009 41.8877 189.501 41.7243 188C45.0826 188.242 48.4334 188.447 51.7768 188.615C51.7546 189.391 51.7397 190.167 51.7174 190.943C51.6654 192.825 51.6134 194.743 52.0889 196.537C52.6536 198.646 54.6373 200.96 55.9821 202.746C57.3269 204.525 58.8426 206.21 60.6258 207.579C59.9422 207.681 59.281 207.82 58.6346 208.033C57.4087 208.435 56.2793 209.102 55.4918 210.068C53.4114 209.373 51.6431 208.238 49.8525 206.912C49.0278 206.305 48.2031 205.69 47.4675 204.972C46.1153 203.654 45.1123 202.043 43.8641 200.63C43.1285 199.81 42.2592 199.041 41.3008 198.522C41.6648 197.489 42.0215 196.442 42.1775 195.337C42.3038 194.429 42.1626 193.44 42.1106 192.51V192.518Z" fill="#FFB9B3"/>
<path d="M5.30712 202.529C6.26557 203.049 7.14228 203.818 7.87041 204.638C9.12605 206.044 10.1216 207.662 11.4739 208.98C12.2094 209.69 13.0341 210.305 13.8589 210.92C15.642 212.245 17.4103 213.38 19.4981 214.076C20.2857 213.102 21.4224 212.443 22.6409 212.04C23.2799 211.828 23.9486 211.689 24.6321 211.586C24.8773 211.777 25.1299 211.96 25.3899 212.143C27.1211 213.336 29.0306 214.266 30.7394 215.46C30.8583 215.54 30.9846 215.65 30.9995 215.782C31.0069 215.884 30.9549 215.972 30.8954 216.045C30.0336 217.173 28.4733 217.576 26.9799 217.664C25.806 217.737 24.5875 217.678 23.4062 217.73C21.8088 217.795 20.1222 217.759 18.5322 217.341C14.3789 216.251 12.9598 211.44 9.30437 209.536C9.03689 209.397 8.3905 212.875 8.35335 213.183C8.1676 214.757 8.22704 216.382 8.52423 217.986C8.08587 218 7.73667 218.008 7.06056 218.022C6.95654 216.375 6.94168 214.815 6.22842 213.263C5.81978 212.37 5.24025 211.55 4.76474 210.686C3.21191 207.83 4.3561 205.253 5.2774 202.624C5.28483 202.603 5.29226 202.573 5.29969 202.551L5.30712 202.529Z" fill="black"/>
<path d="M6.11063 196.518C6.0289 195.009 5.88774 193.501 5.72428 192C9.08256 192.242 12.4334 192.447 15.7768 192.615C15.7546 193.391 15.7397 194.167 15.7174 194.943C15.6654 196.825 15.6134 198.743 16.0889 200.537C16.6536 202.646 18.6373 204.96 19.9821 206.746C21.3269 208.525 22.8426 210.21 24.6258 211.579C23.9422 211.681 23.281 211.82 22.6346 212.033C21.4087 212.435 20.2793 213.102 19.4918 214.068C17.4114 213.373 15.6431 212.238 13.8525 210.912C13.0278 210.305 12.2031 209.69 11.4675 208.972C10.1153 207.654 9.11228 206.043 7.86407 204.63C7.12852 203.81 6.25923 203.041 5.30078 202.522C5.66484 201.489 6.02147 200.442 6.1775 199.337C6.30381 198.429 6.16264 197.44 6.11063 196.51V196.518Z" fill="#FFB9B3"/>
<path d="M43.4453 20.0656C46.3915 19.8286 49.2048 18.2434 50.9548 15.8508C48.9316 15.5693 47.093 14.1545 46.2955 12.2656C46.0297 15.199 44.7966 17.4582 43.4453 20.0656Z" fill="black"/>
<path d="M47.7799 73.0867C52.8453 71.9015 57.7852 70.1607 62.474 67.9089C61.4181 60.5904 58.9814 53.5311 55.9983 46.7756C53.148 40.3163 49.4191 33.7237 43.1797 30.457C46.1111 40.1904 47.455 50.4348 48.0088 60.583C48.2377 64.8274 49.1533 69.0718 47.7799 73.0867Z" fill="#A3102E"/>
<path d="M93.5673 39.2342C89.3142 41.8416 83.4365 43.3009 78.7255 41.012C77.9502 40.6342 77.2118 40.1527 76.6728 39.4787C74.8416 37.1602 77.3447 33.5898 79.272 32.1157C79.8553 31.6713 80.5125 31.2713 81.1549 30.9157C81.9893 30.4564 83.023 29.849 83.946 29.6268C84.7213 29.4416 85.7403 29.0564 86.715 30.0564C86.7815 30.1231 87.35 29.7379 87.9112 29.375C88.369 29.0787 88.8047 28.7527 89.2477 28.4268C89.8753 27.9676 90.6359 27.612 91.4334 27.7676C91.8247 27.8416 92.2382 28.0639 92.3564 28.449C92.7403 27.9602 93.4492 27.7602 94.0325 27.9676C94.6158 28.1824 95.0293 28.7898 95.0146 29.412C95.5019 29.1231 96.1739 29.375 96.4766 29.849C96.7793 30.3231 96.772 31.0713 96.5947 31.612C96.9935 31.3379 97.5768 31.5898 97.8131 32.012C98.0494 32.4342 98.0199 32.9527 97.9534 33.4268C97.5768 35.975 95.6865 37.9379 93.5673 39.2342Z" fill="#FFB9B3"/>
<path d="M75.2256 67.5898C73.4682 70.0342 71.5853 72.4935 68.9861 74.0046C63.4703 77.2194 56.1749 75.212 51.2277 71.1676C50.8437 70.8565 50.445 70.4787 50.3859 69.9898C50.3268 69.4787 50.6517 69.012 50.9619 68.6046C59.0325 57.9898 67.1106 47.3824 75.1813 36.7676C79.9366 39.5528 81.9155 40.6046 87.1285 43.3083C83.0969 52.4194 80.5716 60.1305 75.2108 67.5898H75.2256Z" fill="#A3102E"/>
<path d="M36.3521 206.791C40.2435 208.073 41.2477 207.88 44.4376 207.828C47.6274 207.777 50.9428 207.169 52.1538 206.851C56.1707 205.769 59.1686 204.91 61.3321 203.317C58.9914 164.784 54.5758 121.584 50.522 83.1914C45.2646 84.547 40.081 83.8655 34.6538 84.1692C32.4682 84.2951 30.157 84.2951 28.2667 83.1914C28.1559 93.8581 24.9144 93.7396 26.2878 104.317C28.5842 121.969 35.2002 134.614 35.7023 142.251C36.3964 152.858 36.7878 195.317 36.3447 206.806L36.3521 206.791Z" fill="#330515"/>
<path d="M15.7016 207.836C20.0655 207.755 22.9157 207.036 27.9294 205.592C30.6098 176.718 34.2206 150.607 36.0223 125.059C36.9748 111.577 37.9273 98.0882 38.8798 84.6067C38.6879 87.3252 11.1087 77.9845 8.51698 76.8438C6.26487 86.2438 5.49693 95.9919 6.17626 105.629C6.69314 112.859 8.76065 120.125 10.1341 127.259C10.5993 129.659 12.5486 137.903 12.5412 140.347C12.5412 143.414 11.8028 146.422 11.1235 149.407C6.70791 168.903 2.89039 185.844 0.867188 205.733C4.9136 206.673 8.30284 207.962 15.6942 207.829L15.7016 207.836Z" fill="#330515"/>
<path d="M51.9603 76.6336C52.2483 81.7151 54.2051 88.7744 55.5194 93.8336C46.3116 100.13 33.6481 100.863 22.5278 100.16C16.3032 99.767 1.63227 95.8188 2.28944 94.2633C4.83691 88.2337 8.5 74 8.5 74C8.5 74 9.5 67 9 61.5C8.5 59 7.82003 58.167 6.62383 55.3892C5.61961 53.0633 4.91075 50.5225 5.24303 48.0114C5.4867 46.1596 6.28416 44.4262 7.19239 42.7892C11.1354 35.6559 12.2937 35.7744 19.5964 32.1892C20.2905 31.8485 21.0215 31.5077 21.531 30.9225C21.9371 30.4559 22.166 29.8707 22.4245 29.3077C23.1702 27.6633 23.8496 25.9225 25.7251 25.367C26.7736 25.0559 27.8812 25.0633 28.9593 24.8929C31.5289 24.4855 33.9139 23.0929 36.5205 23.0114C38.1154 22.9596 39.7768 23.4633 40.8622 24.6337C41.8738 25.7225 42.2799 27.2262 42.9445 28.5596C43.8453 30.3744 45.2409 31.8855 46.5257 33.4485C49.6861 37.3003 52.0268 41.8337 53.4002 46.6262C54.0869 49.0188 54.5447 51.5003 54.6924 53.9892C54.8401 56.4781 53.9097 59.0411 53.3042 61.5151C52.0563 66.5818 51.7019 71.6188 51.9825 76.6336H51.9603Z" fill="#A3102E"/>
<path d="M42.2285 24.3311L43.3435 20.4866C40.6926 19.9459 37.8646 20.4866 35.5165 19.0644C34.4606 18.4274 33.3382 17.694 32.4152 16.9014C31.9943 16.5385 30.4437 14.7977 30.5914 14.2422C29.7791 17.4348 27.6156 24.4274 26.7813 27.6126C26.7813 27.6126 26.7665 29.4866 28.007 31.9089C29.9121 31.2348 31.7728 30.4496 33.5745 29.5533C36.5798 28.057 39.6072 26.4422 42.2359 24.3311H42.2285Z" fill="#E98F87"/>
<path d="M33.5675 29.5547C31.7658 30.451 29.9051 31.2361 28 31.9102C28.4726 32.8361 29.1224 33.8435 30.038 34.8584C33.3386 38.5324 37.6065 40.251 37.6065 40.251L42.2363 24.3398C39.6076 26.451 36.5802 28.0584 33.5749 29.5621L33.5675 29.5547Z" fill="#FFB9B3"/>
<path d="M27.5594 14.8707C27.5299 16.7522 27.9508 18.6485 28.7999 20.33C28.128 20.8707 27.1976 21.0707 26.3632 20.8633C24.7683 20.4707 23.3653 18.1818 22.8854 16.7004C22.2873 14.8485 22.3168 12.73 22.8042 10.8559C23.5204 8.10036 25.1892 6.10776 27.1238 4.82628C29.7746 3.07813 32.0341 2.69295 34.2567 3.00406C38.2071 3.56702 39.4698 5.09295 41.013 6.75221C41.8769 7.68554 42.9033 9.46332 42.8073 10.0633C41.2124 8.41887 38.0077 5.99665 35.5932 6.28554C33.9023 6.48554 32.3295 7.29295 30.9487 8.25591C30.1586 8.81147 28.9624 9.55962 28.4603 10.4115C27.9656 11.2411 27.781 12.5448 27.6554 13.4929C27.5964 13.9522 27.5594 14.4115 27.5521 14.8707H27.5594Z" fill="black"/>
<path d="M26.5172 14.5993C25.9486 15.8882 25.7861 17.7178 26.0298 19.1104C23.7777 17.3697 23.5119 13.3771 24.2281 10.6215C24.9444 7.86598 26.6131 5.87339 28.5477 4.59191C31.1986 2.84376 33.4581 2.45857 35.6807 2.76968C39.6311 3.33265 40.8937 4.85857 42.437 6.51783C43.3009 7.45117 44.3273 9.22894 44.2313 9.82894C42.6364 8.1845 39.4317 5.76228 37.0172 6.05117C35.3262 6.25117 33.7534 7.05857 32.3726 8.02154C30.3864 9.40672 28.7545 11.2586 27.2999 13.1993C26.9823 13.6215 26.7313 14.103 26.5172 14.5919V14.5993Z" fill="black"/>
<path d="M27.2811 23.0057C30.6482 28.0279 37.4415 29.3612 42.4552 25.9834C47.4615 22.6057 48.7906 15.7908 45.4235 10.7612C42.0564 5.73899 35.8908 2.76121 29.6514 6.56121C23.1313 10.5316 23.914 17.9834 27.2811 23.0057Z" fill="#FFB9B3"/>
<path d="M26.2314 18.9536C26.3496 18.7758 26.4972 18.6351 26.6892 18.5684C27.2578 18.3758 28.5795 19.4795 29.2072 19.6647C30.2114 19.961 31.3264 19.9758 32.2789 19.5388C31.6439 19.2869 31.1565 18.7536 30.8095 18.1758C29.7019 16.3462 29.7905 14.0276 30.2778 11.9462C30.9129 9.23505 32.3601 6.39061 35.0479 5.24987C35.6312 5.00542 36.2441 4.84246 36.8717 4.79061C37.1523 4.76098 37.4329 4.75357 37.7061 4.80542C37.8169 4.82764 38.6365 5.04246 38.6439 5.13876C38.5405 4.06468 37.9719 3.07209 37.1892 2.33135C36.5837 1.75357 35.8749 1.3832 35.1291 1.02764C29.0743 -1.86865 21.2251 1.69431 18.397 7.50172C17.2673 9.82024 17.762 11.6202 17.4814 14.0202C17.2451 16.0128 15.5099 17.4351 13.8633 18.5684C14.6164 19.7462 15.8643 20.4869 17.0901 21.161C18.685 22.0351 20.3169 22.8573 22.0743 23.3165C23.8316 23.7758 25.7219 23.8573 27.435 23.2573C26.7926 22.4943 26.5046 21.5684 26.3126 20.5832C26.2314 20.1462 25.9065 19.4499 26.2314 18.9536Z" fill="black"/>
<path d="M27.8169 19.4717C27.9129 21.3384 26.4804 22.9236 24.6196 23.0199C22.7588 23.1162 21.1787 21.6792 21.0827 19.8125C20.9867 17.9458 22.4192 16.3606 24.2799 16.2643C26.1407 16.168 27.7209 17.6051 27.8169 19.4717Z" fill="#FFB9B3"/>
</svg>
