<svg width="604" height="400" viewBox="0 0 604 400" fill="none" xmlns="http://www.w3.org/2000/svg">
<path d="M126.536 110.401C118.833 111.207 111.121 112.014 103.416 112.812C100.411 113.122 97.1326 113.372 94.6146 111.699C94.7456 107.875 95.5162 104.232 95.8895 100.41C96.2034 97.1477 96.3101 93.7058 97.0175 90.4923C98.1084 85.5742 99.8811 81.1017 100.774 76.0121C101.758 70.4212 102.476 69.6823 102.501 64.0006C102.504 63.3001 111.698 63.8019 113 64.5C124 67.5 130.772 72.9121 135.001 77.5C138.699 81.507 140.51 84.9186 142.191 90.171C143.663 94.7603 143.859 99.7641 142.694 104.439C142.098 106.82 141.201 107.398 138.935 108.295C136.56 109.237 134.974 109.499 132.458 109.763C130.48 109.967 128.504 110.18 126.535 110.384L126.536 110.401Z" fill="#6B240F"/>
<path d="M75.4233 128.679C75.4749 127.032 75.5266 125.385 75.5791 123.746C75.7047 120.138 75.8123 116.523 75.9901 112.919C76.3457 105.71 76.9856 98.4923 78.5572 91.4368C79.1108 88.9727 79.7799 86.5408 80.5814 84.1397C82.4961 78.4262 85.3473 72.9267 89.2188 67.979C90.5605 66.2616 92.0458 64.5997 93.7246 63.248C99.683 73.6023 104.806 84.4506 109.002 95.6372C111.479 85.4447 112.947 75.0969 113.134 64.6454C113.293 64.7773 113.461 64.9083 113.621 65.0488C121.365 71.6123 125.601 80.66 128.821 89.6654C130.585 94.6074 132.039 99.4664 132.923 104.613C133.864 110.082 134.805 115.551 135.754 121.02C130.78 121.81 126.256 124.243 121.606 126.17C117.996 127.661 114.31 129.09 110.621 130.39C105.074 132.341 99.307 133.699 93.4609 134.312C90.4646 134.622 87.4419 134.743 84.4316 134.63C81.37 134.522 78.4313 134.619 75.5351 133.518C75.4633 133.49 75.3916 133.463 75.343 133.407C75.2843 133.334 75.2832 133.231 75.2914 133.135C75.3242 131.654 75.3656 130.172 75.4147 128.68L75.4233 128.679Z" fill="#6B240F"/>
<path d="M93.728 63.2555C94.6362 62.5299 95.5868 61.8868 96.6119 61.3922C99.6281 59.9226 103.328 59.8321 106.484 60.8475C108.998 61.6557 111.189 63.065 113.137 64.6529C112.95 75.1043 111.483 85.4607 109.006 95.6447C104.801 84.4588 99.6872 73.6184 93.728 63.2555Z" fill="#FFDDEC"/>
<path d="M100.145 59.559C99.6648 58.8696 99.2336 58.1497 98.8437 57.4086C98.1305 59.2827 97.4346 61.1552 96.7573 63.0432C96.6817 63.2492 96.6077 63.4723 96.6108 63.6881C96.6148 63.9125 96.6966 64.1381 96.7854 64.3458C97.7032 66.4634 99.3481 68.2268 101.298 69.4687C103.248 70.7106 105.487 71.4411 107.769 71.8045C107.918 71.825 108.057 71.8377 108.187 71.8341C109.393 71.7978 109.605 70.559 110.013 69.483C110.282 68.766 110.553 68.0576 110.822 67.3405C106.639 65.6097 102.721 63.214 100.145 59.559Z" fill="#FFB9B3"/>
<path d="M115.005 56.1904C114.916 56.4322 111.604 56.2354 111.223 56.2283C109.933 56.2119 108.641 56.1698 107.348 56.1192C104.736 56.0118 102.234 55.6953 99.6812 55.2105C99.3956 55.9378 99.1193 56.6727 98.8431 57.4077C99.233 58.1488 99.6641 58.8687 100.144 59.5581C102.721 63.2217 106.629 65.6096 110.821 67.3397C111.111 66.5602 111.409 65.7886 111.699 65.0091C112.804 62.0693 113.909 59.1294 115.014 56.1895L115.005 56.1904Z" fill="#FFB9B3"/>
<path d="M114.511 58.502C114.425 58.7497 110.961 57.165 110.579 57.1617C109.284 57.1586 107.987 57.1294 106.689 57.0914C104.065 57.0094 101.55 56.7129 98.981 56.2454C98.7045 56.9903 98.7778 57.7496 98.5108 58.5023C98.9124 59.2543 99.0149 59.9777 99.5063 60.6759C102.143 64.3863 106.099 66.7812 110.331 68.5019C110.61 67.7037 111.23 66.3002 111.51 65.502C112.569 62.4919 113.443 61.513 114.511 58.502Z" fill="#E98F88"/>
<path d="M94.2861 37.3905C94.7707 36.1171 95.4793 34.9264 96.3685 33.9087C98.8802 31.0346 102.261 29.9455 105.924 29.4694C109.588 28.9933 112.775 30.2478 115.953 32.1343C117.63 33.1341 119.734 33.9032 121.487 33.0632C123.195 35.6765 123.806 38.9381 123.31 42.0106C123.065 43.5378 122.561 45.0551 121.761 46.3841C121.149 47.4016 120.992 46.8458 120.409 46.0711C119.945 45.4581 119.448 44.8654 118.787 44.4611C117.117 43.4348 115.135 42.7664 113.267 42.2169C111.328 41.6396 109.321 41.2589 107.345 40.8321C105.872 40.5219 104.628 40.9939 103.381 41.6996C103.118 41.8455 102.857 42.0085 102.587 42.1724C100.955 43.1912 99.5132 44.3994 98.113 45.6816C96.9708 46.7664 96.3853 48.1616 95.2578 49.2192C94.4636 46.5799 93.4155 43.5412 93.5675 40.7606C93.6319 39.6134 93.8786 38.475 94.2869 37.399L94.2861 37.3905Z" fill="black"/>
<path d="M110.448 63.9906C117.782 63.2969 123.166 56.789 122.472 49.4546C121.778 42.1203 115.271 36.7369 107.936 37.4306C100.602 38.1242 95.2185 44.6322 95.9121 51.9665C96.6058 59.3009 103.114 64.6842 110.448 63.9906Z" fill="#FFB9B3"/>
<path d="M102.257 36.9815C102.464 36.8756 102.662 36.779 102.869 36.6817C104.228 36.0604 105.705 35.6873 107.191 35.5814C107.938 35.528 108.683 35.544 109.425 35.6208C110.037 35.6926 110.75 36.0141 111.345 36.0011C108.937 36.0386 106.477 36.3577 104.324 37.4431C99.9336 39.6477 98.9749 44.5014 98.9002 49.0122C98.6633 48.7925 95.9732 46.3067 95.9299 46.3972C96.2969 45.3425 96.6016 44.2677 96.836 43.1823C97.447 40.4101 99.7672 38.2544 102.24 36.9746L102.257 36.9815Z" fill="black"/>
<path d="M97.3778 54.0053C96.459 54.801 95.2067 55.1788 93.9218 54.9372C91.6864 54.5176 90.2208 52.3655 90.6404 50.1301C91.0601 47.8947 93.2122 46.4291 95.4476 46.8488C96.5656 47.0629 97.4905 47.7015 98.0827 48.5705" fill="#FFB9B3"/>
<path d="M117.171 36.6949C116.603 35.4434 115.297 34.711 114.049 34.1203C113.008 33.6309 111.782 33.185 110.76 33.7138C109.96 34.1266 109.545 35.0389 109.378 35.9192C108.908 38.4446 110.06 41.0241 111.667 43.0331C110.81 43.0191 109.945 43.1009 109.105 43.2754C108.953 43.3071 108.792 43.3396 108.648 43.284C108.522 43.2354 108.426 43.1321 108.339 43.0366C107.025 41.5704 105.65 40.0061 105.286 38.0783C104.937 39.14 105.126 40.3236 104.787 41.3931C104.532 42.1778 104.008 42.8498 103.422 43.4152C102.012 44.7761 100.142 45.6618 98.1928 45.8894C98.1048 43.7712 97.7464 41.6267 98.1284 39.5418C98.6807 36.5159 100.861 33.8893 103.653 32.6052C106.445 31.3211 109.777 31.3605 112.612 32.5446C114.042 33.1355 115.419 34.0771 116.103 35.4646" fill="black"/>
<path d="M529.852 55.7481C531.657 57.7702 532.39 60.4963 533.371 63.0202C534.352 65.5441 535.834 68.1504 538.364 69.124C539.188 69.4385 540.251 69.7381 540.393 70.6143C540.475 71.1236 540.176 71.6029 539.854 72.0073C537.511 74.9207 533.476 75.8793 529.74 75.9617C527.008 76.0216 524.268 75.6996 521.633 75.0106C519.566 74.4713 517.538 73.6849 515.853 72.3743C512.904 70.0751 511.302 66.1582 511.796 62.451C512.866 54.3476 523.826 49.0003 529.86 55.7481H529.852Z" fill="#E05B23"/>
<path d="M535.138 93.9283C530.729 91.9212 526.424 89.6669 522.134 87.4201C516.647 84.5517 511.167 81.6833 505.68 78.8149C505.545 78.7475 505.403 78.6651 505.335 78.5303C505.268 78.3955 505.283 78.2383 505.298 78.096C506.039 71.9248 507.08 65.8135 506.84 59.575C506.818 58.9384 520.914 63.3795 522.119 63.9637C531.582 68.5022 539.472 76.4633 546.891 83.7429C548.957 85.7725 551.256 87.4501 552.109 90.3859C552.686 92.3556 552.753 95.2314 551.6 97.0438C550.672 98.4968 548.471 98.3245 546.861 98.1747C542.684 97.7928 538.881 95.6434 535.13 93.9283H535.138Z" fill="#5C0922"/>
<path d="M561.496 92.7676C560.784 93.202 560.066 93.6214 559.34 94.0183C555.911 95.8981 550.626 99.2683 546.733 97.4559C544.509 96.4224 542.735 94.4527 541.942 92.131C541.38 90.4834 541.724 86.9859 543.079 85.7726C544.756 84.2672 548.507 84.1025 550.626 83.8254C555.155 83.2337 559.706 82.8518 564.265 82.687C566.354 82.6121 568.682 82.6645 570.187 84.11C570.524 84.432 570.823 84.8889 570.719 85.3532C570.644 85.6528 570.419 85.8774 570.195 86.0946C567.544 88.6185 564.617 90.8653 561.496 92.7751V92.7676Z" fill="#FFC9C4"/>
<path d="M512.649 115.909C502.168 115.879 491.68 115.752 481.199 115.52C482.412 104.121 483.932 91.2994 488.805 80.1179C491.006 75.0702 494.038 70.2995 497.938 66.113C500.02 63.8737 502.385 61.7767 505.14 60.7282C507.977 59.6422 511.309 59.8744 514.064 61.0727C516.444 62.1062 518.413 63.7389 520.128 65.5213C526.536 72.1643 529.575 80.777 531.716 89.2698C532.817 93.6511 533.722 98.0697 534.434 102.511C535.1 106.69 536.215 111.356 535.721 115.572C531.372 116.478 526.124 115.932 521.662 115.939C518.66 115.939 515.658 115.924 512.656 115.917L512.649 115.909Z" fill="#5C0922"/>
<path d="M528.585 84.499L544.904 91.1794C545.481 91.4116 546.117 91.449 546.716 91.2693L566.906 85.2329C567.648 85.0083 567.663 83.9672 566.929 83.7201L551.388 78.5375C551.26 78.4926 551.118 78.4851 550.983 78.515L528.382 81.8253C528.001 81.9002 527.656 82.5143 527.656 83.121C527.656 83.8249 528.225 84.3492 528.592 84.499H528.585Z" fill="#313131"/>
<path d="M528.584 83.1289L545.533 90.0714C545.697 90.1388 545.884 90.1463 546.057 90.0939L566.898 83.8628C567.639 83.6381 567.654 82.5971 566.921 82.35L551.379 77.1674C551.252 77.1225 551.11 77.115 550.975 77.1449L528.726 81.6235C527.955 81.7808 527.858 82.8368 528.584 83.1364V83.1289Z" fill="#4D4D4D"/>
<path d="M584.821 81.7882L546.619 90.9851C545.841 91.1723 545.129 90.708 545.025 89.9516L541.476 63.0875C541.379 62.3311 541.925 61.5672 542.704 61.3799L580.906 52.1831C581.684 51.9959 582.396 52.4602 582.5 53.2166L586.049 80.0807C586.146 80.8371 585.6 81.601 584.821 81.7882Z" fill="#D4D4D4"/>
<path d="M585.757 81.7883L547.84 90.9177C547.069 91.105 546.358 90.6481 546.26 89.8917L542.742 63.2298C542.644 62.4809 543.191 61.717 543.962 61.5298L581.88 52.4003C582.651 52.2131 583.362 52.67 583.459 53.4264L586.978 80.0882C587.075 80.8372 586.529 81.6011 585.757 81.7883Z" fill="#F2F2F2"/>
<path d="M565.74 80.874C565.814 80.6569 565.912 80.4397 566.017 80.2375C566.511 79.2938 567.454 78.7621 568.442 79.4436C568.569 78.485 569.34 77.6387 570.291 77.429C570.718 77.3391 571.219 77.3915 571.481 77.736C571.863 76.8074 572.702 75.991 573.705 75.9386C574.708 75.8862 575.734 76.8298 575.517 77.8109C575.711 76.9272 577.193 76.9572 577.568 77.6387C577.965 78.3502 578.204 79.1515 578.271 79.9604C578.331 80.7318 578.242 81.5032 578.092 82.2596C577.912 83.1508 577.62 83.9971 577.014 84.6936C576.55 85.2253 575.928 85.5399 575.517 86.1315C574.85 87.0902 573.832 87.9739 572.664 87.8915C572.32 87.869 571.968 87.7642 571.631 87.8241C571.294 87.884 571.01 88.1087 570.718 88.2884C569.617 88.9775 568.218 89.1572 566.982 88.7752C566.728 88.6929 566.481 88.5955 566.211 88.5506C565.68 88.4682 565.141 88.6255 564.602 88.6255C564.444 88.6255 562.086 87.8466 562.543 87.4197C563.756 86.2738 564.654 84.7984 565.118 83.1957C565.343 82.4243 565.47 81.6155 565.74 80.8591V80.874Z" fill="#FFC9C4"/>
<path d="M504.566 59.7096C504.102 59.1104 503.69 58.4738 503.308 57.8223C502.74 59.5373 502.186 61.2598 501.654 62.9899C501.594 63.1846 501.534 63.3793 501.549 63.5815C501.564 63.7837 501.647 63.9785 501.736 64.1657C502.65 66.0455 504.199 67.5658 506.011 68.6068C507.815 69.6478 509.866 70.2245 511.94 70.4567C512.075 70.4717 512.202 70.4717 512.314 70.4642C513.4 70.3818 513.542 69.2584 513.864 68.2698C514.081 67.6108 514.291 66.9592 514.508 66.3001C510.66 64.9071 507.037 62.9 504.566 59.7021V59.7096Z" fill="#FFC9C4"/>
<path d="M517.839 56.085C517.764 56.3097 514.777 56.2573 514.425 56.2723C513.258 56.3097 512.09 56.3247 510.922 56.3322C508.564 56.3397 506.288 56.1524 503.967 55.8154C503.743 56.482 503.526 57.156 503.301 57.83C503.683 58.4816 504.095 59.1182 504.559 59.7173C507.029 62.9228 510.652 64.9224 514.5 66.3154C514.732 65.6039 514.964 64.8924 515.197 64.181C516.08 61.4848 516.956 58.7887 517.839 56.0925V56.085Z" fill="#E98F87"/>
<path d="M497.513 51.6959C498.089 54.437 499.729 57.3578 502.296 58.6759C503.816 59.4548 505.179 59.1927 506.796 59.3275C508.211 59.4398 509.184 59.9266 510.636 59.5596C517.471 57.8296 524.104 49.876 522.083 42.6189C521.042 38.8892 518.003 35.8261 514.334 34.5829C504.557 31.2801 495.604 42.6938 497.513 51.6959Z" fill="#E05B23"/>
<path d="M507.747 63.2594C513.821 63.2594 518.744 58.3337 518.744 52.2576C518.744 46.1815 513.821 41.2559 507.747 41.2559C501.674 41.2559 496.75 46.1815 496.75 52.2576C496.75 58.3337 501.674 63.2594 507.747 63.2594Z" fill="#FFC9C4"/>
<path d="M519.704 55.5451C521.577 55.5451 523.095 54.0261 523.095 52.1524C523.095 50.2787 521.577 48.7598 519.704 48.7598C517.831 48.7598 516.312 50.2787 516.312 52.1524C516.312 54.0261 517.831 55.5451 519.704 55.5451Z" fill="#FFC9C4"/>
<path d="M503.518 42.4916C505.456 42.3044 506.924 44.2441 508.084 45.5772C509.364 47.0526 510.6 48.6853 512.396 49.554C513.684 50.1756 515.174 50.3479 516.573 50.0933C517.045 50.0109 517.532 49.8611 517.891 49.539C518.408 49.0672 518.557 48.3183 518.595 47.6143C518.73 45.2252 517.861 41.2484 515.428 40.155C513.863 39.451 511.91 38.9567 510.188 38.9866C508.219 39.0241 506.078 39.114 504.281 39.9902C502.949 40.6418 501.796 41.7352 501.234 43.1057C501.975 42.8361 502.746 42.559 503.525 42.4841L503.518 42.4916Z" fill="#E05B23"/>
<rect x="12.7734" y="118.302" width="190" height="190" rx="32" transform="rotate(-6.83657 12.7734 118.302)" fill="#FFDAE0"/>
<mask id="mask0_85_9161" style="mask-type:alpha" maskUnits="userSpaceOnUse" x="16" y="99" width="205" height="205">
<rect x="12.7695" y="118.303" width="190" height="190" rx="32" transform="rotate(-6.83657 12.7695 118.303)" fill="#7777F2"/>
</mask>
<g mask="url(#mask0_85_9161)">
<path d="M385.618 161.564L366.057 292.341C364.594 302.123 355.395 308.929 345.616 307.466L171.727 281.445C161.947 279.982 155.143 270.781 156.606 260.999L179.766 106.16C181.229 96.3776 190.428 89.5714 200.207 91.0348L262.441 100.347C264.889 100.713 267.002 102.313 267.933 104.667L283.547 128.107L370.486 141.116C380.266 142.58 387.07 151.781 385.607 161.563L385.618 161.564Z" fill="#FDCCD4"/>
</g>
<path d="M102.154 196.012C103.1 194.017 105.805 193.693 107.195 195.409L140.421 236.428C141.907 238.262 140.79 241.015 138.446 241.295L82.5971 247.964C80.2532 248.243 78.5192 245.832 79.531 243.699L102.154 196.012Z" fill="#FFB9C5" fill-opacity="0.72"/>
<path d="M132.429 176.837C133.375 174.842 136.08 174.519 137.47 176.235L182.231 231.485C183.717 233.319 182.6 236.072 180.255 236.352L105.014 245.337C102.669 245.617 100.935 243.204 101.947 241.072L132.429 176.837Z" fill="#FFB9C5"/>
<path opacity="0.72" d="M82.0039 192C88.6313 192 94.0039 186.627 94.0039 180C94.0039 173.373 88.6313 168 82.0039 168C75.3765 168 70.0039 173.373 70.0039 180C70.0039 186.627 75.3765 192 82.0039 192Z" fill="#FFB9C5"/>
<path d="M405.865 162.916L389.049 294.074C387.791 303.884 378.737 310.882 368.929 309.624L194.533 287.253C184.725 285.995 177.729 276.939 178.987 267.128L198.897 111.837C200.155 102.027 209.209 95.0294 219.017 96.2875L281.432 104.294C283.887 104.609 286.033 106.164 287.014 108.497L303.115 131.605L390.308 142.79C400.116 144.048 407.112 153.104 405.854 162.915L405.865 162.916Z" fill="#FFD737"/>
<mask id="mask1_85_9161" style="mask-type:alpha" maskUnits="userSpaceOnUse" x="178" y="96" width="229" height="214">
<path d="M405.865 162.916L389.049 294.074C387.791 303.884 378.737 310.882 368.929 309.624L194.533 287.253C184.725 285.995 177.729 276.939 178.987 267.128L198.897 111.837C200.155 102.027 209.209 95.0294 219.017 96.2875L281.432 104.294C283.887 104.609 286.033 106.164 287.014 108.497L303.115 131.605L390.308 142.79C400.116 144.048 407.112 153.104 405.854 162.915L405.865 162.916Z" fill="#F9D43F"/>
</mask>
<g mask="url(#mask1_85_9161)">
<rect width="169.96" height="219.996" rx="20" transform="matrix(0.965909 0.25888 -0.258758 0.965942 372.832 89)" fill="#F6CE2D"/>
</g>
<rect width="169.96" height="219.996" rx="20" transform="matrix(0.965909 0.25888 -0.258758 0.965942 398.832 76)" fill="#D11535"/>
<rect width="99.9765" height="9.99983" transform="matrix(0.965909 0.25888 -0.258758 0.965942 409.859 170.061)" fill="white"/>
<rect width="99.9765" height="9.99983" transform="matrix(0.965909 0.25888 -0.258758 0.965942 403.652 193.242)" fill="white"/>
<rect width="99.9765" height="9.99983" transform="matrix(0.965909 0.25888 -0.258758 0.965942 397.441 216.425)" fill="white"/>
<rect width="59.9859" height="9.99983" transform="matrix(0.965909 0.25888 -0.258758 0.965942 391.23 239.606)" fill="white"/>
<path d="M185.307 370.529C186.266 371.049 187.142 371.818 187.87 372.638C189.126 374.044 190.122 375.662 191.474 376.98C192.209 377.69 193.034 378.305 193.859 378.92C195.642 380.245 197.41 381.38 199.498 382.076C200.286 381.102 201.422 380.443 202.641 380.04C203.28 379.828 203.949 379.689 204.632 379.586C204.877 379.777 205.13 379.96 205.39 380.143C207.121 381.336 209.031 382.266 210.739 383.46C210.858 383.54 210.985 383.65 210.999 383.782C211.007 383.884 210.955 383.972 210.895 384.045C210.034 385.173 208.473 385.576 206.98 385.664C205.806 385.737 204.588 385.678 203.406 385.73C201.809 385.795 200.122 385.759 198.532 385.341C194.379 384.251 192.96 379.44 189.304 377.536C189.037 377.397 188.39 380.875 188.353 381.183C188.168 382.757 188.227 384.382 188.524 385.986C188.086 386 187.737 386.008 187.061 386.022C186.957 384.375 186.942 382.815 186.228 381.263C185.82 380.37 185.24 379.55 184.765 378.686C183.212 375.83 184.356 373.253 185.277 370.624C185.285 370.603 185.292 370.573 185.3 370.551L185.307 370.529Z" fill="black"/>
<path d="M186.111 364.518C186.029 363.009 185.888 361.501 185.724 360C189.083 360.242 192.433 360.447 195.777 360.615C195.755 361.391 195.74 362.167 195.717 362.943C195.665 364.825 195.613 366.743 196.089 368.537C196.654 370.646 198.637 372.96 199.982 374.746C201.327 376.525 202.843 378.21 204.626 379.579C203.942 379.681 203.281 379.82 202.635 380.033C201.409 380.435 200.279 381.102 199.492 382.068C197.411 381.373 195.643 380.238 193.853 378.912C193.028 378.305 192.203 377.69 191.468 376.972C190.115 375.654 189.112 374.043 187.864 372.63C187.129 371.81 186.259 371.041 185.301 370.522C185.665 369.489 186.021 368.442 186.178 367.337C186.304 366.429 186.163 365.44 186.111 364.51V364.518Z" fill="#FFB9B3"/>
<path d="M149.307 374.529C150.266 375.049 151.142 375.818 151.87 376.638C153.126 378.044 154.122 379.662 155.474 380.98C156.209 381.69 157.034 382.305 157.859 382.92C159.642 384.245 161.41 385.38 163.498 386.076C164.286 385.102 165.422 384.443 166.641 384.04C167.28 383.828 167.949 383.689 168.632 383.586C168.877 383.777 169.13 383.96 169.39 384.143C171.121 385.336 173.031 386.266 174.739 387.46C174.858 387.54 174.985 387.65 174.999 387.782C175.007 387.884 174.955 387.972 174.895 388.045C174.034 389.173 172.473 389.576 170.98 389.664C169.806 389.737 168.588 389.678 167.406 389.73C165.809 389.795 164.122 389.759 162.532 389.341C158.379 388.251 156.96 383.44 153.304 381.536C153.037 381.397 152.39 384.875 152.353 385.183C152.168 386.757 152.227 388.382 152.524 389.986C152.086 390 151.737 390.008 151.061 390.022C150.957 388.375 150.942 386.815 150.228 385.263C149.82 384.37 149.24 383.55 148.765 382.686C147.212 379.83 148.356 377.253 149.277 374.624C149.285 374.603 149.292 374.573 149.3 374.551L149.307 374.529Z" fill="black"/>
<path d="M150.111 368.518C150.029 367.009 149.888 365.501 149.724 364C153.083 364.242 156.433 364.447 159.777 364.615C159.755 365.391 159.74 366.167 159.717 366.943C159.665 368.825 159.613 370.743 160.089 372.537C160.654 374.646 162.637 376.96 163.982 378.746C165.327 380.525 166.843 382.21 168.626 383.579C167.942 383.681 167.281 383.82 166.635 384.033C165.409 384.435 164.279 385.102 163.492 386.068C161.411 385.373 159.643 384.238 157.853 382.912C157.028 382.305 156.203 381.69 155.468 380.972C154.115 379.654 153.112 378.043 151.864 376.63C151.129 375.81 150.259 375.041 149.301 374.522C149.665 373.489 150.021 372.442 150.178 371.337C150.304 370.429 150.163 369.44 150.111 368.51V368.518Z" fill="#FFB9B3"/>
<path d="M187.445 192.065C190.392 191.828 193.205 190.242 194.955 187.85C192.932 187.568 191.093 186.154 190.296 184.265C190.03 187.198 188.797 189.457 187.445 192.065Z" fill="black"/>
<path d="M191.78 245.087C196.845 243.901 201.785 242.161 206.474 239.909C205.418 232.59 202.981 225.531 199.998 218.776C197.148 212.316 193.419 205.724 187.18 202.457C190.111 212.19 191.455 222.435 192.009 232.583C192.238 236.827 193.153 241.072 191.78 245.087Z" fill="#A3102E"/>
<path d="M237.567 211.235C233.314 213.843 227.437 215.302 222.726 213.013C221.95 212.635 221.212 212.154 220.673 211.48C218.842 209.161 221.345 205.591 223.272 204.117C223.855 203.672 224.512 203.272 225.155 202.917C225.989 202.457 227.023 201.85 227.946 201.628C228.721 201.443 229.74 201.057 230.715 202.057C230.781 202.124 231.35 201.739 231.911 201.376C232.369 201.08 232.805 200.754 233.248 200.428C233.875 199.969 234.636 199.613 235.433 199.769C235.825 199.843 236.238 200.065 236.356 200.45C236.74 199.961 237.449 199.761 238.033 199.969C238.616 200.183 239.029 200.791 239.015 201.413C239.502 201.124 240.174 201.376 240.477 201.85C240.779 202.324 240.772 203.072 240.595 203.613C240.993 203.339 241.577 203.591 241.813 204.013C242.049 204.435 242.02 204.954 241.953 205.428C241.577 207.976 239.687 209.939 237.567 211.235Z" fill="#FFB9B3"/>
<path d="M219.226 239.591C217.468 242.035 215.585 244.494 212.986 246.006C207.47 249.22 200.175 247.213 195.228 243.169C194.844 242.857 194.445 242.48 194.386 241.991C194.327 241.48 194.652 241.013 194.962 240.606C203.033 229.991 211.111 219.383 219.181 208.769C223.937 211.554 225.915 212.606 231.129 215.309C227.097 224.42 224.572 232.132 219.211 239.591H219.226Z" fill="#A3102E"/>
<path d="M180.352 378.79C184.243 380.072 185.248 379.879 188.438 379.827C191.627 379.776 194.943 379.168 196.154 378.85C200.171 377.768 203.169 376.909 205.332 375.316C202.991 336.783 198.576 293.583 194.522 255.19C189.265 256.546 184.081 255.865 178.654 256.168C176.468 256.294 174.157 256.294 172.267 255.19C172.156 265.857 168.914 265.739 170.288 276.316C172.584 293.968 179.2 306.613 179.702 314.25C180.396 324.857 180.788 367.316 180.345 378.805L180.352 378.79Z" fill="#330515"/>
<path d="M159.702 379.835C164.066 379.754 166.916 379.035 171.929 377.591C174.61 348.717 178.221 322.606 180.022 297.058C180.975 283.576 181.927 270.087 182.88 256.606C182.688 259.324 155.109 249.984 152.517 248.843C150.265 258.243 149.497 267.991 150.176 277.628C150.693 284.858 152.761 292.124 154.134 299.258C154.599 301.658 156.549 309.902 156.541 312.346C156.541 315.413 155.803 318.421 155.124 321.406C150.708 340.902 146.89 357.843 144.867 377.732C148.914 378.672 152.303 379.961 159.694 379.828L159.702 379.835Z" fill="#330515"/>
<path d="M195.96 248.635C196.248 253.716 198.205 260.775 199.519 265.835C190.312 272.131 177.648 272.864 166.528 272.161C160.303 271.768 147.632 268.82 148.289 267.264C150.837 261.235 153.347 254.405 153.724 247.783C153.916 244.472 152.21 243.635 150.283 241.138C148.437 238.753 146.82 236.168 145.624 233.39C144.62 231.064 143.911 228.524 144.243 226.012C144.487 224.161 145.284 222.427 146.192 220.79C150.135 213.657 156.294 207.775 163.596 204.19C164.29 203.849 165.021 203.509 165.531 202.924C165.937 202.457 166.166 201.872 166.424 201.309C167.17 199.664 167.85 197.924 169.725 197.368C170.774 197.057 171.881 197.064 172.959 196.894C175.529 196.486 177.914 195.094 180.52 195.012C182.115 194.961 183.777 195.464 184.862 196.635C185.874 197.724 186.28 199.227 186.944 200.561C187.845 202.375 189.241 203.886 190.526 205.449C193.686 209.301 196.027 213.835 197.4 218.627C198.087 221.02 198.545 223.501 198.692 225.99C198.84 228.479 197.91 231.042 197.304 233.516C196.056 238.583 195.702 243.62 195.982 248.635H195.96Z" fill="#A3102E"/>
<path d="M186.229 196.331L187.343 192.487C184.693 191.946 181.865 192.487 179.516 191.064C178.461 190.427 177.338 189.694 176.415 188.901C175.994 188.538 174.444 186.798 174.591 186.242C173.779 189.435 171.616 196.427 170.781 199.613C170.781 199.613 170.766 201.487 172.007 203.909C173.912 203.235 175.773 202.45 177.575 201.553C180.58 200.057 183.607 198.442 186.236 196.331H186.229Z" fill="#E98F87"/>
<path d="M177.568 201.554C175.766 202.45 173.905 203.235 172 203.909C172.473 204.835 173.122 205.843 174.038 206.857C177.339 210.531 181.607 212.25 181.607 212.25L186.236 196.339C183.608 198.45 180.58 200.057 177.575 201.561L177.568 201.554Z" fill="#FFB9B3"/>
<path d="M171.559 186.872C171.53 188.753 171.951 190.649 172.8 192.331C172.128 192.872 171.198 193.072 170.363 192.864C168.768 192.472 167.365 190.183 166.885 188.701C166.287 186.849 166.317 184.731 166.804 182.857C167.52 180.101 169.189 178.109 171.124 176.827C173.775 175.079 176.034 174.694 178.257 175.005C182.207 175.568 183.47 177.094 185.013 178.753C185.877 179.687 186.903 181.464 186.807 182.064C185.212 180.42 182.008 177.998 179.593 178.287C177.902 178.487 176.329 179.294 174.949 180.257C174.159 180.812 172.962 181.561 172.46 182.412C171.966 183.242 171.781 184.546 171.655 185.494C171.596 185.953 171.559 186.412 171.552 186.872H171.559Z" fill="black"/>
<path d="M170.517 186.598C169.949 187.887 169.786 189.717 170.03 191.109C167.778 189.369 167.512 185.376 168.228 182.621C168.944 179.865 170.613 177.872 172.548 176.591C175.199 174.843 177.458 174.458 179.681 174.769C183.631 175.332 184.894 176.858 186.437 178.517C187.301 179.45 188.327 181.228 188.231 181.828C186.636 180.184 183.432 177.761 181.017 178.05C179.326 178.25 177.753 179.058 176.373 180.021C174.386 181.406 172.755 183.258 171.3 185.198C170.982 185.621 170.731 186.102 170.517 186.591V186.598Z" fill="black"/>
<path d="M171.281 195.006C174.648 200.028 181.441 201.361 186.455 197.983C191.462 194.606 192.791 187.791 189.424 182.761C186.056 177.739 179.891 174.761 173.651 178.561C167.131 182.532 167.914 189.983 171.281 195.006Z" fill="#FFB9B3"/>
<path d="M170.231 190.954C170.35 190.776 170.497 190.635 170.689 190.568C171.258 190.376 172.58 191.479 173.207 191.665C174.211 191.961 175.326 191.976 176.279 191.539C175.644 191.287 175.157 190.754 174.809 190.176C173.702 188.346 173.79 186.028 174.278 183.946C174.913 181.235 176.36 178.391 179.048 177.25C179.631 177.005 180.244 176.842 180.872 176.791C181.152 176.761 181.433 176.754 181.706 176.805C181.817 176.828 182.636 177.042 182.644 177.139C182.54 176.065 181.972 175.072 181.189 174.331C180.584 173.754 179.875 173.383 179.129 173.028C173.074 170.131 165.225 173.694 162.397 179.502C161.267 181.82 161.762 183.62 161.481 186.02C161.245 188.013 159.51 189.435 157.863 190.568C158.616 191.746 159.864 192.487 161.09 193.161C162.685 194.035 164.317 194.857 166.074 195.317C167.832 195.776 169.722 195.857 171.435 195.257C170.793 194.494 170.505 193.568 170.313 192.583C170.231 192.146 169.907 191.45 170.231 190.954Z" fill="black"/>
<path d="M171.817 191.472C171.913 193.338 170.48 194.924 168.62 195.02C166.759 195.116 165.179 193.679 165.083 191.812C164.987 189.946 166.419 188.361 168.28 188.264C170.141 188.168 171.721 189.605 171.817 191.472Z" fill="#FFB9B3"/>
<path d="M167.79 220.679C167.197 227.026 164.65 255.54 163.508 266.998L191.813 261.401C194.58 241.159 195.519 228.926 197.508 211.998L167.79 220.679Z" fill="white"/>
<path d="M175.411 244.383C175.485 245.354 176.149 255.643 176.925 255.628C179.14 255.369 181.326 254.813 183.4 253.976C184.368 254.539 185.187 254.806 186.332 254.917C189.027 255.176 191.767 254.85 194.329 253.976C195.377 253.613 196.433 253.132 197.135 252.272C197.836 251.406 198.058 250.072 197.386 249.191C198.117 248.932 198.641 248.25 198.811 247.502C199.025 246.576 198.671 246.25 198.161 245.598C199.01 244.976 199.571 243.991 199.35 242.902C199.195 242.139 198.7 241.332 197.962 241.028C199.808 239.295 197.083 237.354 195.495 237.109C195.244 237.072 194.956 237.065 194.764 237.243C194.632 237.369 194.58 237.554 194.513 237.724C194.056 238.776 192.815 239.013 191.826 239.265C191.493 239.346 191.161 239.435 190.829 239.517C189.987 239.732 189.145 239.946 188.289 240.058C189.345 239.095 190.615 238.332 191.405 237.109C191.818 236.472 192.136 235.939 191.589 235.295C191.117 234.739 190.305 234.458 189.596 234.48C188.532 234.502 187.55 235.043 186.679 235.65C184.213 237.369 182.359 239.62 181.267 242.406C179.413 242.732 177.589 243.206 175.817 243.82C175.669 243.872 175.514 243.932 175.441 244.072C175.389 244.169 175.396 244.287 175.404 244.391L175.411 244.383Z" fill="#FFB9B3"/>
<path d="M157.459 208.939C155.495 209.88 153.657 211.324 152.357 212.598C147.07 217.791 143.504 224.487 140.661 231.339C138.313 237.005 136.386 243.109 137.183 249.191C137.781 253.724 140.38 257.235 144.338 259.517C149.647 262.576 155.392 262.857 161.38 262.991C163.012 263.028 179.545 260.894 179.567 259.605C179.693 253.391 179.715 248.198 179.84 241.983C173.261 242.724 166.712 242.82 160.273 243.354C163.477 236.391 164.208 228.909 165.109 220.998C165.626 216.442 168.306 212.998 165.109 209.583C162.997 207.324 160.11 207.672 157.452 208.946L157.459 208.939Z" fill="#A3102E"/>
<path d="M490.722 109.438C490.655 109.483 490.58 109.521 490.513 109.566C488.117 110.914 485.325 111.565 482.577 111.408C481.537 111.348 480.496 111.176 479.508 110.831C476.274 109.708 473.826 106.705 473.182 103.342C472.778 101.238 473.062 99.0357 473.878 97.066C474.29 96.0774 474.941 95.2985 475.45 94.3773C475.855 93.6359 475.907 92.7522 476.124 91.9208C477.307 87.3748 479.096 82.9861 481.35 78.867C484.696 72.7408 488.417 67.019 494.9 63.9858C497.842 62.6078 498.886 62.9287 502 62C501.124 63.5578 502.304 63.851 501.458 65.4312C499.511 69.0636 498.957 73.9615 497.984 77.9608C496.921 82.3346 495.94 86.7233 495.102 91.1495C494.45 94.5945 493.882 98.0546 493.455 101.537C493.245 103.237 493.29 105.087 492.938 106.765C492.676 107.993 491.785 108.824 490.722 109.461V109.438Z" fill="#5C0922"/>
<path d="M514.28 120.118C511.068 119.429 507.258 117.669 504.87 115.377C498.334 115.392 491.784 114.478 485.466 112.658C483.489 112.089 481.513 111.423 479.769 110.314C478.032 109.206 476.534 107.603 475.913 105.663C475.075 103.065 476.003 100.076 478.054 98.3238C481.663 95.2532 485.668 97.0506 489.568 98.511C496.073 100.945 502.444 103.724 508.605 106.907C510.612 105.738 513.007 104.922 515.306 105.491C515.68 105.581 516.062 105.716 516.361 105.97C516.661 106.225 516.863 106.607 516.803 106.989C516.72 107.528 516.166 107.85 515.642 108.015C515.118 108.18 514.542 108.27 514.138 108.637C515.56 109.857 517.349 111.003 519.101 111.67C519.535 111.834 519.992 111.992 520.336 112.306C520.815 112.733 521.122 113.879 520.508 114.298C521.003 114.523 521.497 114.8 521.811 115.242C522.125 115.684 522.2 116.328 521.856 116.725C521.579 117.04 521.122 117.122 520.696 117.159C521.145 117.122 520.538 118.373 520.441 118.47C520.014 118.882 519.401 118.987 518.809 118.942C518.412 119.668 517.619 120.125 516.795 120.275C515.972 120.425 515.111 120.312 514.28 120.133V120.118Z" fill="#F2A39C"/>
<path d="M129.022 132.266L92.7701 134.897L99.1745 83.8613L135.427 81.2301L129.022 132.266Z" fill="#E5294A"/>
<path d="M109.932 82.7458C109.568 81.6052 108.686 80.1969 107.939 79.2765C107.192 78.3561 105.665 77.9385 104.514 77.8634C103.156 77.7671 101.762 78.4507 100.856 79.4968C99.9498 80.5429 99.622 82.0775 99.2007 83.8747C102.319 83.6104 106.588 83.4349 109.973 83.0739L109.932 82.7458Z" fill="#9F152E"/>
<path d="M139 101.497C139.379 97.2011 139.503 97.1365 139.183 92.8362C138.864 88.5358 137.802 84.2177 135.487 80.5813C134.299 78.722 132.244 75.8885 130.059 76.0247C120.488 76.6218 112.638 77.1617 104 77.8467C106.884 78.102 107.947 79.9292 108.774 81.5761C110.183 84.4003 111.083 89.8517 111.442 93.4618C111.882 97.8388 109.5 105.497 109.5 105.497L139 102.997L139 101.497Z" fill="white"/>
<path d="M134.362 108.711C135.903 109.085 137.992 109.607 139.459 108.835C141.124 107.967 142.448 106.412 143.108 104.659C143.955 102.421 143.78 99.2126 142.428 97.1909C141.576 95.9192 140.854 95.5628 139.323 95.3869C139.254 96.6589 139.128 97.2343 139.046 98.5509C137.275 98.935 135.399 99.5718 133.588 99.4311C133.154 99.3941 132.711 99.3493 132.301 99.4748C131.733 99.6499 131.032 100.514 131.382 101.131C130.883 101.126 130.361 101.158 129.92 101.408C129.479 101.657 129.167 102.181 129.308 102.67C129.422 103.058 129.773 103.311 130.111 103.522C129.747 103.305 129.77 104.638 129.816 104.763C130.012 105.291 130.492 105.635 131.002 105.839C131.051 106.631 131.54 107.348 132.178 107.816C132.816 108.285 133.58 108.542 134.346 108.721L134.362 108.711Z" fill="#FFB9B3"/>
<path d="M74.9968 114.704C72.877 114.775 70.751 114.872 68.6157 114.962C65.999 115.08 61.8319 115.258 59.5921 113.602C57.6311 112.154 58.7477 106.594 59.1057 104.347C60.34 96.6492 63.2716 89.2577 67.2927 82.6015C71.2915 75.9821 76.0329 69.6296 83.3615 66.5939C86.6889 65.2159 90.1968 64.1926 93.6843 63.3182C92.6331 64.9995 91.2075 67.0188 90.193 68.7226C87.8667 72.6424 87.0105 78.0311 85.7393 82.413C84.3503 87.195 83.0502 92.0032 81.91 96.8568C80.5358 102.709 79.3615 108.664 78.6889 114.623C77.454 114.636 76.2293 114.665 74.9968 114.704Z" fill="#6B240F"/>
<path d="M101.229 116.732C97.9545 117.301 93.716 117.089 90.6289 115.799C84.4805 118.334 77.9712 119.978 71.3634 120.672C69.2916 120.885 67.1852 121.007 65.1424 120.612C63.0996 120.218 61.1069 119.256 59.8037 117.633C58.0677 115.455 57.8401 112.226 59.1362 109.752C61.4057 105.414 65.8397 105.591 70.0483 105.487C77.1551 105.317 84.2719 105.525 91.3651 106.125C92.5537 104.707 94.9003 102.739 96.9301 103.178C97.0182 103.196 96.7 105.041 96.7018 105.335C98.6026 105.873 100.711 106.78 102.687 106.74C103.161 106.73 103.644 106.71 104.083 106.876C104.692 107.104 105.399 108.091 104.976 108.728C105.523 108.754 106.092 108.83 106.552 109.132C107.013 109.434 107.32 110.028 107.135 110.538C106.992 110.949 106.584 111.204 106.205 111.404C106.618 111.192 106.503 112.629 106.446 112.764C106.197 113.324 105.649 113.661 105.079 113.844C104.979 114.701 104.391 115.439 103.666 115.906C102.941 116.372 102.088 116.591 101.247 116.739L101.229 116.732Z" fill="#FFB9B3"/>
<path d="M59.9754 100.445C57.9401 104.242 56.8832 111.439 57.5291 115.709C57.6928 116.8 58.0457 117.881 58.7089 118.77C60.5725 121.29 64.1787 121.58 67.3151 121.474C74.8198 121.214 82.2965 119.927 89.4667 117.685C89.1535 113.185 88.9945 108.67 88.9742 104.16C79.7043 103.852 69.2539 100.752 59.984 100.444L59.9754 100.445Z" fill="#6B240F"/>
<path d="M599.206 49C599.206 44.9391 597.624 41.1212 594.752 38.2484C591.879 35.3756 588.061 33.7937 584 33.7937V29C589.342 29 594.365 31.0818 598.141 34.8586C601.918 38.6353 604 43.6584 604 49H599.206Z" fill="#F78699"/>
<path d="M595.936 49.0008H591.143C591.143 45.0631 587.938 41.8582 584 41.8582V37.0645C590.581 37.0645 595.936 42.4197 595.936 49.0008Z" fill="#E5294A"/>
</svg>
