<svg width="184" height="80" viewBox="0 0 184 80" fill="none" xmlns="http://www.w3.org/2000/svg">
<path d="M33.3959 35.6068L27.0791 22H36.4744L39.2116 29.6183L45.1653 22H54.5606L42.4934 35.6068L49.6742 50.3198H39.8796L36.6414 41.7501L29.7873 50.3198H20L33.3959 35.6068Z" fill="#164B78"/>
<path d="M55.4194 28.7995H62.215L61.6162 31.6475H61.6812C62.6551 30.5657 63.8021 29.7268 65.115 29.1307C66.428 28.5346 67.7842 28.2402 69.191 28.2402C72.4012 28.2402 74.7313 29.2631 76.1813 31.3089C77.6314 33.3547 77.9704 36.21 77.1985 39.8748C76.8739 41.4349 76.3328 42.892 75.5898 44.2461C74.8395 45.6075 73.9017 46.807 72.7691 47.8446C71.6365 48.8896 70.3668 49.6917 68.9601 50.2584C67.5534 50.825 66.0456 51.112 64.4441 51.112C62.9508 51.112 61.6812 50.8545 60.6351 50.3393C59.5891 49.8242 58.8388 49.1472 58.3771 48.3009H58.3122L56.2707 58.0001H49.2803L55.4266 28.7922L55.4194 28.7995ZM60.5918 43.5617C61.2411 44.5404 62.3737 45.0261 63.9752 45.0261C65.5767 45.0261 66.9041 44.5552 67.9501 43.6206C68.9962 42.686 69.7031 41.3319 70.0711 39.5658C70.4462 37.7702 70.3091 36.4161 69.6599 35.4889C69.0106 34.569 67.878 34.1054 66.2765 34.1054C64.675 34.1054 63.3404 34.5911 62.2727 35.5698C61.2123 36.5486 60.4981 37.8805 60.1446 39.5658C59.7911 41.251 59.9354 42.5903 60.5918 43.5617Z" fill="#164B78"/>
<path d="M102.776 50.3126H80.4805L86.5053 22H108.801L107.509 28.0685H91.2675L90.1924 33.1402H105.237L104.068 38.6266H89.0235L87.8257 44.2513H104.068L102.776 50.3198V50.3126Z" fill="#164B78"/>
<path d="M131.659 50.3126H124.138L117.5 38.583L118.24 35.0976H123.621C125.093 35.0976 126.164 34.8647 126.818 34.3917C127.471 33.9188 127.909 33.1693 128.132 32.1361L128.305 31.3065C128.542 30.2005 128.412 29.3856 127.938 28.8544C127.457 28.3232 126.516 28.0613 125.108 28.0613H117.105L112.393 50.3053H106.401L112.393 22H127.205C133.563 22 136.128 24.8887 134.906 30.6589L134.504 32.5581C133.973 35.0612 133.01 36.9458 131.623 38.1973C130.237 39.4489 128.261 40.2056 125.711 40.453L131.659 50.3198V50.3126Z" fill="#164B78"/>
<path d="M163.105 33.8636C162.507 36.673 161.332 38.8347 159.572 40.3486C157.604 42.008 154.965 42.8305 151.663 42.8305H143.322L141.729 50.3198H135.68L141.707 22H156.09C159.371 22 161.634 22.8297 162.874 24.4819C164.021 26.0467 164.295 28.2666 163.682 31.1415L163.105 33.8636ZM157.244 33.1358L157.525 31.8257C157.799 30.5374 157.676 29.5767 157.164 28.9435C156.653 28.3103 155.665 27.9973 154.208 27.9973H146.487L144.634 36.724H152.356C153.812 36.724 154.929 36.4401 155.694 35.8797C156.465 35.3193 156.984 34.4022 157.251 33.1358H157.244Z" fill="#164B78"/>
</svg>
