<svg width="200" height="80" viewBox="0 0 200 80" fill="none" xmlns="http://www.w3.org/2000/svg">
<path d="M41.3959 37.6068L35.0791 24H44.4744L47.2116 31.6183L53.1653 24H62.5606L50.4934 37.6068L57.6742 52.3198H47.8796L44.6414 43.7501L37.7873 52.3198H28L41.3959 37.6068Z" fill="#164B78"/>
<path d="M63.4192 30.799H70.2148L69.616 33.647H69.6809C70.6548 32.5652 71.8018 31.7263 73.1148 31.1302C74.4277 30.5341 75.784 30.2397 77.1907 30.2397C80.4009 30.2397 82.7311 31.2626 84.1811 33.3085C85.6311 35.3543 85.9702 38.2096 85.1983 41.8743C84.8736 43.4345 84.3326 44.8915 83.5895 46.2456C82.8393 47.607 81.9015 48.8065 80.7689 49.8441C79.6363 50.8891 78.3666 51.6913 76.9599 52.2579C75.5531 52.8245 74.0454 53.1116 72.4439 53.1116C70.9506 53.1116 69.6809 52.854 68.6349 52.3389C67.5889 51.8237 66.8386 51.1467 66.3769 50.3004H66.312L64.2704 59.9996H57.28L63.4264 30.7917L63.4192 30.799ZM68.5916 45.5612C69.2409 46.54 70.3735 47.0256 71.975 47.0256C73.5765 47.0256 74.9039 46.5547 75.9499 45.6201C76.9959 44.6855 77.7029 43.3314 78.0708 41.5653C78.4459 39.7697 78.3089 38.4156 77.6596 37.4884C77.0104 36.5685 75.8778 36.1049 74.2762 36.1049C72.6747 36.1049 71.3401 36.5906 70.2725 37.5693C69.212 38.5481 68.4978 39.88 68.1443 41.5653C67.7908 43.2505 67.9351 44.5898 68.5916 45.5612Z" fill="#164B78"/>
<path d="M110.776 52.3126H88.4805L94.5053 24H116.801L115.509 30.0685H99.2675L98.1924 35.1402H113.237L112.068 40.6266H97.0235L95.8257 46.2513H112.068L110.776 52.3198V52.3126Z" fill="#164B78"/>
<path d="M139.66 52.3126H132.138L125.5 40.583L126.24 37.0976H131.621C133.094 37.0976 134.164 36.8647 134.818 36.3917C135.472 35.9188 135.91 35.1693 136.132 34.1361L136.305 33.3065C136.542 32.2005 136.413 31.3856 135.938 30.8544C135.457 30.3232 134.516 30.0613 133.108 30.0613H125.105L120.393 52.3053H114.402L120.393 24H135.206C141.563 24 144.128 26.8887 142.907 32.6589L142.504 34.5581C141.973 37.0612 141.01 38.9458 139.624 40.1973C138.237 41.4489 136.262 42.2056 133.711 42.453L139.66 52.3198V52.3126Z" fill="#164B78"/>
<path d="M171.105 35.8636C170.507 38.673 169.332 40.8347 167.572 42.3486C165.604 44.008 162.965 44.8305 159.663 44.8305H151.322L149.729 52.3198H143.68L149.707 24H164.09C167.371 24 169.634 24.8297 170.874 26.4819C172.021 28.0467 172.295 30.2666 171.682 33.1415L171.105 35.8636ZM165.244 35.1358L165.525 33.8257C165.799 32.5374 165.676 31.5767 165.164 30.9435C164.653 30.3103 163.665 29.9973 162.208 29.9973H154.487L152.634 38.724H160.356C161.812 38.724 162.929 38.4401 163.694 37.8797C164.465 37.3193 164.984 36.4022 165.251 35.1358H165.244Z" fill="#164B78"/>
</svg>
