<svg width="16" height="16" viewBox="0 0 16 16" fill="none" xmlns="http://www.w3.org/2000/svg">
<path d="M13.6667 0H2.33333C1.04467 0 0 1.04467 0 2.33333V13.6667C0 14.9553 1.04467 16 2.33333 16H13.6667C14.9553 16 16 14.9553 16 13.6667V2.33333C16 1.04467 14.9553 0 13.6667 0Z" fill="#231F20"/>
<path fill-rule="evenodd" clip-rule="evenodd" d="M2.56453 0.652789C1.5087 0.652789 0.652789 1.5087 0.652789 2.56453V13.4355C0.652789 14.4913 1.5087 15.3472 2.56453 15.3472H13.4355C14.4913 15.3472 15.3472 14.4913 15.3472 13.4355V2.56453C15.3472 1.5087 14.4913 0.652789 13.4355 0.652789H2.56453ZM0 2.56453C0 1.14818 1.14818 0 2.56453 0H13.4355C14.8518 0 16 1.14818 16 2.56453V13.4355C16 14.8518 14.8518 16 13.4355 16H2.56453C1.14818 16 0 14.8518 0 13.4355V2.56453Z" fill="#D63A2B"/>
<path d="M13.4781 11.6076C13.3966 11.478 13.3101 11.3779 13.2179 11.3078C13.122 11.2371 13.0343 11.1894 12.9547 11.1635C12.8751 11.1382 12.8375 11.1234 12.8419 11.1193C12.8463 11.1193 12.8782 11.1034 12.939 11.0722C12.9992 11.041 13.0631 10.988 13.1302 10.9132C13.201 10.839 13.265 10.7377 13.3214 10.6105C13.3778 10.4832 13.406 10.3213 13.406 10.1252C13.406 9.89782 13.359 9.71112 13.265 9.56624C13.1709 9.42136 13.0613 9.3071 12.9365 9.22523C12.8112 9.14278 12.6827 9.08624 12.5517 9.05444C12.4201 9.02322 12.3166 9.00732 12.242 9.00732H8.6418V11.8785C8.6418 12.1058 8.58413 12.3014 8.46943 12.4639C8.35473 12.6265 8.19051 12.7077 7.97803 12.7077C7.76555 12.7077 7.60008 12.6265 7.4835 12.4639C7.36629 12.3014 7.308 12.1058 7.308 11.8785V9.00732H4.72252V10.7194H3.38872V9.31358H3.54605C3.60747 9.43667 3.74035 9.52207 3.89454 9.52207C4.10702 9.52207 4.27938 9.35952 4.27938 9.16045C4.27938 8.96138 4.10702 8.79883 3.89454 8.79883C3.74035 8.79883 3.6081 8.88423 3.54605 9.00732H2.57202H2.39966V13.3903H3.38872H3.54605C3.60747 13.5134 3.74035 13.5988 3.89454 13.5988C4.10702 13.5988 4.27938 13.4363 4.27938 13.2372C4.27938 13.0381 4.10702 12.8756 3.89454 12.8756C3.74035 12.8756 3.6081 12.961 3.54605 13.0841H3.38872V11.5145H4.72252V13.3915H5.71785V9.803H6.31894V11.7442C6.31894 12.2855 6.46184 12.7142 6.74766 13.0299C7.03347 13.3456 7.44339 13.5034 7.97803 13.5034C8.51268 13.5034 8.91696 13.3456 9.20528 13.0299C9.49297 12.7142 9.63713 12.2855 9.63713 11.7442V9.803H10.2257V10.3395C9.93485 10.5062 9.7393 10.806 9.7393 11.1488C9.7393 11.4915 9.93485 11.7913 10.2257 11.9574V13.3974H12.3542C12.4251 13.3974 12.5297 13.3803 12.667 13.3473C12.8049 13.3138 12.9428 13.2502 13.0801 13.1559C13.2179 13.0617 13.3389 12.9315 13.443 12.7649C13.547 12.5982 13.5997 12.3815 13.5997 12.1147C13.5997 11.9068 13.5589 11.7383 13.4774 11.6087L13.4781 11.6076ZM3.89391 9.01733C3.9779 9.01733 4.04559 9.08153 4.04559 9.15986C4.04559 9.23819 3.97727 9.30298 3.89391 9.30298C3.81055 9.30298 3.74223 9.23878 3.74223 9.15986C3.74223 9.08094 3.80992 9.01733 3.89391 9.01733ZM3.89391 13.0935C3.9779 13.0935 4.04559 13.1577 4.04559 13.236C4.04559 13.3144 3.97727 13.3791 3.89391 13.3791C3.81055 13.3791 3.74223 13.315 3.74223 13.236C3.74223 13.1571 3.80992 13.0935 3.89391 13.0935ZM10.7478 11.6023C10.4808 11.6023 10.2633 11.3979 10.2633 11.147C10.2633 10.8961 10.4808 10.6917 10.7478 10.6917C11.0148 10.6917 11.2323 10.8961 11.2323 11.147C11.2323 11.3979 11.0148 11.6023 10.7478 11.6023ZM12.4796 12.478C12.3755 12.5917 12.2602 12.6488 12.1355 12.6488H11.2216V11.9827C11.5394 11.8231 11.7563 11.5086 11.7563 11.147C11.7563 10.7854 11.5394 10.4709 11.2216 10.3113V9.7606H12.0045C12.1299 9.7606 12.2352 9.81537 12.3204 9.9255C12.4056 10.0356 12.4489 10.1528 12.4489 10.2789C12.4489 10.4202 12.4063 10.5404 12.3204 10.6405C12.2345 10.7406 12.1292 10.7907 12.0045 10.7907C12.0045 10.7907 11.8472 10.796 11.8472 10.9385V11.3425C11.8472 11.3425 11.8497 11.4904 12.0045 11.4904C12.1593 11.4904 12.1424 11.4904 12.1424 11.4904C12.2677 11.4904 12.3824 11.5481 12.4865 11.6641C12.5905 11.7801 12.6432 11.9144 12.6432 12.067C12.6388 12.2277 12.5849 12.365 12.4802 12.4786L12.4796 12.478Z" fill="#D73A2E"/>
<path d="M9.6385 6.23796L9.80303 6.39712C9.94554 6.39712 10.0991 6.37258 10.2636 6.3235C10.4281 6.27442 10.5797 6.18958 10.7183 6.06898C10.857 5.94909 10.9716 5.78783 11.063 5.5866C11.1543 5.38467 11.1996 5.13156 11.1996 4.82726C11.1957 4.53138 11.1543 4.28038 11.0746 4.07424C10.9949 3.86811 10.89 3.70123 10.7591 3.57222C10.6283 3.44322 10.48 3.34996 10.3135 3.29247C10.147 3.23428 9.97858 3.20553 9.80822 3.20553H8.14927V6.97626H7.06554L6.30052 5.53471L7.53712 3.19922H6.53826L5.80109 4.55031L5.06393 3.19922H4.06506L5.30166 5.53471L3.99963 7.99922H5.09955L5.80109 6.50649L6.50846 7.99922H9.09437V4.08055H9.76028C9.90279 4.08055 10.0207 4.15137 10.114 4.293C10.2072 4.43463 10.2539 4.61061 10.2539 4.82095C10.25 5.0355 10.2053 5.20728 10.1204 5.33559C10.0349 5.4646 9.9151 5.5284 9.76093 5.5284C9.76093 5.5284 9.63785 5.53261 9.63785 5.66232C9.63785 5.79203 9.6385 6.23796 9.6385 6.23796ZM9.6385 6.23796C9.6385 6.39291 9.80303 6.39712 9.80303 6.39712L9.6385 6.23796Z" fill="white"/>
<path d="M11.2 0H4V0.8H11.2V0Z" fill="#D73A2E"/>
</svg>
