<svg width="74" height="74" viewBox="0 0 74 74" fill="none" xmlns="http://www.w3.org/2000/svg">
<ellipse cx="37" cy="36.9999" rx="37" ry="37.0009" fill="white"/>
<path d="M49.3277 19.3809H24.6608C21.7415 19.3809 19.375 21.7474 19.375 24.6666V49.3335C19.375 52.2528 21.7415 54.6193 24.6608 54.6193H49.3277C52.2469 54.6193 54.6135 52.2528 54.6135 49.3335V24.6666C54.6135 21.7474 52.2469 19.3809 49.3277 19.3809Z" fill="#C80A0A"/>
<path d="M47.8005 40.1663C47.181 39.478 45.8045 39.1339 43.9463 39.1339C42.845 39.1339 41.675 39.2716 40.2985 39.478C38.8411 38.1129 37.6303 36.5063 36.7196 34.7291C37.4079 32.6644 37.8896 30.6684 37.8896 29.1543C37.8896 27.9843 37.4767 26.126 35.8249 26.126C35.3431 26.126 34.9302 26.4013 34.6549 26.8142C33.9666 28.0531 34.2419 30.8061 35.5496 33.6967C34.5943 36.4589 33.4444 39.1498 32.1083 41.7493C28.4606 43.2634 26.0517 44.9152 25.8453 46.2229C25.7076 46.8423 26.1206 47.8747 27.5659 47.8747C29.6995 47.8747 32.0395 44.7776 33.829 41.6116C35.8947 40.9013 38.0114 40.3491 40.1609 39.9598C42.7762 42.2311 45.0475 42.5752 46.1487 42.5752C48.3511 42.5752 48.5575 40.9922 47.8005 40.1663ZM34.999 27.0207C35.5496 26.1948 36.7884 26.4701 36.7884 28.1219C36.7884 29.2231 36.4443 31.0126 35.7561 33.0773C34.5172 30.1867 34.5172 27.9154 34.999 27.0207ZM26.2582 46.2917C26.4647 45.1905 28.5294 43.6764 31.7642 42.3687C29.9748 45.397 28.1853 47.3241 27.0841 47.3241C26.3959 47.3241 26.1894 46.7047 26.2582 46.2917ZM39.8167 39.5469C37.8774 39.9083 35.9679 40.4144 34.1043 41.061C35.1229 39.2224 35.9531 37.2854 36.582 35.2797C37.4866 36.8258 38.5725 38.2583 39.8167 39.5469ZM40.7115 39.8222C42.9139 39.478 44.7722 39.5469 45.5981 39.6845C47.594 40.0975 46.9057 42.5064 44.7033 41.9558C43.1203 41.6116 41.8127 40.7169 40.7115 39.8222Z" fill="white"/>
</svg>
