<svg width="48" height="48" viewBox="0 0 48 48" fill="none" xmlns="http://www.w3.org/2000/svg">
<circle cx="24" cy="24" r="24" fill="#FFD8D8"/>
<path d="M17.7651 23.1596L19.6318 21.2929L24.7651 26.4263L28.0318 23.1596L30.8318 25.9596V17.4663H17.7651V23.1596ZM16.8318 15.5996H31.7651C32.0126 15.5996 32.25 15.6979 32.4251 15.873C32.6001 16.048 32.6984 16.2854 32.6984 16.5329V31.4663C32.6984 31.7138 32.6001 31.9512 32.4251 32.1262C32.25 32.3013 32.0126 32.3996 31.7651 32.3996H16.8318C16.5842 32.3996 16.3468 32.3013 16.1718 32.1262C15.9968 31.9512 15.8984 31.7138 15.8984 31.4663V16.5329C15.8984 16.2854 15.9968 16.048 16.1718 15.873C16.3468 15.6979 16.5842 15.5996 16.8318 15.5996ZM27.5651 22.1329C27.1938 22.1329 26.8377 21.9854 26.5752 21.7229C26.3126 21.4603 26.1651 21.1042 26.1651 20.7329C26.1651 20.3616 26.3126 20.0055 26.5752 19.743C26.8377 19.4804 27.1938 19.3329 27.5651 19.3329C27.9364 19.3329 28.2925 19.4804 28.5551 19.743C28.8176 20.0055 28.9651 20.3616 28.9651 20.7329C28.9651 21.1042 28.8176 21.4603 28.5551 21.7229C28.2925 21.9854 27.9364 22.1329 27.5651 22.1329Z" fill="#962828"/>
</svg>
