<svg width="62" height="62" viewBox="0 0 62 62" fill="none" xmlns="http://www.w3.org/2000/svg">
<circle cx="31" cy="31" r="31" fill="#FFD8D8"/>
<path d="M24.934 42.1711C23.2769 42.0428 21.7024 41.3897 20.4353 40.305C19.1682 39.2204 18.2732 37.7597 17.8783 36.1315C17.4833 34.5033 17.6085 32.7909 18.236 31.2387C18.8634 29.6866 19.9611 28.374 21.3722 27.4886C21.6725 25.1273 22.8156 22.9572 24.5876 21.3845C26.3597 19.8118 28.6392 18.9443 30.9996 18.9443C33.36 18.9443 35.6395 19.8118 37.4115 21.3845C39.1835 22.9572 40.3266 25.1273 40.6269 27.4886C42.038 28.374 43.1357 29.6866 43.7632 31.2387C44.3906 32.7909 44.5158 34.5033 44.1209 36.1315C43.7259 37.7597 42.831 39.2204 41.5638 40.305C40.2967 41.3897 38.7222 42.0428 37.0652 42.1711V42.1943H24.934V42.1711ZM32.2127 31.1825V26.2883H29.7864V31.1825H26.1471L30.9996 37.3002L35.8521 31.1825H32.2127Z" fill="#E4AAAA"/>
</svg>
