<svg width="62" height="62" viewBox="0 0 62 62" fill="none" xmlns="http://www.w3.org/2000/svg">
<circle cx="31" cy="31" r="31" fill="#FFB98E"/>
<path d="M24.8889 23.6662V19.9996C24.8889 19.6754 25.0177 19.3645 25.2469 19.1353C25.4761 18.9061 25.787 18.7773 26.1111 18.7773H40.7778C41.1019 18.7773 41.4128 18.9061 41.642 19.1353C41.8712 19.3645 42 19.6754 42 19.9996V37.1107C42 37.4348 41.8712 37.7457 41.642 37.9749C41.4128 38.2041 41.1019 38.3329 40.7778 38.3329H37.1111V41.9996C37.1111 42.6742 36.5611 43.2218 35.8803 43.2218H21.2308C21.0696 43.2228 20.9098 43.1919 20.7606 43.1309C20.6114 43.0699 20.4757 42.9801 20.3614 42.8665C20.247 42.7529 20.1562 42.6179 20.0942 42.4691C20.0322 42.3203 20.0002 42.1607 20 41.9996L20.0037 24.8885C20.0037 24.2138 20.5537 23.6662 21.2344 23.6662H24.8889ZM27.3333 23.6662H37.1111V35.8885H39.5556V21.2218H27.3333V23.6662ZM24.8889 29.7773V32.2218H32.2222V29.7773H24.8889ZM24.8889 34.6662V37.1107H32.2222V34.6662H24.8889Z" fill="#D98E5F"/>
</svg>
