<svg width="48" height="48" viewBox="0 0 48 48" fill="none" xmlns="http://www.w3.org/2000/svg">
<circle cx="24" cy="24" r="24" fill="#FFB98E"/>
<path d="M15 22H33V32.004C33 32.554 32.555 33 32.007 33H15.993C15.8624 32.9999 15.7331 32.974 15.6125 32.9239C15.4918 32.8737 15.3823 32.8003 15.2901 32.7078C15.1979 32.6153 15.1248 32.5055 15.075 32.3848C15.0252 32.264 14.9997 32.1346 15 32.004V22ZM21 24V26H27V24H21ZM14 16C14 15.448 14.455 15 14.992 15H33.008C33.556 15 34 15.444 34 16V20H14V16Z" fill="#D98E5F"/>
</svg>
