<svg width="56" height="56" viewBox="0 0 56 56" fill="none" xmlns="http://www.w3.org/2000/svg">
<circle cx="28" cy="28" r="28" fill="#FFB98E"/>
<path d="M32.2551 19.5559L24.8813 26.9297L24.8892 31.1243L29.0749 31.1174L36.4457 23.7465V36.346C36.4457 36.6079 36.3417 36.8592 36.1565 37.0444C35.9713 37.2296 35.72 37.3337 35.4581 37.3337H19.6556C19.3937 37.3337 19.1425 37.2296 18.9572 37.0444C18.772 36.8592 18.668 36.6079 18.668 36.346V20.5435C18.668 20.2816 18.772 20.0304 18.9572 19.8452C19.1425 19.6599 19.3937 19.5559 19.6556 19.5559H32.2551ZM35.9371 18.667L37.3346 20.0655L28.2561 29.144L26.8615 29.147L26.8596 27.7475L35.9371 18.667Z" fill="#D98E5F"/>
</svg>
