<svg width="74" height="74" viewBox="0 0 74 74" fill="none" xmlns="http://www.w3.org/2000/svg">
<circle cx="37" cy="37" r="37" fill="#ECC4FF"/>
<path d="M51.6961 31.3687V48.2637C51.6961 48.6371 51.5465 48.9952 51.2804 49.2592C51.0142 49.5232 50.6533 49.6716 50.2769 49.6716H24.7317C24.3553 49.6716 23.9943 49.5232 23.7282 49.2592C23.462 48.9952 23.3125 48.6371 23.3125 48.2637V29.9608H50.2769C50.6533 29.9608 51.0142 30.1091 51.2804 30.3731C51.5465 30.6372 51.6961 30.9953 51.6961 31.3687ZM38.0918 27.1449H23.3125V25.737C23.3125 25.3636 23.462 25.0055 23.7282 24.7415C23.9943 24.4774 24.3553 24.3291 24.7317 24.3291H35.2535L38.0918 27.1449Z" fill="#AF6FCD"/>
</svg>
